<svg width="53" height="41" viewBox="0 0 53 41" fill="none" xmlns="http://www.w3.org/2000/svg">
<path d="M10.1726 40.7439V38.0339C10.1726 36.9973 9.55382 36.3185 8.4915 36.3185C7.96034 36.3185 7.38276 36.4974 6.98568 37.0868C6.67627 36.5921 6.23277 36.3185 5.56753 36.3185C5.12404 36.3185 4.68055 36.4553 4.32988 36.95V36.408H3.40163V40.7439H4.32988V38.3497C4.32988 37.5814 4.72696 37.2183 5.34579 37.2183C5.96461 37.2183 6.27403 37.6235 6.27403 38.3497V40.7439H7.20227V38.3497C7.20227 37.5814 7.64576 37.2183 8.21818 37.2183C8.83701 37.2183 9.14642 37.6235 9.14642 38.3497V40.7439H10.1726ZM23.9416 36.408H22.4358V35.0977H21.5075V36.408H20.6669V37.2657H21.5075V39.2547C21.5075 40.2492 21.9046 40.8333 22.9669 40.8333C23.364 40.8333 23.8075 40.6965 24.1169 40.5176L23.8488 39.702C23.5806 39.8809 23.2712 39.9283 23.0494 39.9283C22.6059 39.9283 22.4306 39.6546 22.4306 39.2074V37.2657H23.9364V36.408H23.9416ZM31.8213 36.3133C31.2902 36.3133 30.9343 36.5869 30.7126 36.9447V36.4027H29.7844V40.7386H30.7126V38.297C30.7126 37.5761 31.022 37.1657 31.5996 37.1657C31.7749 37.1657 31.9967 37.2131 32.1772 37.2552L32.4453 36.3501C32.2597 36.3133 31.9967 36.3133 31.8213 36.3133ZM19.914 36.7658C19.4705 36.4501 18.8517 36.3133 18.1865 36.3133C17.1242 36.3133 16.4177 36.8552 16.4177 37.713C16.4177 38.4338 16.9488 38.8443 17.8771 38.9758L18.3206 39.0232C18.8053 39.1127 19.0735 39.2495 19.0735 39.4757C19.0735 39.7915 18.7176 40.0177 18.0988 40.0177C17.48 40.0177 16.9901 39.7915 16.6807 39.5652L16.2372 40.2861C16.7219 40.6492 17.3872 40.8281 18.0524 40.8281C19.2901 40.8281 20.0017 40.2387 20.0017 39.4284C20.0017 38.6601 19.4241 38.2549 18.5423 38.1181L18.0988 38.0708C17.7017 38.0234 17.3923 37.934 17.3923 37.6656C17.3923 37.3499 17.7017 37.171 18.1916 37.171C18.7228 37.171 19.254 37.3972 19.5221 37.534L19.914 36.7658ZM44.6104 36.3133C44.0793 36.3133 43.7235 36.5869 43.5017 36.9447V36.4027H42.5735V40.7386H43.5017V38.297C43.5017 37.5761 43.8111 37.1657 44.3887 37.1657C44.564 37.1657 44.7858 37.2131 44.9663 37.2552L45.2344 36.3606C45.0539 36.3133 44.7909 36.3133 44.6104 36.3133ZM32.7496 38.5759C32.7496 39.8862 33.6366 40.8333 35.0083 40.8333C35.6271 40.8333 36.0706 40.6965 36.5141 40.3387L36.0706 39.5704C35.7148 39.8441 35.3641 39.9756 34.9619 39.9756C34.209 39.9756 33.6778 39.4336 33.6778 38.5759C33.6778 37.7603 34.209 37.2183 34.9619 37.1762C35.359 37.1762 35.7148 37.313 36.0706 37.5814L36.5141 36.8131C36.0706 36.4501 35.6271 36.3185 35.0083 36.3185C33.6366 36.3133 32.7496 37.2657 32.7496 38.5759ZM41.3358 36.408H40.4076V36.95C40.0982 36.5448 39.6547 36.3185 39.0771 36.3185C37.8807 36.3185 36.9524 37.2657 36.9524 38.5759C36.9524 39.8862 37.8807 40.8333 39.0771 40.8333C39.6959 40.8333 40.1394 40.6071 40.4076 40.2019V40.7439H41.3358V36.408ZM37.9271 38.5759C37.9271 37.8077 38.4118 37.1762 39.2112 37.1762C39.9641 37.1762 40.4952 37.7656 40.4952 38.5759C40.4952 39.3442 39.9641 39.9756 39.2112 39.9756C38.417 39.9283 37.9271 39.3389 37.9271 38.5759ZM26.8191 36.3133C25.5815 36.3133 24.6945 37.2183 24.6945 38.5707C24.6945 39.9283 25.5815 40.8281 26.8655 40.8281C27.4844 40.8281 28.1032 40.6492 28.5931 40.2387L28.1496 39.5599C27.7938 39.8335 27.3503 40.0125 26.912 40.0125C26.3344 40.0125 25.762 39.7388 25.6279 38.9758H28.7684C28.7684 38.839 28.7684 38.7496 28.7684 38.6128C28.8097 37.2183 28.0104 36.3133 26.8191 36.3133ZM26.8191 37.1289C27.3967 37.1289 27.7938 37.4919 27.8815 38.1655H25.6691C25.7568 37.5814 26.1539 37.1289 26.8191 37.1289ZM49.8808 34.6925H48.9526V36.95C48.6431 36.5448 48.1996 36.3185 47.6221 36.3185C46.4257 36.3185 45.4974 37.2657 45.4974 38.5759C45.4974 39.8862 46.4257 40.8333 47.6221 40.8333C48.2409 40.8333 48.6844 40.6071 48.9526 40.2019V40.7439H49.8808V34.6925ZM46.4721 38.5759C46.4721 37.8077 46.9568 37.1762 47.7562 37.1762C48.5091 37.1762 49.0402 37.7656 49.0402 38.5759C49.0402 39.3442 48.5091 39.9756 47.7562 39.9756C46.9568 39.9283 46.4721 39.3389 46.4721 38.5759ZM15.3966 36.408H14.4683V36.95C14.1589 36.5448 13.7154 36.3185 13.1379 36.3185C11.9415 36.3185 11.0132 37.2657 11.0132 38.5759C11.0132 39.8862 11.9415 40.8333 13.1379 40.8333C13.7567 40.8333 14.2002 40.6071 14.4683 40.2019V40.7439H15.3966V36.408ZM11.9466 38.5759C11.9466 37.8077 12.4314 37.1762 13.2307 37.1762C13.9836 37.1762 14.5148 37.7656 14.5148 38.5759C14.5148 39.3442 13.9836 39.9756 13.2307 39.9756C12.4314 39.9283 11.9466 39.3389 11.9466 38.5759Z" fill="white"/>
<path d="M33.5489 3.4782H19.6046V29.0411H33.5489V3.4782Z" fill="#FF5A00"/>
<path d="M20.5329 16.2597C20.5329 11.066 22.9257 6.45651 26.5974 3.4782C23.8952 1.31024 20.4865 0 16.7683 0C7.96034 0 0.833496 7.27212 0.833496 16.2597C0.833496 25.2472 7.96034 32.5193 16.7683 32.5193C20.4865 32.5193 23.8952 31.2091 26.5974 29.0411C22.9205 26.1049 20.5329 21.4533 20.5329 16.2597Z" fill="#EB001B"/>
<path d="M52.3613 16.2597C52.3613 25.2472 45.2344 32.5193 36.4264 32.5193C32.7083 32.5193 29.2996 31.2091 26.5974 29.0411C30.3155 26.0576 32.6619 21.4533 32.6619 16.2597C32.6619 11.066 30.2691 6.45651 26.5974 3.4782C29.2944 1.31024 32.7032 0 36.4213 0C45.2344 0 52.3613 7.31948 52.3613 16.2597Z" fill="#F79E1B"/>
</svg>
