<svg width="61" height="21" viewBox="0 0 61 21" fill="none" xmlns="http://www.w3.org/2000/svg">
<path d="M39.5727 0.694336C35.3618 0.694336 31.5987 2.90295 31.5987 6.98353C31.5987 11.6632 38.2727 11.9864 38.2727 14.3373C38.2727 15.3272 37.1516 16.2133 35.2369 16.2133C32.5196 16.2133 30.4887 14.9752 30.4887 14.9752L29.6197 19.0929C29.6197 19.0929 31.9593 20.1388 35.0655 20.1388C39.6693 20.1388 43.292 17.8217 43.292 13.6714C43.292 8.72647 36.5903 8.41285 36.5903 6.2308C36.5903 5.45537 37.5105 4.60574 39.4197 4.60574C41.5739 4.60574 43.3314 5.5062 43.3314 5.5062L44.1819 1.52914C44.1819 1.52914 42.2696 0.694336 39.5727 0.694336ZM1.04679 0.994492L0.944824 1.5948C0.944824 1.5948 2.71637 1.92289 4.31193 2.57734C6.36635 3.32781 6.5127 3.76469 6.8587 5.12163L10.629 19.8292H15.6832L23.4694 0.994492H18.4269L13.4237 13.8003L11.3822 2.9455C11.1949 1.70317 10.2465 0.994492 9.08567 0.994492H1.04679ZM25.4971 0.994492L21.5414 19.8292H26.3499L30.2917 0.994492H25.4971ZM52.3158 0.994492C51.1563 0.994492 50.5419 1.62267 50.0911 2.72039L43.0464 19.8292H48.0889L49.0645 16.9778H55.2078L55.8011 19.8292H60.2504L56.3688 0.994492H52.3158ZM52.9716 6.08306L54.4663 13.1508H50.4619L52.9716 6.08306Z" fill="#1434CB"/>
</svg>
