<svg width="53" height="23" viewBox="0 0 53 23" fill="none" xmlns="http://www.w3.org/2000/svg">
<path d="M4.49525 9.08804C4.49525 8.5322 4.95132 8.31842 5.70669 8.31842C6.78987 8.31842 8.1581 8.64622 9.24127 9.23057V5.88127C8.05833 5.41094 6.88964 5.22566 5.70669 5.22566C2.81347 5.22566 0.889404 6.73641 0.889404 9.25907C0.889404 13.1927 6.30529 12.5656 6.30529 14.2616C6.30529 14.9172 5.7352 15.131 4.93707 15.131C3.75412 15.131 2.24338 14.6465 1.04618 13.9908V17.3829C2.37165 17.953 3.71137 18.1953 4.93707 18.1953C7.90155 18.1953 9.93964 16.7273 9.93964 14.1761C9.92538 9.92893 4.49525 10.6843 4.49525 9.08804ZM14.1298 2.37519L10.6523 3.11632L10.638 14.5324C10.638 16.6418 12.22 18.1953 14.3294 18.1953C15.498 18.1953 16.3532 17.9815 16.8235 17.725V14.8317C16.3674 15.017 14.1156 15.6726 14.1156 13.5633V8.5037H16.8235V5.46795H14.1156L14.1298 2.37519ZM21.256 6.52262L21.028 5.46795H17.9494V17.9387H21.5125V9.48711C22.3534 8.38968 23.7787 8.58921 24.2205 8.74599V5.46795C23.7644 5.29692 22.0969 4.98337 21.256 6.52262ZM25.0899 5.46795H28.6672V17.9387H25.0899V5.46795ZM25.0899 4.38477L28.6672 3.61515V0.721924L25.0899 1.4773V4.38477ZM36.1069 5.22566C34.7102 5.22566 33.8123 5.88127 33.3135 6.33734L33.1282 5.4537H29.9927V22.0719L33.5558 21.3165L33.57 17.2831C34.0831 17.6537 34.8385 18.181 36.0927 18.181C38.6438 18.181 40.967 16.1287 40.967 11.6107C40.9527 7.47753 38.6011 5.22566 36.1069 5.22566ZM35.2518 15.0455C34.4109 15.0455 33.9121 14.7462 33.57 14.3757L33.5558 9.08804C33.9263 8.67473 34.4394 8.38968 35.2518 8.38968C36.5487 8.38968 37.4466 9.84342 37.4466 11.7105C37.4466 13.6203 36.563 15.0455 35.2518 15.0455ZM52.1978 11.7532C52.1978 8.10463 50.4305 5.22566 47.0527 5.22566C43.6607 5.22566 41.6083 8.10463 41.6083 11.7247C41.6083 16.0147 44.0312 18.181 47.5088 18.181C49.2048 18.181 50.4875 17.7962 51.4567 17.2546V14.4042C50.4875 14.8887 49.3759 15.188 47.9649 15.188C46.5824 15.188 45.3567 14.7035 45.1999 13.0217H52.1693C52.1693 12.8364 52.1978 12.0953 52.1978 11.7532ZM45.1572 10.3993C45.1572 8.78874 46.1406 8.11889 47.0385 8.11889C47.9079 8.11889 48.8343 8.78874 48.8343 10.3993H45.1572Z" fill="#6772E5"/>
</svg>
