<svg width="62" height="62" viewBox="0 0 62 62" fill="none" xmlns="http://www.w3.org/2000/svg">
<path d="M10.9579 23.4249C8.89653 23.469 7.10679 24.9867 7.11908 27.4099C7.12619 28.817 8.21289 29.9292 9.27612 31.1025C10.9174 32.9134 11.399 32.5939 11.3235 34.4295C11.2957 35.1012 10.1812 36.1506 8.98364 36.1478C7.20939 36.1446 5.96924 34.4413 6.461 32.3821H5.94916L4.59644 37.2811H5.10828C5.25786 36.7782 6.26895 36.8233 6.68036 36.8059C7.45528 36.7731 7.89753 37.3969 9.49548 37.3908C11.6818 37.3827 13.8304 35.9527 13.8096 33.2961C13.7989 31.9176 12.9529 30.981 11.8353 29.896C10.1161 28.2276 9.44595 27.4299 9.7514 26.0938C10.0041 24.9882 10.794 24.6783 11.5794 24.6679C13.0507 24.6491 13.6839 26.2003 13.8827 27.8121H14.358L15.5644 23.7174H15.0526C14.9404 24.2011 14.3488 24.2254 13.8827 24.1927C13.6727 24.1777 13.5542 24.2198 13.0418 24.0464C12.4956 23.8612 11.6343 23.4107 10.9579 23.4249ZM16.1128 23.9733L15.9666 24.7776C16.7743 24.7811 17.0657 24.7631 17.0634 26.2766V37.2811C17.0634 37.2811 17.2764 37.7642 17.5752 37.2811C17.8743 36.7978 22.7302 28.7627 22.7302 28.7627V29.0186L22.6937 37.2811C22.6937 37.2811 23.0028 37.7642 23.3152 37.2811C23.6275 36.7978 30.3347 25.7282 30.3347 25.7282C30.6405 25.1789 30.8729 24.7965 31.6509 24.7776L31.8337 23.9733H27.7024L27.5561 24.7776C28.4605 24.7794 29.0628 24.6369 29.0917 25.1798C29.1038 25.4074 29.0626 25.5902 28.9089 25.8744L25.5088 31.4315L25.4357 31.3219V26.2766C25.4389 26.0497 25.4401 25.826 25.4357 25.6551C25.4132 24.7984 25.6486 24.7794 26.3131 24.7776L26.4593 23.9733H21.8528L21.7065 24.7776C22.4002 24.7965 22.7034 24.9976 22.6937 25.6185V26.7519L19.7323 31.5412L19.6226 31.6143V26.24C19.6228 26.0509 19.6244 25.7541 19.6226 25.5454C19.6198 25.2526 19.5558 24.7794 20.3904 24.7776L20.6097 23.9733H16.1128ZM32.4552 23.9733L32.3089 24.7776C32.6865 24.758 33.0719 24.9007 33.1133 25.326C33.1311 25.5112 33.0216 25.7831 32.9305 26.1303L30.4078 35.5263C30.2589 36.1504 29.5082 36.4846 28.5067 36.4768L28.3605 37.2811H33.7348L33.9176 36.4768C32.9683 36.4576 33.028 36.1947 33.0401 35.8553C33.0476 35.643 33.1503 35.448 33.2229 35.1972L35.7821 25.7647C36.0454 24.8824 36.68 24.7972 37.6467 24.7776L37.8295 23.9733H32.4552ZM38.5607 23.9733L38.3779 24.7776C39.1787 24.8382 40.3152 24.8294 40.0231 25.7647C39.9594 25.9692 40.0294 25.8754 39.95 26.2035L37.5005 35.3435C37.3099 36.1919 36.7164 36.4576 36.0015 36.4768L35.7821 37.2811H41.4855L41.7049 36.4768C40.4574 36.4736 39.953 36.3066 40.2059 35.3435C40.2597 35.1383 40.3619 34.7748 40.4253 34.466L41.5952 30.4444H41.8511C42.966 30.4402 43.2807 30.579 43.3135 31.1756C43.3341 31.5589 43.3237 31.8699 43.3501 32.0896H43.9716L44.9222 28.1777L44.4103 28.1046C43.8831 29.4521 42.7587 29.4712 42.363 29.4573H41.8511L42.6554 26.24C43.0052 25.0514 43.1187 25.1174 44.0082 25.1067C45.5576 25.0881 46.4773 25.3421 46.348 27.5196H46.8598L47.8104 23.9733H38.5607ZM48.5416 23.9733L47.5545 27.5196H48.1394C48.4251 26.529 48.4327 26.3625 49.0169 25.8379C49.6167 25.3135 50.2613 25.1067 51.2836 25.1067L48.6147 34.8682C48.4298 36.4625 47.5124 36.4572 46.348 36.4768L46.1652 37.2811H52.1976L52.3438 36.5499C51.5719 36.6215 51.0967 36.114 51.247 35.5263C51.3048 35.3001 51.411 34.9644 51.503 34.5757L53.989 25.1067C55.8826 25.1055 56.2622 25.8658 56.1461 27.5196H56.6945L57.645 23.9733H48.5416ZM25.6916 35.7822C25.3747 35.7811 25.0416 36.1766 24.9604 36.6596C24.879 37.1426 25.0822 37.536 25.3991 37.5371C25.7156 37.5385 26.0489 37.1427 26.1303 36.6596C26.2117 36.177 26.008 35.7836 25.6916 35.7822ZM35.0509 35.7822C34.7343 35.7811 34.4009 36.1766 34.3197 36.6596C34.2382 37.1426 34.4418 37.536 34.7585 37.5371C35.0751 37.5385 35.4084 37.1427 35.4897 36.6596C35.5712 36.177 35.3676 35.7836 35.0509 35.7822ZM43.0942 35.7822C42.7775 35.7811 42.4441 36.1766 42.363 36.6596C42.2814 37.1426 42.4484 37.536 42.7651 37.5371C43.0818 37.5385 43.4151 37.1427 43.4963 36.6596C43.5779 36.177 43.4108 35.7836 43.0942 35.7822ZM14.2848 35.8187C13.9684 35.8173 13.6714 36.2132 13.5902 36.6962C13.5088 37.1792 13.6759 37.5722 13.9924 37.5736C14.309 37.575 14.6424 37.1792 14.7236 36.6962C14.805 36.2132 14.6015 35.8201 14.2848 35.8187ZM53.8428 35.8187C53.5261 35.8177 53.1928 36.2132 53.1116 36.6962C53.03 37.1792 53.2337 37.5726 53.5503 37.5736C53.867 37.5751 54.2003 37.1792 54.2815 36.6962C54.3631 36.2135 54.1594 35.8202 53.8428 35.8187Z" fill="#3C60A7"/>
<path d="M3.58303 21.0573H59.2531M3.58303 40.3892H59.2531M9.51025 50.4199H53.2803M9.51025 11.0267H53.2803M31.3498 21.0573V1.26954M31.3498 40.3892V60.1314M32.1593 1.30332C32.1593 1.30332 44.1505 7.77768 46.5214 20.9999M30.6039 1.3137C30.6039 1.3137 18.3815 7.70181 15.9105 20.9059M30.5553 60.0406C30.5553 60.0406 18.4729 53.6328 16.102 40.4106M32.2586 60.042C32.2586 60.042 44.299 53.7201 46.7696 40.516M31.3954 1.24922C15.1302 1.24922 1.94434 14.4351 1.94434 30.7005C1.94434 46.9654 15.1302 60.1514 31.3954 60.1514C47.6605 60.1514 60.8468 46.9654 60.8468 30.7005C60.8468 14.4351 47.6605 1.24922 31.3954 1.24922Z" stroke="#3C60A7" stroke-width="2"/>
</svg>
