<svg width="48" height="40" viewBox="0 0 48 40" fill="none" xmlns="http://www.w3.org/2000/svg">
<path fill-rule="evenodd" clip-rule="evenodd" d="M9.32182 0.195775L0.812571 17.7456C0.780191 17.8109 0.76993 17.8847 0.783289 17.9561C0.796647 18.0275 0.832925 18.0928 0.886816 18.1425L23.8682 39.7653C23.9335 39.8268 24.0205 39.8611 24.1109 39.8611C24.2014 39.8611 24.2883 39.8268 24.3536 39.7653L47.335 18.1439C47.3889 18.0942 47.4252 18.0288 47.4385 17.9574C47.4519 17.886 47.4417 17.8123 47.4093 17.747L38.9 0.197125C38.8726 0.138185 38.8284 0.0882552 38.7728 0.0533032C38.7172 0.0183513 38.6526 -0.000144582 38.5865 2.61255e-05H9.63805C9.57172 -0.000784088 9.50657 0.0172663 9.45046 0.0519997C9.39435 0.0867332 9.34967 0.136666 9.32182 0.195775Z" fill="#50AF95"/>
<path fill-rule="evenodd" clip-rule="evenodd" d="M27.0635 19.5479C26.8985 19.56 26.0461 19.61 24.1446 19.61C22.6322 19.61 21.5584 19.5654 21.1817 19.5479C15.337 19.2954 10.9744 18.2964 10.9744 17.1003C10.9744 15.9043 15.337 14.9066 21.1817 14.6501V18.5529C21.5639 18.5799 22.6583 18.6434 24.1707 18.6434C25.9856 18.6434 26.8944 18.5691 27.058 18.5543V14.6528C32.8903 14.908 37.2433 15.907 37.2433 17.1003C37.2433 18.2937 32.8917 19.2927 27.058 19.5465L27.0635 19.5479ZM27.0635 14.2492V10.7567H35.2029V5.43104H13.0423V10.7567H21.1803V14.2478C14.5657 14.5462 9.5913 15.8327 9.5913 17.3744C9.5913 18.9161 14.5657 20.2013 21.1803 20.501V31.6924H27.0621V20.4969C33.6617 20.1986 38.6278 18.9134 38.6278 17.373C38.6278 15.8327 33.6658 14.5475 27.0621 14.2478L27.0635 14.2492Z" fill="white"/>
</svg>
