<svg width="60" height="25" viewBox="0 0 60 25" fill="none" xmlns="http://www.w3.org/2000/svg">
<path d="M28.5169 12.1252V18.9479H26.3301V2.07448H32.0158C33.4008 2.07448 34.7129 2.58802 35.7334 3.54174C36.7539 4.42209 37.2642 5.74262 37.2642 7.13651C37.2642 8.53041 36.7539 9.77758 35.7334 10.7313C34.7129 11.685 33.4737 12.1986 32.0158 12.1986L28.5169 12.1252ZM28.5169 4.12864V9.99766H32.1616C32.9635 9.99766 33.7653 9.70421 34.2756 9.11731C35.4419 8.01687 35.4419 6.1828 34.3484 5.08236L34.2756 5.00899C33.6924 4.42209 32.9635 4.05528 32.1616 4.12864H28.5169Z" fill="white"/>
<path d="M42.2939 7.06315C43.8975 7.06315 45.1367 7.50333 46.0844 8.38368C47.032 9.26404 47.4693 10.4378 47.4693 11.9051V18.9479H45.4283V17.334H45.3554C44.4807 18.6545 43.2415 19.3147 41.7836 19.3147C40.5444 19.3147 39.451 18.9479 38.5763 18.2143C37.7745 17.4807 37.2642 16.4536 37.2642 15.3532C37.2642 14.1793 37.7016 13.2256 38.5763 12.492C39.451 11.7584 40.6902 11.4649 42.1481 11.4649C43.4602 11.4649 44.4807 11.685 45.2825 12.1986V11.685C45.2825 10.9514 44.991 10.2178 44.4078 9.77758C43.8247 9.26404 43.0957 8.97058 42.2939 8.97058C41.0547 8.97058 40.1071 9.48413 39.451 10.5112L37.5558 9.3374C38.7221 7.79678 40.2529 7.06315 42.2939 7.06315ZM39.5239 15.4265C39.5239 16.0134 39.8155 16.527 40.2529 16.8204C40.7631 17.1872 41.3463 17.4073 41.9294 17.4073C42.8041 17.4073 43.6789 17.0405 44.3349 16.3802C45.0639 15.72 45.4283 14.913 45.4283 14.0326C44.7723 13.5191 43.8247 13.2256 42.5855 13.2256C41.7107 13.2256 40.9818 13.4457 40.3986 13.8859C39.8155 14.2527 39.5239 14.7663 39.5239 15.4265Z" fill="white"/>
<path d="M59.2782 7.42997L52.0617 24.0833H49.8748L52.5719 18.2877L47.8338 7.50333H50.1664L53.5924 15.7933H53.6653L57.0184 7.50333H59.2782V7.42997Z" fill="white"/>
<path d="M19.8426 10.6579C19.8426 9.99767 19.7697 9.3374 19.6968 8.67713H10.585V12.4186H15.7605C15.5418 13.5924 14.8858 14.6929 13.8653 15.3532V17.7741H16.9997C18.8221 16.0868 19.8426 13.5924 19.8426 10.6579Z" fill="#4285F4"/>
<path d="M10.585 20.1217C13.2092 20.1217 15.396 19.2414 16.9997 17.7741L13.8653 15.3532C12.9905 15.9401 11.8971 16.3069 10.585 16.3069C8.10665 16.3069 5.91983 14.6195 5.19089 12.2719H1.98356V14.7662C3.66012 18.0676 6.94035 20.1217 10.585 20.1217Z" fill="#34A853"/>
<path d="M5.19089 12.2719C4.75353 11.0981 4.75353 9.77758 5.19089 8.53041V6.03607H1.98356C0.598578 8.7505 0.598578 11.9785 1.98356 14.7662L5.19089 12.2719Z" fill="#FBBC04"/>
<path d="M10.585 4.56881C11.97 4.56881 13.2821 5.08236 14.3026 6.03607L17.0726 3.24828C15.3231 1.6343 12.9905 0.680584 10.6579 0.753947C7.01324 0.753947 3.66012 2.80811 2.05646 6.10944L5.26379 8.60377C5.91983 6.25616 8.10665 4.56881 10.585 4.56881Z" fill="#EA4335"/>
</svg>
