<svg width="65" height="27" viewBox="0 0 65 27" fill="none" xmlns="http://www.w3.org/2000/svg">
<path d="M11.7523 4.03677C11.0003 4.89058 9.79699 5.56401 8.59373 5.46781C8.44332 4.31335 9.03242 3.08674 9.72179 2.32913C10.4738 1.45126 11.7899 0.825934 12.8553 0.777832C12.9806 1.98039 12.4918 3.1589 11.7523 4.03677ZM12.8428 5.6963C11.1005 5.60009 9.60898 6.64632 8.78174 6.64632C7.94196 6.64632 6.67603 5.7444 5.29729 5.76845C3.50493 5.7925 1.83791 6.76657 0.922928 8.31787C-0.957171 11.4205 0.434102 16.0142 2.25153 18.5396C3.14144 19.7903 4.20683 21.1612 5.61064 21.1131C6.93924 21.065 7.46567 20.2833 9.07002 20.2833C10.6869 20.2833 11.1507 21.1131 12.5545 21.089C14.0084 21.065 14.9234 19.8384 15.8133 18.5877C16.8286 17.1687 17.2422 15.7858 17.2672 15.7136C17.2422 15.6896 14.4596 14.6674 14.4346 11.5888C14.4095 9.01536 16.628 7.78875 16.7283 7.71659C15.4749 5.93681 13.5196 5.7444 12.8428 5.6963ZM22.9075 2.20888V20.9568H25.9408V14.5471H30.1397C33.9751 14.5471 36.6699 12.0218 36.6699 8.36598C36.6699 4.7102 34.0252 2.20888 30.2399 2.20888H22.9075ZM25.9408 4.6621H29.4377C32.0699 4.6621 33.574 6.00896 33.574 8.378C33.574 10.747 32.0699 12.1059 29.4252 12.1059H25.9408V4.6621ZM42.2099 21.1011C44.1151 21.1011 45.8823 20.1751 46.6845 18.708H46.7472V20.9568H49.5548V11.6249C49.5548 8.91915 47.2987 7.17544 43.8268 7.17544C40.6055 7.17544 38.2241 8.9432 38.1363 11.3724H40.8687C41.0944 10.2179 42.2099 9.4603 43.739 9.4603C45.5941 9.4603 46.6344 10.2901 46.6344 11.8173V12.8515L42.8491 13.068C39.3271 13.2724 37.4219 14.6554 37.4219 17.0605C37.4219 19.4896 39.3897 21.1011 42.2099 21.1011ZM43.0246 18.8763C41.4077 18.8763 40.3799 18.1308 40.3799 16.9883C40.3799 15.8098 41.3701 15.1244 43.2627 15.0161L46.6344 14.8117V15.8699C46.6344 17.6257 45.0802 18.8763 43.0246 18.8763ZM53.3025 26.0556C56.2605 26.0556 57.6518 24.9733 58.8676 21.6903L64.1945 7.35583H61.1111L57.539 18.4314H57.4763L53.9041 7.35583H50.733L55.8719 21.0049L55.5962 21.8346C55.1324 23.2416 54.3804 23.7828 53.0392 23.7828C52.8011 23.7828 52.3373 23.7587 52.1493 23.7347V25.9835C52.3248 26.0316 53.0769 26.0556 53.3025 26.0556Z" fill="white"/>
</svg>
