<svg width="54" height="53" viewBox="0 0 54 53" fill="none" xmlns="http://www.w3.org/2000/svg">
<path d="M52.5757 32.7669C49.0693 46.8294 34.824 55.3869 20.7584 51.8809C6.6993 48.3749 -1.85985 34.131 1.64733 20.0693C5.15204 6.00513 19.3965 -2.55397 33.4581 0.952028C47.5229 4.45803 56.082 18.7035 52.5757 32.7669Z" fill="#F7931A"/>
<path d="M38.6864 22.6771C39.2082 19.1842 36.5485 17.3065 32.9117 16.0539L34.0914 11.3224L31.2102 10.6046L30.0616 15.2114C29.3052 15.0228 28.5275 14.8448 27.7547 14.6684L28.9114 10.0312L26.0327 9.31343L24.8521 14.0433C24.2254 13.9006 23.6101 13.7595 23.0128 13.611L23.0161 13.5963L19.0438 12.6045L18.2775 15.6807C18.2775 15.6807 20.4146 16.1704 20.3695 16.2007C21.5361 16.4919 21.7478 17.2639 21.7117 17.8758L20.3679 23.2661C20.4483 23.2866 20.5525 23.3161 20.6673 23.362L20.3638 23.2866L18.4793 30.8375C18.3366 31.1919 17.9748 31.7234 17.1593 31.5216C17.188 31.5635 15.0657 30.9991 15.0657 30.9991L13.6357 34.2967L17.3849 35.2311C18.0823 35.4058 18.7656 35.5887 19.4375 35.761L18.2455 40.5475L21.1226 41.2653L22.304 36.5304C23.0891 36.7437 23.8521 36.9406 24.5986 37.126L23.4222 41.8387L26.3026 42.5564L27.4946 37.7798C32.4063 38.7092 36.1005 38.3343 37.6535 33.8932C38.9063 30.3166 37.592 28.2535 35.0078 26.9074C36.8898 26.4718 38.3082 25.234 38.6864 22.6771ZM32.1044 31.9047C31.2135 35.4813 25.1918 33.5486 23.2384 33.063L24.8201 26.7228C26.7727 27.2101 33.0323 28.1748 32.1044 31.9047ZM32.9945 22.6254C32.1823 25.8787 27.1697 24.2258 25.5429 23.8206L26.977 18.0702C28.6038 18.4755 33.8412 19.2318 32.9945 22.6254Z" fill="white"/>
</svg>
