<svg width="60" height="42" viewBox="0 0 60 42" fill="none" xmlns="http://www.w3.org/2000/svg">
<path d="M4.59061 0.027832H55.6324C57.6449 0.027832 59.2782 1.65629 59.2782 3.66469V38.1983C59.2782 40.2049 57.6449 41.8334 55.6324 41.8334H4.59061C2.57628 41.8336 0.944824 40.2049 0.944824 38.1985V3.66469C0.944824 1.65629 2.57808 0.027832 4.59061 0.027832Z" fill="#26A6D1"/>
<path d="M10.3511 14.5683L4.59061 27.2786H11.4867L12.3416 25.252H14.2958L15.1507 27.2786H22.7414V25.7318L23.4177 27.2786H27.3442L28.0206 25.6992V27.2786H43.8071L45.7267 25.3047L47.5241 27.2786L55.6324 27.2949L49.8537 20.9589L55.6324 14.5683H47.6498L45.7813 16.5057L44.0404 14.5683H26.8668L25.3921 17.8489L23.8828 14.5683H17.0011V16.0624L16.2355 14.5683H10.3511ZM11.6854 16.3732H15.0469L18.8678 24.9921V16.3732H22.5502L25.5014 22.5529L28.2213 16.3732H31.8853V25.4936H29.6558L29.6376 18.3469L26.3873 25.4936H24.393L21.1245 18.3469V25.4936H16.538L15.6685 23.4489H10.9709L10.1032 25.4918H7.64579L11.6854 16.3732ZM33.925 16.3732H42.9904L45.7631 19.3594L48.6251 16.3732H51.3978L47.185 20.9571L51.3978 25.4883H48.4994L45.7267 22.4674L42.85 25.4883H33.925V16.3732ZM13.3207 17.9163L11.773 21.5588H14.8666L13.3207 17.9163ZM36.1637 19.9265H41.1092V21.7822H36.1637V23.5999H41.7108L44.2884 20.9226L41.8202 18.26H36.1637V19.9265Z" fill="white"/>
</svg>
