<svg width="63" height="19" viewBox="0 0 63 19" fill="none" xmlns="http://www.w3.org/2000/svg">
<path d="M13.8242 6.24878H9.56684C9.56684 5.52968 9.48467 5.04723 9.32113 4.80142C9.06772 4.43813 8.36861 4.25606 7.22422 4.25606C6.11261 4.25606 5.37586 4.36063 5.01639 4.5702C4.65692 4.78059 4.47678 5.23763 4.47678 5.94131C4.47678 6.57833 4.63627 6.99829 4.95567 7.1991C5.18439 7.342 5.48678 7.42574 5.86325 7.45074L6.72185 7.51324C8.56211 7.63864 9.71136 7.72738 10.1696 7.77779C11.6249 7.92861 12.6798 8.32691 13.3344 8.97226C13.8493 9.47596 14.1566 10.1342 14.2545 10.9466C14.312 11.4328 14.3404 11.9832 14.3404 12.5944C14.3404 14.0034 14.2096 15.035 13.9485 15.6887C13.4745 16.8885 12.4094 17.6464 10.7525 17.9647C10.0583 18.0993 8.99647 18.1663 7.5679 18.1663C5.18358 18.1663 3.52224 18.0205 2.58389 17.7268C1.43262 17.3673 0.673197 16.6386 0.306035 15.5416C0.101202 14.9308 0 13.9134 0 12.4894H4.25737C4.25737 12.6481 4.25778 12.7698 4.25778 12.8535C4.25778 13.6135 4.4699 14.1017 4.89373 14.3196C5.18722 14.4696 5.54143 14.5484 5.95798 14.558H7.52337C8.32206 14.558 8.83171 14.5159 9.05152 14.4313C9.44297 14.273 9.70003 14.018 9.82268 13.6651C9.88786 13.4476 9.92024 13.1668 9.92024 12.8227C9.92024 12.0524 9.647 11.5837 9.10132 11.4153C8.89689 11.3491 7.94802 11.2562 6.25349 11.1391C4.89252 11.0391 3.94729 10.9429 3.41821 10.8496C2.02445 10.5813 1.09541 10.0292 0.631906 9.1914C0.224264 8.47981 0.0206452 7.40283 0.0206452 5.96172C0.0206452 4.86475 0.130753 3.98484 0.350969 3.32324C0.571185 2.66122 0.926202 2.15877 1.41602 1.81506C2.13375 1.28719 3.05226 0.977639 4.16994 0.885149C5.10019 0.801407 6.13204 0.758911 7.26713 0.758911C9.05395 0.758911 10.3275 0.864734 11.0865 1.0743C12.9393 1.58675 13.8655 3.0216 13.8655 5.3797C13.8655 5.57301 13.8517 5.86215 13.8242 6.24878Z" fill="#6772E5"/>
<path d="M32.5461 18.1665V0.666587H41.0721C42.2416 0.666587 43.1338 0.764494 43.7471 0.961141C45.1494 1.41318 46.0901 2.33934 46.5723 3.73836C46.8208 4.47287 46.9455 5.5786 46.9455 7.05512C46.9455 8.83035 46.8075 10.1056 46.5342 10.8827C45.9873 12.4183 44.862 13.3032 43.1622 13.5324C42.9622 13.567 42.1117 13.5974 40.6103 13.6224L39.8508 13.6482H37.1224V18.1665H32.5461ZM37.1224 9.58861H39.9751C40.8799 9.55528 41.43 9.48362 41.6279 9.37155C41.8984 9.21865 42.0801 8.91201 42.1704 8.45248C42.2283 8.14667 42.257 7.69172 42.257 7.08761C42.257 6.34727 42.1995 5.79857 42.0842 5.44028C41.9198 4.93824 41.5255 4.63286 40.9013 4.52162C40.7774 4.50495 40.4819 4.49579 40.0136 4.49579H37.1224V9.58861Z" fill="#6772E5"/>
<path d="M56.714 15.1421H50.5953L49.7731 18.1664H45.0385L50.1476 0.666504H57.0508L62.2222 18.1664H57.5872L56.714 15.1421ZM55.8052 11.7329L53.6609 4.14699L51.5802 11.7329H55.8052Z" fill="#6772E5"/>
<path d="M26.2297 3.12851C28.1169 3.12851 29.8017 4.02342 30.9089 5.42494L31.8954 3.24808C30.3527 1.7474 28.2529 0.822072 25.937 0.822072C22.331 0.822072 19.2463 3.06351 17.9805 6.23653H16.0569L14.921 8.74253H17.3956C17.3769 8.97501 17.3648 9.20748 17.3648 9.44496C17.3648 9.73201 17.3794 10.0162 17.4069 10.2965H16.1633L15.0278 12.8034H18.0396C19.3415 15.896 22.3877 18.067 25.937 18.067C27.7259 18.067 29.3856 17.5154 30.7599 16.573V13.5008C29.6532 14.7978 28.0343 15.6173 26.2297 15.6173C24.1202 15.6173 22.2646 14.4978 21.1842 12.8034H27.4903L28.6262 10.2965H20.2563C20.213 9.99491 20.19 9.6866 20.19 9.37247C20.19 9.15999 20.2005 8.95001 20.2207 8.74253H29.3301L30.4656 6.23653H21.0081C22.0541 4.3788 24.0004 3.12851 26.2297 3.12851Z" fill="#6772E5"/>
</svg>
