<svg width="84" height="55" viewBox="0 0 84 55" fill="none" xmlns="http://www.w3.org/2000/svg">
<path d="M78.5671 45.0805V54.1157H49.4844V46.5616C58.0866 32.4692 63.2226 23.7301 64.8501 20.3869C66.4775 17.0436 67.2807 14.4198 67.2807 12.5366C67.2807 11.0977 67.027 10.0185 66.5409 9.32027C66.0548 8.60083 65.2939 8.26227 64.3005 8.26227C63.286 8.26227 62.5463 8.66431 62.0602 9.44723C61.574 10.2301 61.3204 11.796 61.3204 14.1236V19.1596H49.4844V17.2341C49.4844 14.2717 49.6323 11.9229 49.9494 10.209C50.2453 8.49504 51.0062 6.80225 52.2109 5.15178C53.4156 3.50131 54.9585 2.23171 56.8819 1.38532C58.8052 0.53892 61.109 0.115723 63.7933 0.115723C69.0561 0.115723 73.0296 1.42763 75.7138 4.0303C78.3981 6.63296 79.7508 9.93391 79.7508 13.9331C79.7508 16.959 78.9899 20.1753 77.4681 23.5609C75.9463 26.9464 71.4867 34.1196 64.068 45.1016H78.5671V45.0805Z" fill="#757575"/>
<path d="M0.111328 32.4269V31.1573H2.5208L2.56307 28.9355H4.08484L4.04257 31.1573H10.9117V32.4269H4.02144L3.9369 37.4417C3.91576 38.1189 3.95803 38.6055 4.06371 38.9018C4.23279 39.3884 4.57097 39.7058 5.07822 39.854C5.50094 39.9809 6.17728 40.0444 7.10726 40.0444C8.39653 40.0444 9.17855 39.7905 9.49559 39.2827C9.66468 39.0076 9.74922 38.3093 9.74922 37.1667V36.8281H11.1019V37.2301C11.1019 38.0765 11.1019 38.6055 11.0808 38.8171C11.0174 39.4731 10.8483 39.9598 10.5947 40.2772C10.0451 40.9754 8.84039 41.314 7.00158 41.314C5.98706 41.314 5.22617 41.2717 4.74005 41.1659C3.87349 40.9754 3.23942 40.5946 2.85897 40.0233C2.54194 39.5577 2.41512 38.7113 2.41512 37.4417L2.5208 32.4269H0.111328Z" fill="white"/>
<path d="M13.913 34.0562C13.9341 32.8289 14.2934 32.0248 14.9909 31.6228C15.6884 31.2207 17.1256 31.0091 19.3026 31.0091C20.7187 31.0091 21.6275 31.0303 22.0713 31.0726C23.2338 31.1784 24.1004 31.4535 24.671 31.8979C25.1149 32.2364 25.3897 32.7019 25.5165 33.3156C25.601 33.6541 25.6221 34.2254 25.6221 35.0084V41.187H24.1215V39.8328C23.8045 40.5946 23.1281 41.0601 22.0925 41.2505C21.7754 41.314 20.8877 41.3352 19.4505 41.3352C18.0556 41.3352 17.2101 41.3352 16.9142 41.314C15.7518 41.2294 14.9486 41.0389 14.4836 40.7215C13.8073 40.256 13.4691 39.4096 13.4691 38.2247C13.4691 37.0186 13.765 36.2356 14.3357 35.8336C14.9697 35.3892 16.5972 35.1776 19.1969 35.1776C20.7398 35.1776 21.6486 35.1988 21.9234 35.2411C23.0647 35.3892 23.7833 35.8336 24.1215 36.553V35.495C24.1215 34.7968 24.1004 34.3101 24.0581 34.0562C23.9524 33.4848 23.7199 33.0828 23.3818 32.8501C22.8956 32.5115 21.543 32.3422 19.3871 32.3422C17.9499 32.3422 17.1256 32.3634 16.872 32.4269C15.9843 32.6385 15.5404 33.1886 15.5404 34.1196H13.913V34.0562ZM19.5773 36.4049C17.9287 36.4049 16.9776 36.4261 16.724 36.4684C15.5827 36.68 15.012 37.2725 15.012 38.2458C15.012 39.1134 15.3502 39.6424 16.0054 39.8328C16.4915 39.9809 17.654 40.0444 19.4717 40.0444C21.2259 40.0444 22.3672 39.9598 22.9168 39.7693C23.7199 39.4943 24.1215 38.9441 24.1215 38.1189C24.1215 37.4841 23.8467 37.0186 23.2972 36.7435C22.8534 36.5107 21.6064 36.4049 19.5773 36.4049Z" fill="white"/>
<path d="M29.0039 41.1659V31.1573H30.5045V33.1251C30.8215 32.1729 31.4133 31.5381 32.301 31.2631C32.8083 31.0938 33.7171 31.0091 35.0487 31.0091C36.6761 31.0091 37.7963 31.2419 38.4304 31.7074C39.1702 32.2576 39.5295 33.2944 39.5295 34.8391V35.4316H38.0288V34.9026C38.0288 33.6964 37.7329 32.9347 37.12 32.6173C36.6761 32.3845 35.8518 32.2576 34.6682 32.2576C33.3367 32.2576 32.3644 32.4268 31.7726 32.7654C30.9484 33.2098 30.5256 34.0562 30.5256 35.2411V41.1447H29.0039V41.1659Z" fill="white"/>
<path d="M54.726 31.1573V40.1925C54.726 42.0758 54.5358 43.3665 54.1765 44.0648C53.7327 44.9323 52.8661 45.4825 51.5768 45.7364C50.9639 45.8634 49.886 45.9057 48.3431 45.9057C45.7222 45.9057 44.0314 45.6094 43.2705 45.0381C42.4673 44.4245 42.0657 43.5569 42.0657 42.4566V42.245H43.6087V42.4566C43.6087 43.5993 44.2639 44.2764 45.5531 44.488C46.1027 44.5726 47.0749 44.6149 48.4487 44.6149C50.3298 44.6149 51.5346 44.4668 52.0841 44.1917C52.7393 43.8532 53.0986 43.1337 53.1831 42.0123C53.2254 41.5044 53.2465 40.7215 53.2465 39.6847C52.8027 40.4464 52.0629 40.9331 51.0273 41.1447C50.52 41.2505 49.5901 41.314 48.2585 41.314C45.5531 41.314 43.82 40.9754 43.0803 40.3195C42.256 39.6 41.8544 38.2247 41.8544 36.151C41.8544 34.0985 42.256 32.7231 43.0803 32.0037C43.8412 31.3477 45.5743 31.0091 48.2797 31.0091C49.6112 31.0091 50.5412 31.0726 51.0484 31.1784C52.0841 31.39 52.8238 31.8767 53.2677 32.6385V31.1573H54.726ZM48.2585 32.2787C46.5465 32.2787 45.4475 32.3634 44.9613 32.5115C44.2427 32.7443 43.7566 33.2309 43.5241 33.9715C43.3762 34.437 43.3128 35.1565 43.3128 36.151C43.3128 37.7591 43.5664 38.796 44.0948 39.3038C44.4752 39.6635 45.1304 39.8963 46.0815 39.9809C46.3986 40.0233 47.1172 40.0233 48.2374 40.0233C49.9071 40.0233 51.0062 39.9386 51.4923 39.7693C52.2109 39.5366 52.6759 39.0499 52.9295 38.3305C53.0775 37.8649 53.162 37.1667 53.162 36.1933C53.162 34.5428 52.9084 33.4848 52.38 32.9982C51.9995 32.6385 51.3443 32.4269 50.4144 32.3211C50.0339 32.2999 49.3364 32.2787 48.2585 32.2787Z" fill="white"/>
<path d="M72.1208 32.4269V31.1573H74.5302L74.5725 28.9355H76.0943L76.052 31.1573H82.9211V32.4269H76.0309L75.9463 37.4417C75.9252 38.1189 75.9675 38.6055 76.0731 38.9018C76.2422 39.3884 76.5804 39.7058 77.0876 39.854C77.5104 39.9809 78.1867 40.0444 79.1167 40.0444C80.406 40.0444 81.188 39.7905 81.505 39.2827C81.6741 39.0076 81.7587 38.3093 81.7587 37.1667V36.8281H83.1113V37.2301C83.1113 38.0765 83.1113 38.6055 83.0902 38.8171C83.0268 39.4731 82.8577 39.9598 82.6041 40.2772C82.0546 40.9754 80.8498 41.314 79.011 41.314C77.9965 41.314 77.2356 41.2717 76.7495 41.1659C75.8829 40.9754 75.2488 40.5946 74.8684 40.0233C74.5514 39.5577 74.4246 38.7113 74.4246 37.4417L74.5302 32.4269H72.1208Z" fill="white"/>
<path d="M69.3308 30.6494L68.5699 32.2153H62.6519C62.5463 32.2364 61.8699 32.3211 61.4683 32.9558C61.0668 33.5483 61.1936 34.1831 61.2359 34.2889C63.5608 34.2889 65.8857 34.2889 68.2106 34.2889L67.3229 36.1722H61.2359C61.1936 36.4261 61.109 37.1667 61.5106 37.9496C61.9122 38.7537 62.5463 39.1345 62.7576 39.2615C64.9557 39.2615 67.1327 39.2615 69.3308 39.2615V41.187H62.2081C61.8911 41.1447 61.0879 40.9966 60.327 40.3407C59.5661 39.6847 59.2914 38.8806 59.2068 38.5844C59.2068 37.8438 59.2068 37.082 59.2068 36.3414L56.6071 36.3626L56.903 34.2889L59.08 34.2678V32.9558C59.1434 32.6808 59.3336 32.0248 59.9254 31.4535C60.5172 30.861 61.1936 30.6917 61.4683 30.6283C64.068 30.6494 66.6889 30.6494 69.3308 30.6494Z" fill="#223F82"/>
</svg>
