<svg width="221" height="184" viewBox="0 0 221 184" fill="none" xmlns="http://www.w3.org/2000/svg">
<path d="M150.062 36.8538L128.466 34.0725L107.324 31.3418L86.638 28.6616L66.3563 26.032L46.4794 23.4529L27.2092 29.7741L47.3897 32.5049L67.9749 35.2862L89.015 38.1181L110.51 41.0006L132.461 43.9336L150.113 36.955L166.854 30.2798L182.837 23.9586L198.06 17.9408L212.576 12.1759M192.345 9.79906L172.519 7.52343M192.345 9.79906L212.576 12.1253L212.323 22.5932L212.071 33.0106M192.345 9.79906L177.476 15.463L161.897 21.3796L145.612 27.5997L128.516 34.1231L110.51 40.95V52.5304V64.0603M172.519 7.52343L157.345 13.0861L137.57 10.76M172.519 7.52343L153.046 5.29842L137.57 10.76M137.57 10.76L121.385 16.4744M137.57 10.76L118.148 8.48433L99.1305 6.25919M121.385 16.4744L104.441 22.4415L84.463 19.913L66.4069 26.032L47.4403 32.4543M121.385 16.4744L141.464 18.9016L161.948 21.3796L182.837 23.9081L182.634 34.831L182.432 45.7035M121.385 16.4744L101.71 14.0975L84.463 19.9636L64.8389 17.4857L46.4794 23.5035M68.0252 35.1851L86.6886 28.6111L104.441 22.3404L124.824 24.9195L145.612 27.549L166.854 30.2293L166.702 41.4051L166.551 52.5304M82.3895 11.7207L101.71 14.047L118.198 8.43371L133.928 3.0734L153.046 5.2478M99.1305 6.25919L82.3895 11.7714L64.8389 17.5362M99.1305 6.25919L115.164 1L133.928 3.1239M37.3247 53.4407L27.6644 52.0247L27.4621 40.95M37.3247 53.4407L47.7438 54.9578M37.3247 53.4407L36.9706 53.9464M47.7438 54.9578L68.2278 57.9414M47.7438 54.9578L47.5919 43.7819M68.2278 57.9414L89.1669 60.9756M68.2278 57.9414L68.1265 46.6138L68.0252 35.2356M89.1669 60.9756L110.51 64.0603M89.1669 60.9756L89.1162 49.5468L89.0656 38.0676L107.425 31.3418L124.875 24.9699L141.515 18.9016L157.396 13.0861L177.526 15.463L198.06 17.8902L197.858 28.5604L197.656 39.1801M110.51 64.0603L132.31 67.2462L149.86 59.7114L164.528 53.3902M164.528 53.3902L166.551 52.5304M164.528 53.3902V54.7555L162.403 62.5432M166.551 52.5304L182.432 45.7035M182.432 45.7035L197.605 39.1801L212.071 32.96M27.4621 40.95L47.5919 43.7819M27.4621 40.95L27.2598 29.8247M47.5919 43.7819L68.1265 46.6644L89.1162 49.5975L110.561 52.581L132.461 55.6152L150.062 48.3332L166.804 41.4051L182.736 34.831L197.909 28.5604L212.424 22.5427M47.5919 43.7819L47.4403 32.5049M132.461 43.8831L132.411 55.5646L132.36 67.1956M149.911 59.7114L150.012 48.3332L150.113 36.9044M152.743 74.8316L126.847 74.1237M152.743 74.8316L155.424 65.7291L137.064 65.2234M152.743 74.8316L152.642 86.6649M126.847 74.1237L101.103 73.4157L75.4603 72.7077L49.9185 71.9997L24.5284 71.2918M126.847 74.1237L129.629 66.8416M126.847 74.1237L126.797 85.957L126.746 97.7397M152.642 86.6649L126.847 85.9063L101.154 85.1478L75.5615 84.3893L50.1208 83.6307L24.7813 82.8722M152.642 86.6649L155.322 77.2084L157.851 68.3082M152.642 86.6649L152.541 98.4476M126.746 97.7397L152.49 98.4982L155.171 88.7383L155.272 77.259L155.373 65.7291L157.902 57.1323M126.746 97.7397L101.103 96.9812L75.6119 96.2226L50.2221 95.4641L24.9332 94.7055M82.4399 59.9642L80.4168 63.6557L75.4603 72.6571L75.5615 84.4399L75.6625 96.172M59.6295 56.6772L55.6337 62.9984L49.9692 71.9492L50.1208 83.6813L50.2727 95.363M114.152 64.6166L105.301 64.3638L80.4168 63.7063L55.6337 63.0489L30.9519 62.3915L26.7034 68.3082L24.5791 71.2918L24.7813 83.0239L24.9838 94.7055M41.5226 54.0475L36.92 53.9464L30.9013 62.341M162.403 62.5432L162.504 54.2498M162.403 62.5432L160.127 70.7861M155.171 88.6877L156.435 84.0353L157.7 79.484L160.077 70.7861L160.228 59.9136M160.228 59.9136L161.746 54.6038M160.228 59.9136L160.279 55.2106M160.228 59.9136L157.851 68.3082M157.851 68.3082L157.75 79.484M157.851 68.3082L157.952 57.0817L158.256 56.0703M156.03 57.0817L158.003 57.1323M105.756 63.3524L105.301 64.3131L101.103 73.3652V85.1478V96.88M47.3897 105.325L57.6064 115.641M47.3897 105.325L37.7293 95.5652M47.3897 105.325L72.7291 103.05L97.7144 100.824M57.6064 115.641L83.6033 113.214M57.6064 115.641L57.7581 127.93L57.9097 140.117M64.9906 95.818L72.7291 102.999L83.6539 113.163L109.297 110.787M92.9602 96.6777L97.7144 100.824M97.7144 100.824L109.297 110.888L134.636 108.562M97.7144 100.824L122.396 98.5994M37.1729 95.0089L37.7293 95.5652M37.7293 95.5652L37.9315 107.196L38.134 118.777M37.7293 95.5652L42.4835 95.1606M122.396 98.5994L134.636 108.511L159.621 106.185L184.253 103.909M122.396 98.5994L121.081 97.5374M122.396 98.5994L131.045 97.8408M25.9448 94.6549L28.8782 97.6891L37.9822 107.196L47.5919 117.26M47.5919 117.26L57.8087 127.93L83.7549 125.452L109.347 123.025L134.586 120.597L159.52 118.22M47.5919 117.26L47.7438 129.143M47.5919 117.26L47.4403 105.325M159.52 118.22L184.101 115.894M159.52 118.22L159.369 130.104M159.52 118.22L159.672 106.235L149.354 98.3971M11.8336 69.4207L20.0271 77.6636M11.8336 69.4207L26.6528 68.2576M11.8336 69.4207L12.0865 80.1921L20.2293 88.6877M20.0271 77.6636L20.2293 88.6877M20.0271 77.6636L24.6803 77.3095M20.2293 88.6877L20.4319 99.6614L28.3724 108.208L29.0301 108.916L38.134 118.726L47.7438 129.093L50.3231 131.874L57.9603 140.117L83.8562 137.538L109.398 135.009L134.586 132.532L159.419 130.054L183.949 127.626M20.2293 88.6877L24.9332 93.593M170.749 94.3009L153.198 95.8687M170.749 94.3009L184.253 103.96L184.051 115.844L184 118.423L183.848 127.677M170.749 94.3009L158.003 85.1984M83.6539 113.214L83.7043 125.401L83.7549 137.538M109.347 110.837V122.974V135.009M134.484 132.532L134.535 120.547L134.586 108.511M12.0865 80.2426L12.3394 90.9633L20.4822 99.7625M29.0301 108.966L28.8275 97.6891L28.7772 94.7055M24.731 82.4677L20.0271 77.7141M158.003 85.1984L156.132 85.3501M158.003 85.1984L156.486 84.0859M193.357 121.204L220.719 129.295L220.416 141.128L220.112 152.861M193.357 121.204L183.949 123.884M193.357 121.204L184.051 118.423M180.864 127.98L202.714 134.656L202.461 146.64L202.208 158.524M97.9167 148.36L125.077 157.766M125.077 157.766L145.359 151.697M125.077 157.766L125.026 170.408L124.976 183M145.359 151.697L118.148 142.595L98.6754 136.071M145.359 151.697L165.033 145.831M145.359 151.697L145.257 164.188L145.156 176.578M34.1382 114.478L20.9376 110.079M20.9376 110.079L1.11108 114.883L1.4146 126.261M20.9376 110.079L28.3724 108.258M24.1746 145.882L1.71811 137.589L1.4146 126.261M24.1746 145.882L47.6425 154.529M24.1746 145.882L23.9723 134.302L23.7194 122.671M47.6425 154.529L72.2233 163.581M47.6425 154.529L47.4909 142.747L47.339 130.863L48.9576 130.458M72.2233 163.581L97.9673 173.038M72.2233 163.581L72.1221 151.546L72.0211 139.409L75.9154 138.347M97.9673 173.038L124.976 183M97.9673 173.038L97.9167 160.749L97.8661 148.36M124.976 183L145.156 176.578M145.156 176.578L164.73 170.358L183.747 164.34L202.208 158.474L220.112 152.81M1.4146 126.261L23.9217 134.302L47.4909 142.696L72.1221 151.495L97.9167 160.699L124.976 170.358L145.207 164.138L164.831 158.12L183.899 152.254L202.41 146.59L220.365 141.078M70.5037 138.853L72.0211 139.359L97.9167 148.309L118.148 142.544L137.772 136.931L165.033 145.781L184.152 140.117L202.714 134.605L220.719 129.245M23.7194 122.671L38.3363 118.979M23.7194 122.671L1.16171 114.883M23.7194 122.671L47.339 130.812L50.3231 131.824M164.73 170.408L164.881 158.17L165.033 145.882M183.747 164.39L183.949 152.304L184.152 140.168L156.84 131.571M156.84 131.571L137.772 136.982L126.493 133.341M156.84 131.571L153.856 130.61M156.84 131.571L163.465 129.7" stroke="white" stroke-width="0.5" stroke-linecap="round" stroke-linejoin="round"/>
<path d="M150.062 36.8538L128.466 34.0725L107.324 31.3418L86.638 28.6616L66.3563 26.032L46.4794 23.4529L27.2092 29.7741L47.3897 32.5049L67.9749 35.2862L89.015 38.1181L110.51 41.0006L132.461 43.9336L150.113 36.955L166.854 30.2798L182.837 23.9586L198.06 17.9408L212.576 12.1759M192.345 9.79906L172.519 7.52343M192.345 9.79906L212.576 12.1253L212.323 22.5932L212.071 33.0106M192.345 9.79906L177.476 15.463L161.897 21.3796L145.612 27.5997L128.516 34.1231L110.51 40.95V52.5304V64.0603M172.519 7.52343L157.345 13.0861L137.57 10.76M172.519 7.52343L153.046 5.29842L137.57 10.76M137.57 10.76L121.385 16.4744M137.57 10.76L118.148 8.48433L99.1305 6.25919M121.385 16.4744L104.441 22.4415L84.463 19.913L66.4069 26.032L47.4403 32.4543M121.385 16.4744L141.464 18.9016L161.948 21.3796L182.837 23.9081L182.634 34.831L182.432 45.7035M121.385 16.4744L101.71 14.0975L84.463 19.9636L64.8389 17.4857L46.4794 23.5035M68.0252 35.1851L86.6886 28.6111L104.441 22.3404L124.824 24.9195L145.612 27.549L166.854 30.2293L166.702 41.4051L166.551 52.5304M82.3895 11.7207L101.71 14.047L118.198 8.43371L133.928 3.0734L153.046 5.2478M99.1305 6.25919L82.3895 11.7714L64.8389 17.5362M99.1305 6.25919L115.164 1L133.928 3.1239M37.3247 53.4407L27.6644 52.0247L27.4621 40.95M37.3247 53.4407L47.7438 54.9578M37.3247 53.4407L36.9706 53.9464M47.7438 54.9578L68.2278 57.9414M47.7438 54.9578L47.5919 43.7819M68.2278 57.9414L89.1669 60.9756M68.2278 57.9414L68.1265 46.6138L68.0252 35.2356M89.1669 60.9756L110.51 64.0603M89.1669 60.9756L89.1162 49.5468L89.0656 38.0676L107.425 31.3418L124.875 24.9699L141.515 18.9016L157.396 13.0861L177.526 15.463L198.06 17.8902L197.858 28.5604L197.656 39.1801M110.51 64.0603L132.31 67.2462L149.86 59.7114L164.528 53.3902M164.528 53.3902L166.551 52.5304M164.528 53.3902V54.7555L162.403 62.5432M166.551 52.5304L182.432 45.7035M182.432 45.7035L197.605 39.1801L212.071 32.96M27.4621 40.95L47.5919 43.7819M27.4621 40.95L27.2598 29.8247M47.5919 43.7819L68.1265 46.6644L89.1162 49.5975L110.561 52.581L132.461 55.6152L150.062 48.3332L166.804 41.4051L182.736 34.831L197.909 28.5604L212.424 22.5427M47.5919 43.7819L47.4403 32.5049M132.461 43.8831L132.411 55.5646L132.36 67.1956M149.911 59.7114L150.012 48.3332L150.113 36.9044M152.743 74.8316L126.847 74.1237M152.743 74.8316L155.424 65.7291L137.064 65.2234M152.743 74.8316L152.642 86.6649M126.847 74.1237L101.103 73.4157L75.4603 72.7077L49.9185 71.9997L24.5284 71.2918M126.847 74.1237L129.629 66.8416M126.847 74.1237L126.797 85.957L126.746 97.7397M152.642 86.6649L126.847 85.9063L101.154 85.1478L75.5615 84.3893L50.1208 83.6307L24.7813 82.8722M152.642 86.6649L155.322 77.2084L157.851 68.3082M152.642 86.6649L152.541 98.4476M126.746 97.7397L152.49 98.4982L155.171 88.7383L155.272 77.259L155.373 65.7291L157.902 57.1323M126.746 97.7397L101.103 96.9812L75.6119 96.2226L50.2221 95.4641L24.9332 94.7055M82.4399 59.9642L80.4168 63.6557L75.4603 72.6571L75.5615 84.4399L75.6625 96.172M59.6295 56.6772L55.6337 62.9984L49.9692 71.9492L50.1208 83.6813L50.2727 95.363M114.152 64.6166L105.301 64.3638L80.4168 63.7063L55.6337 63.0489L30.9519 62.3915L26.7034 68.3082L24.5791 71.2918L24.7813 83.0239L24.9838 94.7055M41.5226 54.0475L36.92 53.9464L30.9013 62.341M162.403 62.5432L162.504 54.2498M162.403 62.5432L160.127 70.7861M155.171 88.6877L156.435 84.0353L157.7 79.484L160.077 70.7861L160.228 59.9136M160.228 59.9136L161.746 54.6038M160.228 59.9136L160.279 55.2106M160.228 59.9136L157.851 68.3082M157.851 68.3082L157.75 79.484M157.851 68.3082L157.952 57.0817L158.256 56.0703M156.03 57.0817L158.003 57.1323M105.756 63.3524L105.301 64.3131L101.103 73.3652V85.1478V96.88M47.3897 105.325L57.6064 115.641M47.3897 105.325L37.7293 95.5652M47.3897 105.325L72.7291 103.05L97.7144 100.824M57.6064 115.641L83.6033 113.214M57.6064 115.641L57.7581 127.93L57.9097 140.117M64.9906 95.818L72.7291 102.999L83.6539 113.163L109.297 110.787M92.9602 96.6777L97.7144 100.824M97.7144 100.824L109.297 110.888L134.636 108.562M97.7144 100.824L122.396 98.5994M37.1729 95.0089L37.7293 95.5652M37.7293 95.5652L37.9315 107.196L38.134 118.777M37.7293 95.5652L42.4835 95.1606M122.396 98.5994L134.636 108.511L159.621 106.185L184.253 103.909M122.396 98.5994L121.081 97.5374M122.396 98.5994L131.045 97.8408M25.9448 94.6549L28.8782 97.6891L37.9822 107.196L47.5919 117.26M47.5919 117.26L57.8087 127.93L83.7549 125.452L109.347 123.025L134.586 120.597L159.52 118.22M47.5919 117.26L47.7438 129.143M47.5919 117.26L47.4403 105.325M159.52 118.22L184.101 115.894M159.52 118.22L159.369 130.104M159.52 118.22L159.672 106.235L149.354 98.3971M11.8336 69.4207L20.0271 77.6636M11.8336 69.4207L26.6528 68.2576M11.8336 69.4207L12.0865 80.1921L20.2293 88.6877M20.0271 77.6636L20.2293 88.6877M20.0271 77.6636L24.6803 77.3095M20.2293 88.6877L20.4319 99.6614L28.3724 108.208L29.0301 108.916L38.134 118.726L47.7438 129.093L50.3231 131.874L57.9603 140.117L83.8562 137.538L109.398 135.009L134.586 132.532L159.419 130.054L183.949 127.626M20.2293 88.6877L24.9332 93.593M170.749 94.3009L153.198 95.8687M170.749 94.3009L184.253 103.96L184.051 115.844L184 118.423L183.848 127.677M170.749 94.3009L158.003 85.1984M83.6539 113.214L83.7043 125.401L83.7549 137.538M109.347 110.837V122.974V135.009M134.484 132.532L134.535 120.547L134.586 108.511M12.0865 80.2426L12.3394 90.9633L20.4822 99.7625M29.0301 108.966L28.8275 97.6891L28.7772 94.7055M24.731 82.4677L20.0271 77.7141M158.003 85.1984L156.132 85.3501M158.003 85.1984L156.486 84.0859M193.357 121.204L220.719 129.295L220.416 141.128L220.112 152.861M193.357 121.204L183.949 123.884M193.357 121.204L184.051 118.423M180.864 127.98L202.714 134.656L202.461 146.64L202.208 158.524M97.9167 148.36L125.077 157.766M125.077 157.766L145.359 151.697M125.077 157.766L125.026 170.408L124.976 183M145.359 151.697L118.148 142.595L98.6754 136.071M145.359 151.697L165.033 145.831M145.359 151.697L145.257 164.188L145.156 176.578M34.1382 114.478L20.9376 110.079M20.9376 110.079L1.11108 114.883L1.4146 126.261M20.9376 110.079L28.3724 108.258M24.1746 145.882L1.71811 137.589L1.4146 126.261M24.1746 145.882L47.6425 154.529M24.1746 145.882L23.9723 134.302L23.7194 122.671M47.6425 154.529L72.2233 163.581M47.6425 154.529L47.4909 142.747L47.339 130.863L48.9576 130.458M72.2233 163.581L97.9673 173.038M72.2233 163.581L72.1221 151.546L72.0211 139.409L75.9154 138.347M97.9673 173.038L124.976 183M97.9673 173.038L97.9167 160.749L97.8661 148.36M124.976 183L145.156 176.578M145.156 176.578L164.73 170.358L183.747 164.34L202.208 158.474L220.112 152.81M1.4146 126.261L23.9217 134.302L47.4909 142.696L72.1221 151.495L97.9167 160.699L124.976 170.358L145.207 164.138L164.831 158.12L183.899 152.254L202.41 146.59L220.365 141.078M70.5037 138.853L72.0211 139.359L97.9167 148.309L118.148 142.544L137.772 136.931L165.033 145.781L184.152 140.117L202.714 134.605L220.719 129.245M23.7194 122.671L38.3363 118.979M23.7194 122.671L1.16171 114.883M23.7194 122.671L47.339 130.812L50.3231 131.824M164.73 170.408L164.881 158.17L165.033 145.882M183.747 164.39L183.949 152.304L184.152 140.168L156.84 131.571M156.84 131.571L137.772 136.982L126.493 133.341M156.84 131.571L153.856 130.61M156.84 131.571L163.465 129.7" stroke="white" stroke-width="0.5" stroke-linecap="round" stroke-linejoin="round"/>
</svg>
