<svg width="28" height="28" viewBox="0 0 28 28" fill="none" xmlns="http://www.w3.org/2000/svg">
<path d="M14 28C21.7319 28 28 21.7319 28 14C28 6.26801 21.7319 0 14 0C6.26801 0 0 6.26801 0 14C0 21.7319 6.26801 28 14 28Z" fill="#19C52A"/>
<path d="M12.0113 19.0121C11.7313 19.0121 11.4653 18.9001 11.2693 18.7041L7.30723 14.7421C6.90123 14.3361 6.90123 13.6641 7.30723 13.2581C7.71323 12.8521 8.38523 12.8521 8.79123 13.2581L12.0113 16.4781L19.2073 9.28214C19.6133 8.87614 20.2853 8.87614 20.6913 9.28214C21.0973 9.68814 21.0973 10.3601 20.6913 10.7661L12.7533 18.7041C12.5573 18.9001 12.2913 19.0121 12.0113 19.0121Z" fill="#121212"/>
</svg>
