<svg width="28" height="28" viewBox="0 0 28 28" fill="none" xmlns="http://www.w3.org/2000/svg">
<path d="M14 0C6.286 0 0 6.286 0 14C0 21.714 6.286 28 14 28C21.714 28 28 21.714 28 14C28 6.286 21.714 0 14 0ZM18.704 17.22C19.11 17.626 19.11 18.298 18.704 18.704C18.494 18.914 18.228 19.012 17.962 19.012C17.696 19.012 17.43 18.914 17.22 18.704L14 15.484L10.78 18.704C10.57 18.914 10.304 19.012 10.038 19.012C9.772 19.012 9.506 18.914 9.296 18.704C8.89 18.298 8.89 17.626 9.296 17.22L12.516 14L9.296 10.78C8.89 10.374 8.89 9.702 9.296 9.296C9.702 8.89 10.374 8.89 10.78 9.296L14 12.516L17.22 9.296C17.626 8.89 18.298 8.89 18.704 9.296C19.11 9.702 19.11 10.374 18.704 10.78L15.484 14L18.704 17.22Z" fill="#DE0C0C"/>
</svg>
