<svg width="20" height="21" viewBox="0 0 20 21" fill="none" xmlns="http://www.w3.org/2000/svg">
<g clip-path="url(#clip0_5_3046)">
<path d="M19.6957 16.5588V16.5545C19.6957 16.5545 15.9309 12.794 15.9285 12.7921C15.6301 12.4935 15.1527 12.5 14.859 12.7941L13.1261 14.5342C12.4524 15.2081 11.5837 14.6101 9.91616 13.2504C8.81291 12.3508 7.54356 11.1411 6.44297 9.77724C5.6706 8.82032 4.98759 7.81541 5.69319 7.10997C5.69502 7.10815 7.43327 5.37438 7.43294 5.37255L7.43427 5.3689C7.74621 5.05696 7.71598 4.57908 7.43111 4.29389V4.28957C7.43111 4.28957 3.55746 0.420726 3.5553 0.4184C3.25681 0.119916 2.7796 0.12656 2.48577 0.420394L0.740039 2.16612C0.0208192 3.06623 -1.57758 7.35614 5.27495 14.3802C12.4937 21.7802 17.1519 20.1973 17.9538 19.3623C17.9538 19.3623 19.6977 17.639 19.6977 17.6373L19.6992 17.6338C20.0112 17.3217 19.9804 16.8442 19.6957 16.5588Z" fill="url(#paint0_linear_5_3046)"/>
</g>
<defs>
<linearGradient id="paint0_linear_5_3046" x1="0.56979" y1="21.3803" x2="0.56979" y2="2.74944" gradientUnits="userSpaceOnUse">
<stop stop-color="#0071E3"/>
<stop offset="1" stop-color="#ACD7FF"/>
<stop offset="1" stop-color="#B0D8FF"/>
</linearGradient>
<clipPath id="clip0_5_3046">
<rect width="19.9322" height="19.9322" fill="white" transform="translate(0.0507812 0.197266)"/>
</clipPath>
</defs>
</svg>
