<svg width="20" height="21" viewBox="0 0 20 21" fill="none" xmlns="http://www.w3.org/2000/svg">
<path d="M19.983 10.594C19.983 10.3652 19.8705 10.1642 19.6994 10.038L19.7031 10.0318L17.293 8.64045L18.6803 6.23768L18.6756 6.23484C18.7604 6.04047 18.757 5.81016 18.6428 5.61243C18.5283 5.41444 18.3306 5.29632 18.1194 5.2728V5.26608H15.3361V2.49085H15.3305C15.3067 2.27993 15.1886 2.08246 14.9908 1.96821C14.7926 1.85371 14.5623 1.85035 14.3674 1.9359L14.364 1.92996L11.9134 3.34484L10.5564 0.994282L10.5515 0.997126C10.4254 0.826533 10.2246 0.714355 9.99608 0.714355C9.76733 0.714355 9.56598 0.826791 9.4401 0.997901L9.4339 0.994282L8.05442 3.38361L5.67905 2.01215L5.6762 2.01706C5.48157 1.93228 5.25153 1.93564 5.0538 2.04989C4.85555 2.16413 4.73769 2.36213 4.71391 2.5733H4.70693V5.33225H1.964V5.33768C1.75309 5.36145 1.55562 5.47958 1.44137 5.67731C1.32712 5.8753 1.32376 6.1056 1.4088 6.30023L1.40286 6.30385L2.75881 8.6526L0.330708 10.0546L0.333551 10.0595C0.162959 10.1856 0.0507812 10.3864 0.0507812 10.6149C0.0507812 10.8437 0.163217 11.045 0.334327 11.1709L0.330708 11.1771L2.74072 12.5685L1.35349 14.9712L1.3584 14.9741C1.27362 15.1687 1.27698 15.3988 1.39123 15.5965C1.50573 15.7945 1.70346 15.9126 1.91464 15.9361V15.9431H4.69736V18.7178H4.70305C4.72683 18.9287 4.84495 19.1262 5.04268 19.2405C5.24093 19.355 5.47123 19.3581 5.66612 19.2728L5.66948 19.2787L8.12007 17.8638L9.47706 20.2144L9.48197 20.2115C9.60811 20.3821 9.80894 20.4943 10.0374 20.4943C10.2662 20.4943 10.4675 20.3819 10.5934 20.211L10.5994 20.2144L11.9788 17.8251L14.3545 19.1965L14.3573 19.1916C14.5519 19.2764 14.782 19.273 14.9797 19.1588C15.178 19.0445 15.2958 18.8465 15.3196 18.6354H15.3266V15.8767H18.0698V15.8713C18.2807 15.8475 18.4782 15.7294 18.5924 15.5316C18.7066 15.3336 18.71 15.1031 18.625 14.9084L18.6309 14.9051L17.275 12.5563L19.7031 11.1544L19.7002 11.1495C19.8708 11.0236 19.983 10.8225 19.983 10.594Z" fill="url(#paint0_linear_5_3043)"/>
<defs>
<linearGradient id="paint0_linear_5_3043" x1="0.571399" y1="21.7623" x2="0.571399" y2="3.25025" gradientUnits="userSpaceOnUse">
<stop stop-color="#0071E3"/>
<stop offset="1" stop-color="#ACD7FF"/>
<stop offset="1" stop-color="#B0D8FF"/>
</linearGradient>
</defs>
</svg>
