<svg width="20" height="16" viewBox="0 0 20 16" fill="none" xmlns="http://www.w3.org/2000/svg">
<path d="M19.8021 5.81584L17.8436 2.06511C17.6488 1.6964 17.3179 1.41825 16.9211 1.28985C16.5244 1.16145 16.0932 1.19295 15.7194 1.37764L13.9325 2.27102H13.0901L10.5248 1.11025C10.1784 0.953683 9.78749 0.926045 9.42255 1.03232C9.41563 1.03431 9.40871 1.03641 9.40186 1.03858L5.97439 2.12226L4.31448 1.29236C3.94066 1.10752 3.50945 1.07592 3.11268 1.2043C2.71591 1.33268 2.38494 1.61089 2.19026 1.97968L0.231621 5.73052C0.133732 5.91803 0.0741689 6.12315 0.0564072 6.33392C0.0386454 6.54469 0.0630411 6.75689 0.12817 6.95813C0.1933 7.15937 0.297859 7.34563 0.435745 7.50602C0.573631 7.66642 0.742082 7.79775 0.931269 7.89234L2.79775 8.82559L6.74552 12.1563C6.75454 12.1639 6.76371 12.1714 6.77305 12.1786C6.94862 12.3164 7.15136 12.4154 7.36793 12.4692L11.9836 13.6231C12.1088 13.6543 12.2373 13.6701 12.3663 13.6701C12.7897 13.6702 13.1959 13.5027 13.4962 13.2042L16.4267 10.2736C16.4305 10.2699 16.4336 10.2657 16.4372 10.2619C16.4481 10.2507 16.4583 10.2387 16.4687 10.2268C16.4831 10.2104 16.4971 10.1937 16.5104 10.1764C16.5147 10.1707 16.5197 10.1658 16.5239 10.16C16.5298 10.1517 16.5347 10.1431 16.5403 10.1347C16.5452 10.1276 16.5508 10.121 16.5555 10.1137L17.3693 8.8443L19.1025 7.9777C19.2917 7.88311 19.4602 7.75178 19.5981 7.59138C19.7359 7.43097 19.8405 7.24471 19.9056 7.04347C19.9707 6.84222 19.9951 6.63001 19.9774 6.41924C19.9596 6.20846 19.9 6.00334 19.8021 5.81584ZM15.4934 8.2289L12.8089 6.27653C12.6436 6.15633 12.4441 6.09228 12.2398 6.09377C12.0354 6.09527 11.8369 6.16224 11.6734 6.28485L10.654 7.0494C10.3778 7.25495 10.0426 7.36596 9.69833 7.36596C9.35402 7.36596 9.01888 7.25495 8.74265 7.0494L8.60476 6.94604L11.3684 4.18237H12.8789C12.8804 4.18238 12.8819 4.1826 12.8834 4.1826C12.8856 4.1826 12.8877 4.18238 12.8899 4.18237H13.5791L15.6029 8.05807L15.4934 8.2289ZM3.73966 3.14184L4.57829 3.56115L2.91464 6.7471L2.07601 6.32778L3.73966 3.14184ZM12.2722 11.7251L7.90418 10.6331L4.52878 7.78525L6.53098 3.9509L9.84828 2.90207L9.91536 2.93241L6.99353 5.85422C6.83217 6.01558 6.70737 6.20973 6.62757 6.42353C6.54777 6.63732 6.51484 6.86577 6.53101 7.09339C6.54719 7.32102 6.61208 7.54252 6.72131 7.74288C6.83053 7.94324 6.98153 8.1178 7.16409 8.25473L7.59581 8.5785C8.20354 9.03065 8.94085 9.27484 9.69833 9.27484C10.4558 9.27484 11.1931 9.03065 11.8008 8.5785L12.2555 8.23746L14.2843 9.71295L12.2722 11.7251ZM17.1191 6.83245L15.4555 3.64651L16.2941 3.2272L17.9578 6.41314L17.1191 6.83245ZM9.35123 15.2451C9.32093 15.367 9.2669 15.4816 9.19222 15.5825C9.11754 15.6835 9.02369 15.7687 8.91604 15.8333C8.80839 15.8978 8.68906 15.9406 8.56487 15.959C8.44069 15.9774 8.31409 15.9711 8.19233 15.9405L5.79202 15.3405C5.54856 15.2793 5.3229 15.1617 5.13328 14.9972L3.33734 13.4361C3.2425 13.3538 3.1648 13.2537 3.1087 13.1413C3.05259 13.029 3.01918 12.9067 3.01036 12.7814C3.00154 12.6562 3.01749 12.5304 3.0573 12.4113C3.09712 12.2922 3.16001 12.1822 3.24238 12.0874C3.32476 11.9926 3.425 11.915 3.53738 11.859C3.64977 11.803 3.77209 11.7697 3.89735 11.761C4.02261 11.7523 4.14837 11.7683 4.26742 11.8082C4.38648 11.8482 4.4965 11.9111 4.5912 11.9936L6.32974 13.5047L8.65586 14.0862C8.77761 14.1167 8.89218 14.1708 8.99302 14.2455C9.09386 14.3202 9.179 14.4141 9.24357 14.5217C9.30814 14.6293 9.35088 14.7486 9.36935 14.8727C9.38783 14.9968 9.38167 15.1234 9.35123 15.2451Z" fill="url(#paint0_linear_5_3040)"/>
<defs>
<linearGradient id="paint0_linear_5_3040" x1="0.571399" y1="16.9309" x2="0.571399" y2="2.8919" gradientUnits="userSpaceOnUse">
<stop stop-color="#0071E3"/>
<stop offset="1" stop-color="#ACD7FF"/>
<stop offset="1" stop-color="#B0D8FF"/>
</linearGradient>
</defs>
</svg>
