<svg width="18" height="21" viewBox="0 0 18 21" fill="none" xmlns="http://www.w3.org/2000/svg">
<path d="M14.3883 0.646484H4.19822V2.45073H0.711914V5.12655C0.711914 7.0489 2.27586 8.61285 4.19822 8.61285H4.25931C4.58106 10.7022 6.17352 12.368 8.21805 12.8078V15.6954H6.96771C6.5808 15.6954 6.27126 16.009 6.27126 16.3919V17.3082H5.20419V20.5787H13.3864V17.3082H12.3193V16.3919C12.3193 16.005 12.0057 15.6954 11.6229 15.6954H10.3726V12.8078C12.4212 12.368 14.0096 10.6981 14.3313 8.61285H14.3924C16.3147 8.61285 17.8787 7.0489 17.8787 5.12655V2.45073H14.3924V0.646484H14.3883ZM4.19822 6.84933C3.24926 6.84933 2.47543 6.07551 2.47543 5.12655V4.21424H4.19822V6.84933ZM11.6066 5.60306L10.5599 6.48686L10.8857 7.81866C10.9468 8.0671 10.6739 8.26666 10.454 8.13226L9.29327 7.40731L8.12845 8.12819C7.90852 8.26259 7.63565 8.0671 7.69674 7.81458L8.02256 6.48278L6.97993 5.60306C6.78443 5.43608 6.88625 5.11433 7.14284 5.09804L8.50722 5.00029L9.02854 3.72958C9.12628 3.48929 9.46433 3.48929 9.56207 3.72958L10.0793 4.99622L11.4437 5.09396C11.7003 5.11433 11.8021 5.43608 11.6066 5.60306ZM16.107 4.21424V5.12655C16.107 6.07551 15.3373 6.84933 14.3883 6.84933V4.21424H16.107Z" fill="url(#paint0_linear_5_3037)"/>
<defs>
<linearGradient id="paint0_linear_5_3037" x1="1.1603" y1="21.8564" x2="1.1603" y2="3.20189" gradientUnits="userSpaceOnUse">
<stop stop-color="#0071E3"/>
<stop offset="1" stop-color="#ACD7FF"/>
<stop offset="1" stop-color="#B0D8FF"/>
</linearGradient>
</defs>
</svg>
