<svg viewBox="0 0 41 25" fill="none" xmlns="http://www.w3.org/2000/svg">
<path d="M12.367 20.1583L12.2935 20.2274C11.1395 21.3679 9.80403 21.9705 8.4284 21.9705C5.55542 21.9705 3.4713 19.8799 3.4713 16.9962C3.4713 14.1171 5.55542 12.0231 8.4284 12.0231C9.80403 12.0231 11.1395 12.629 12.2935 13.774L12.367 13.842L14.2146 11.6745L14.1652 11.6166C12.6288 9.85567 10.7847 8.99916 8.51797 8.99916C6.24553 8.99916 4.16486 9.74207 2.66751 11.0797C1.03696 12.5299 0.179199 14.5748 0.179199 16.9962C0.179199 19.4176 1.03696 21.467 2.66751 22.9172C4.16486 24.2627 6.24553 25 8.51797 25C10.7847 25 12.6288 24.1424 14.1652 22.3803L14.2146 22.3269L12.367 20.1583Z" fill="#004685"/>
<path d="M16.0806 24.7044H19.344V9.24932H16.0806V24.7044Z" fill="#004685"/>
<path d="M32.1294 21.3446C31.2579 21.8592 30.4484 22.1187 29.7204 22.1187C28.6651 22.1187 28.1874 21.5774 28.1874 20.3745V12.1736H31.514V9.26435H28.1874V4.45497L24.9895 6.11675V9.26435H22.229V12.1736H24.9895V20.8969C24.9895 23.2726 26.4409 24.8988 28.6088 24.9411C30.0798 24.9689 30.9662 24.5434 31.5036 24.2316L31.5381 24.2104L32.3224 21.2299L32.1294 21.3446Z" fill="#004685"/>
<path d="M34.8308 24.7044H38.0988V9.24932H34.8308V24.7044Z" fill="#004685"/>
<path d="M40.0022 6.54023C37.0202 2.44368 32.0688 0 27.0313 0C21.995 0 17.0425 2.44368 14.0662 6.54023L13.9123 6.75074H17.6672L17.7085 6.7073C20.2634 4.14779 23.6003 2.79564 27.0313 2.79564C30.4624 2.79564 33.797 4.14779 36.3576 6.7073L36.399 6.75074H40.1515L40.0022 6.54023Z" fill="#EE1C25"/>
</svg>
