<svg viewBox="0 0 38 29" fill="none" xmlns="http://www.w3.org/2000/svg">
<path d="M28.2112 0.414795H9.83691V18.8018H28.2112V0.414795Z" fill="white"/>
<path d="M37.3983 9.62991L28.2112 0.414795V18.8234L37.3983 9.62991Z" fill="#DB0011"/>
<path d="M18.6783 9.62991L27.8654 0.414795H9.49121L18.6783 9.62991Z" fill="#DB0011"/>
<path d="M0.628174 9.62991L9.83691 18.8234V0.414795L0.628174 9.62991Z" fill="#DB0011"/>
<path d="M18.6783 9.4126L9.49121 18.6061H27.8654L18.6783 9.4126Z" fill="#DB0011"/>
<path d="M10.1373 25.5647H6.80829V28.8527H5.1438V21.1519H6.80829V24.3101H10.1373V21.1519H11.8018V28.8527H10.1373V25.5647Z" fill="white"/>
<path d="M15.8226 29.0043C14.1581 29.0043 12.7963 28.3337 12.7747 26.495H14.4391C14.4608 27.317 14.9363 27.8146 15.8442 27.8146C16.5144 27.8146 17.2926 27.4685 17.2926 26.7114C17.2926 26.1057 16.7738 25.9326 15.9091 25.673L15.3471 25.5216C14.1365 25.1755 12.926 24.6996 12.926 23.3152C12.926 21.6063 14.5256 21.0222 15.9739 21.0222C17.4655 21.0222 18.7625 21.5414 18.7841 23.2503H17.1196C17.0548 22.5581 16.6441 22.1471 15.8659 22.1471C15.239 22.1471 14.6337 22.4715 14.6337 23.1638C14.6337 23.7262 15.1525 23.8992 16.2333 24.2453L16.8818 24.44C18.2005 24.851 19.0435 25.3053 19.0435 26.6032C19.0219 28.3337 17.3358 29.0043 15.8226 29.0043Z" fill="white"/>
<path d="M19.9729 21.1736H22.6534C23.1506 21.1519 23.6694 21.1736 24.1665 21.2601C25.0961 21.4764 25.8094 22.0821 25.8094 23.1204C25.8094 24.1155 25.1825 24.613 24.2746 24.851C25.3122 25.0457 26.0904 25.5648 26.0904 26.7113C26.0904 28.4635 24.3611 28.8528 23.0209 28.8528H19.9945L19.9729 21.1736ZM22.6534 24.3751C23.3883 24.3751 24.1449 24.2236 24.1449 23.3367C24.1449 22.5364 23.4532 22.3201 22.7615 22.3201H21.5942V24.3751H22.6534ZM22.8047 27.7064C23.5829 27.7064 24.3395 27.5333 24.3395 26.5815C24.3395 25.6297 23.691 25.4567 22.8912 25.4567H21.5725V27.7064H22.8047Z" fill="white"/>
<path d="M30.4138 29.0042C27.9279 29.0042 26.8254 27.4251 26.8254 25.0673C26.8254 22.7094 28.0576 21.0005 30.5003 21.0005C32.0351 21.0005 33.5266 21.6927 33.5699 23.4232H31.8405C31.7541 22.6445 31.2353 22.2551 30.5003 22.2551C28.9871 22.2551 28.5332 23.8775 28.5332 25.1105C28.5332 26.3435 28.9871 27.7712 30.4354 27.7712C31.192 27.7712 31.7541 27.3602 31.8621 26.5815H33.5915C33.4185 28.3553 32.0135 29.0042 30.4138 29.0042Z" fill="white"/>
</svg>
