<svg viewBox="0 0 33 26" fill="none" xmlns="http://www.w3.org/2000/svg">
<path fill-rule="evenodd" clip-rule="evenodd" d="M0.50855 15.7873C0.926284 15.7873 1.21738 15.8757 1.39814 16.0564C1.60042 16.2586 1.69097 16.5926 1.69097 17.1392V23.9665C1.69097 24.9112 1.49286 25.3326 0.323623 25.3326H0.16333V25.7516H5.41796V25.3347L5.2594 25.3326C4.10127 25.3187 3.90593 24.8998 3.90593 23.9665V17.1388C3.90593 16.594 3.99614 16.2614 4.19841 16.0595C4.38091 15.8761 4.67721 15.7869 5.10362 15.7869H5.41761V15.3621H0.16333V15.7869H0.50855V15.7873Z" fill="#355BD6"/>
<path fill-rule="evenodd" clip-rule="evenodd" d="M17.3142 22.2683C17.3142 22.2683 17.223 21.842 17.2098 21.6034V18.4851C17.1893 16.6667 17.4374 15.7615 15.847 15.7684V15.3599H19.5056V15.7684C17.8676 15.7618 18.0737 16.667 18.0644 18.4851V25.7664L17.5436 25.7608L9.64308 17.496C9.64308 17.496 9.7319 17.9215 9.74508 18.1605V23.2668C9.70032 25.1296 9.93105 25.3547 11.1315 25.3328V25.7584H7.31744V25.3328C8.51964 25.3342 8.75591 25.1743 8.75453 23.1149V23.238V18.2056L8.74481 17.4068C8.78957 16.3729 8.40757 15.7733 7.24146 15.783V15.3741H10.753L17.3142 22.2683Z" fill="#355BD6"/>
<path fill-rule="evenodd" clip-rule="evenodd" d="M30.5582 15.1619H30.1551L30.1363 15.2999C30.1089 15.5059 30.0277 15.851 29.7929 15.851C29.7259 15.851 29.559 15.8194 29.371 15.7334C28.5542 15.3797 27.496 15.1619 26.605 15.1619C24.8713 15.1619 23.2986 15.7827 22.1751 16.9106C21.1433 17.9469 20.5788 19.3574 20.5868 20.8817C20.594 22.3419 21.1682 23.5429 22.3437 24.5553C23.5279 25.568 24.8546 25.9998 26.7827 25.9998C28.3887 25.9998 29.3082 25.7692 30.7192 25.0121L30.9663 24.8782V22.1539C30.9663 20.9927 31.1085 20.812 32.0536 20.7739L32.2073 20.768V20.3632H27.59V20.768L27.7437 20.7739C28.7964 20.8148 28.9952 21.0035 28.9952 21.9635V24.488C28.2142 25.003 27.6466 25.1987 26.9308 25.1987C25.8716 25.1987 24.9289 24.7894 24.2051 24.0666C23.3575 23.2186 22.944 21.9836 22.944 20.588C22.944 19.0845 23.3443 17.8019 24.1694 16.9778C24.8262 16.3213 25.6984 15.9568 26.6935 15.9568C27.5824 15.9568 28.6149 16.338 29.3231 16.8995C29.899 17.3708 30.1977 17.8269 30.4233 18.5805L30.4576 18.6946H30.8518L30.5582 15.1619Z" fill="#355BD6"/>
<path fill-rule="evenodd" clip-rule="evenodd" d="M21.4699 13.8833C21.7266 13.8445 21.999 13.8504 22.2037 13.6624C23.0711 13.7956 23.9503 13.5813 24.632 13.1037C24.9911 12.8141 25.3148 12.478 25.5768 12.1107C25.8072 11.7875 25.989 11.4861 26.1066 11.124C26.1944 10.9006 26.2638 10.6683 26.3162 10.4297C26.5635 9.30456 26.4334 8.04627 26.067 6.97631C26.0001 6.77758 25.9234 6.58509 25.8401 6.40162C25.3828 5.45687 24.7604 4.43755 23.8021 3.83997C23.2623 3.50355 22.7654 2.98296 22.4604 2.44399C22.2946 2.29486 22.1357 2.09717 21.9213 2.06145C21.9799 2.15821 22.0444 2.25289 22.0604 2.36596L22.0479 2.38191C21.8203 2.3885 21.642 2.26815 21.4862 2.12249L21.6579 1.96676C21.5931 1.93381 21.5188 1.92133 21.447 1.90468C20.7916 1.83011 20.2524 2.13254 19.6709 2.27821L19.6619 2.31047C20.0189 2.46931 20.0935 2.86261 20.3013 3.12863C20.3527 3.06689 20.4405 3.11198 20.5123 3.10643C20.616 3.11233 20.7135 3.18724 20.8141 3.16088C20.8173 3.07418 20.7683 3.00516 20.7527 2.92747C20.8141 2.89834 20.8887 2.924 20.9574 2.92747C21.1455 3.03741 21.447 2.90805 21.5643 3.16088C21.3498 3.17441 21.1486 3.2195 20.9474 3.2684C20.9606 3.34956 21.0417 3.41407 21.0352 3.49557C20.8631 3.42412 20.6809 3.37904 20.4894 3.35649L20.4797 3.38528C20.7232 3.67072 21.0577 3.83997 21.3988 3.9402C21.8894 4.05361 22.321 3.8202 22.7946 3.90136C23.9576 4.43373 24.9509 5.65144 25.3828 6.80706C25.404 6.86255 25.4245 6.91874 25.4436 6.97597C25.8054 8.03136 25.8741 9.32849 25.5116 10.4293C25.3187 10.8871 25.1063 11.3193 24.766 11.6914C24.6372 11.8499 24.495 11.9911 24.3402 12.1104C23.8528 12.4898 23.2519 12.6573 22.6322 12.4874C22.5933 12.4607 22.5153 12.4541 22.5284 12.3864C22.55 12.2959 22.5701 12.2044 22.5878 12.1104C22.6901 11.5829 22.738 11.0279 22.7103 10.473C22.7096 10.4494 22.7089 10.4255 22.7082 10.4019C22.6738 9.59624 22.5132 8.87206 22.2172 8.17529C22.0271 7.7754 21.8016 7.33944 21.5174 6.94822C21.1781 6.48174 20.7572 6.07873 20.2167 5.87757C19.8853 5.78982 19.4763 5.77318 19.2265 6.0489C19.0478 6.20532 18.9735 6.41584 18.9992 6.64683C18.7199 6.82371 18.4059 6.91909 18.0642 6.94822C17.9806 6.9555 17.8949 6.98637 17.8078 6.98533C17.7252 6.98915 17.6447 6.98568 17.5656 6.97597C17.1545 6.92533 16.7385 6.70336 16.4224 6.45018C16.4158 6.28127 16.4061 6.12243 16.3995 5.94381C16.2184 5.84982 16.0682 5.67121 16.0557 5.45999L16.0716 5.44404C16.1761 5.47629 16.2663 5.52797 16.3606 5.58311C16.3183 5.32993 16.2694 5.08022 16.1434 4.85929C16.0262 4.81039 15.9092 4.77154 15.7993 4.71293C15.6726 4.62934 15.5911 4.47605 15.5724 4.33697C15.6858 4.44726 15.8836 4.40842 15.9713 4.52495C15.8183 4.07373 15.8159 3.55765 15.5654 3.14528C15.4388 2.84042 15.1074 2.70064 14.8802 2.47694C14.7924 2.36943 14.757 2.22029 14.5981 2.20364C14.468 2.17139 14.4583 2.02572 14.4357 1.93104C14.5166 1.94075 14.5846 1.9959 14.6526 2.00873C14.4645 1.50965 14.2987 0.95403 13.7894 0.635991L13.7019 0.691483C13.5038 0.720617 13.2925 0.733796 13.0947 0.740386C13.1825 0.610673 13.338 0.555181 13.4615 0.49622C13.3185 0.389398 13.2009 0.363733 13.0222 0.3346C12.9185 0.437954 12.7308 0.490324 12.5976 0.519458L12.5809 0.506278C12.5774 0.389398 12.5511 0.246853 12.727 0.217372C12.558 0.136215 12.278 0.169164 12.1059 0.217372C12.0577 0.343964 11.9182 0.457723 11.9283 0.607551C11.828 0.711252 11.7565 0.851023 11.6521 0.925591C11.649 0.675529 11.7555 0.445237 11.801 0.234367C11.6549 0.289512 11.5064 0.367548 11.3631 0.435526C11.1331 0.302345 10.8902 0.16951 10.6435 0.0685842C10.6213 0.058873 10.572 0.0495087 10.5818 0.0914747C10.793 0.243731 10.7112 0.529862 10.7337 0.746629L10.6005 0.636685C10.5356 0.471249 10.3483 0.351247 10.316 0.16951C10.095 0.211823 9.95377 0.27009 9.74906 0.357837L9.72096 0.374138C9.87327 0.374138 10.003 0.493793 10.0776 0.614488C9.84725 0.626974 9.64255 0.536452 9.41529 0.513215C9.39274 0.491018 9.37296 0.464312 9.33723 0.467781C9.22377 0.510093 9.12593 0.590904 9.02601 0.66894C8.80188 0.889868 8.57427 1.13334 8.46741 1.42571C8.54235 1.4382 8.63638 1.43508 8.69154 1.48051C8.56838 1.55508 8.46117 1.68202 8.34112 1.75312C8.29879 1.92202 8.30538 2.11416 8.29532 2.29867C8.20095 2.44191 8.07466 2.56781 8.01325 2.7277C7.81167 3.37904 7.75997 4.10356 7.78912 4.84334C7.72389 4.90542 7.63923 4.94461 7.57817 4.99316L7.58476 5.65491H7.60072C7.62986 5.51583 7.79571 5.43814 7.89632 5.3438H7.92894C7.91263 5.49294 7.8932 5.64242 7.89008 5.79502L7.70203 5.95075C7.51329 6.11653 7.67254 6.36625 7.65658 6.57434C7.66976 6.62879 7.67878 6.7103 7.71799 6.72348C7.74089 6.64232 7.81201 6.58405 7.85781 6.51226C7.93865 6.49319 8.01012 6.42764 8.08472 6.41862C8.04239 6.58093 7.98792 6.73978 7.92234 6.8955C7.89112 6.91597 7.85469 6.94337 7.82346 6.97666C7.79016 7.01238 7.76344 7.05227 7.7565 7.09666C7.90326 7.86558 8.13295 8.62512 8.39559 9.34895C8.2176 9.65103 8.11629 10.0065 7.9678 10.3183C7.94629 10.3617 7.9272 10.4064 7.90951 10.4515C7.76032 10.8289 7.71487 11.2509 7.52925 11.6134C7.45396 11.562 7.37277 11.5222 7.28915 11.4868C6.93803 11.3699 6.5321 11.4445 6.27605 11.7143C6.04844 11.672 5.81459 11.7108 5.63591 11.8312C5.50789 11.9266 5.409 12.0427 5.3521 12.178C5.31324 12.2723 5.29555 12.375 5.30145 12.487C5.15573 12.5873 5.07766 12.7426 5.02909 12.8991C4.96109 13.2494 5.08425 13.6142 5.28549 13.884H21.4699V13.8833Z" fill="white"/>
<path fill-rule="evenodd" clip-rule="evenodd" d="M11.1188 6.58484C11.1153 6.66912 11.0539 6.7638 11.1091 6.8349C11.1871 6.74715 11.3171 6.75028 11.4208 6.71178C11.7092 6.68577 11.9852 6.77629 12.2543 6.84184C12.1867 6.73432 12.1409 6.61501 12.0663 6.51721C11.9166 6.47836 11.6898 6.58207 11.6642 6.36148C11.573 6.28345 11.4298 6.33929 11.3365 6.34484C11.2453 6.41039 11.1708 6.49085 11.1188 6.58484Z" fill="white"/>
<path fill-rule="evenodd" clip-rule="evenodd" d="M1.19461 3.78263C1.19335 3.78137 1.19145 3.7801 1.19019 3.77979C1.19019 3.77979 1.19019 3.78137 1.19082 3.78263H1.19461Z" fill="white"/>
<path fill-rule="evenodd" clip-rule="evenodd" d="M2.3754 6.66779L2.57039 6.47981C2.58704 6.47981 2.59953 6.48327 2.60924 6.49645L2.59294 6.85646C2.68696 6.94421 2.80389 6.97334 2.92706 6.97993C2.93712 6.88247 3.01171 6.81449 3.05404 6.72987C3.08978 6.66189 3.06723 6.56096 3.13835 6.51206L3.16055 6.53495C3.1838 6.64177 3.17756 6.76212 3.23272 6.85611C3.23931 6.90779 3.24868 6.97299 3.25493 7.01843C3.39787 7.02536 3.52729 6.98583 3.63796 6.93415C3.63137 6.81103 3.67405 6.7101 3.69278 6.59634C3.72262 6.55715 3.65705 6.48605 3.73858 6.48952C3.78403 6.58663 3.86522 6.68721 3.91067 6.79091C4.09872 6.59946 4.17678 6.34975 4.22224 6.09032C4.16742 6.01506 4.08276 6.01506 4.01753 5.96685C3.46588 5.78824 2.75739 5.75217 2.22482 6.02824C2.19047 6.24951 2.23592 6.49299 2.3754 6.66779Z" fill="white"/>
<path fill-rule="evenodd" clip-rule="evenodd" d="M5.41698 12.7587C5.39723 13.0091 5.41698 13.2435 5.43256 13.4901C5.48487 13.5713 5.57908 13.6656 5.67226 13.6722L5.68923 13.5064C5.72768 13.2754 5.60471 13.0306 5.73461 12.836C5.82536 12.8651 5.91542 12.9106 5.99404 12.9529C6.03214 12.7386 5.97776 12.4888 5.7734 12.3591L5.41698 12.7587Z" fill="white"/>
<path fill-rule="evenodd" clip-rule="evenodd" d="M6.21869 12.4085C6.09217 12.788 5.99789 13.2569 6.1511 13.6561C6.2381 13.5981 6.32926 13.5426 6.40655 13.4615C6.39096 13.1559 6.34867 12.8299 6.52995 12.5767C6.6887 12.6256 6.7965 12.7782 6.8575 12.9277C6.96495 12.7907 7.00066 12.6027 6.95837 12.4207C6.96495 12.2785 6.80204 12.3111 6.7244 12.2521C6.75074 12.1321 6.74693 11.993 6.87379 11.925L6.48454 11.9639C6.38437 12.1061 6.27415 12.2462 6.21869 12.4085Z" fill="white"/>
<path fill-rule="evenodd" clip-rule="evenodd" d="M7.02075 13.5292C7.03739 13.5591 7.02075 13.6104 7.05334 13.617C7.10223 13.3447 7.32274 13.1678 7.44305 12.9278C7.50095 12.8467 7.49749 12.7329 7.59179 12.6712C7.71869 12.6712 7.80953 12.7624 7.93296 12.7721C7.9718 12.8012 7.91285 12.8269 7.91008 12.8592C7.88442 13.0804 7.79982 13.2636 7.81612 13.4904H7.83831C8.01028 13.3093 8.12712 13.1123 8.25367 12.9046L8.27586 12.7201C8.30499 12.4992 8.06506 12.3566 7.90939 12.2657L8.04877 12.0871L7.85426 12.0188C7.62681 12.0417 7.42225 12.1357 7.26345 12.3146C7.06617 12.6778 7.03393 13.0881 7.02075 13.5292Z" fill="white"/>
<path fill-rule="evenodd" clip-rule="evenodd" d="M7.89453 11.6028C7.96908 11.6257 8.03703 11.564 8.11123 11.5966C8.4101 11.7065 8.72179 11.8203 8.94543 12.0704L9.2117 12.7484L9.34484 12.3301L9.25712 12.1026C9.18258 11.9403 8.97802 11.9535 8.83829 11.9469C8.78039 11.882 8.84176 11.8071 8.86152 11.7457C8.92913 11.5154 8.6469 11.5279 8.53353 11.4346C8.54046 11.2949 8.37126 11.3434 8.27696 11.3302L8.24471 11.2914C8.22564 11.2623 8.1771 11.2623 8.15075 11.2848C8.14382 11.2754 8.13134 11.2688 8.13827 11.2522L8.06615 11.2688C7.96595 11.3566 7.89765 11.47 7.89453 11.6028Z" fill="white"/>
<path fill-rule="evenodd" clip-rule="evenodd" d="M8.08252 10.8567C8.09223 10.8987 8.11826 10.941 8.15052 10.9667C8.29694 10.9278 8.43607 10.8276 8.60503 10.8886C8.82292 11.0801 9.04983 11.2813 9.31351 11.3856L9.40719 11.369C9.46583 11.3891 9.53036 11.3919 9.56957 11.4567C9.60565 11.5445 9.5151 11.5965 9.48526 11.6676C9.63167 11.7748 9.57304 11.9666 9.66429 12.0959L9.89813 11.7845C9.84332 11.6478 9.90126 11.4144 9.68684 11.4016C9.61571 11.3655 9.56679 11.2941 9.56991 11.2129C9.43078 11.0863 9.2587 11.0315 9.11853 10.9018C9.00507 10.8106 8.93707 10.6708 8.79065 10.6386C8.69038 10.5838 8.5804 10.5543 8.46348 10.5286C8.24489 10.4964 8.22581 10.7555 8.08252 10.8567Z" fill="white"/>
<path fill-rule="evenodd" clip-rule="evenodd" d="M8.39404 10.2175L8.43322 10.2792C8.59514 10.2692 8.7418 10.1981 8.90094 10.2012C9.00773 10.2664 9.14746 10.2633 9.25737 10.3181C9.34509 10.4381 9.43939 10.5744 9.56837 10.6559C9.83187 10.6944 9.9775 10.9771 10.0683 11.1845V11.0839C10.1072 10.9448 10.0649 10.7821 10.0129 10.6559C9.94803 10.5907 9.85406 10.548 9.78611 10.4898C9.77293 10.4478 9.78264 10.428 9.79582 10.3892C9.69492 10.282 9.54583 10.2234 9.42275 10.1395C9.25078 9.8894 8.91967 9.95773 8.65685 9.8894L8.39404 10.2175Z" fill="white"/>
<path fill-rule="evenodd" clip-rule="evenodd" d="M0.187256 7.83599C0.216085 7.93692 0.251515 8.06351 0.270618 8.17033C0.36162 7.96917 0.541192 7.879 0.700272 7.71321C0.608923 7.65113 0.49569 7.622 0.394962 7.60258V7.59668C0.323411 7.66778 0.212959 7.73923 0.187256 7.83599Z" fill="white"/>
<path fill-rule="evenodd" clip-rule="evenodd" d="M0.7771 8.90404L0.923327 8.75491C1.0699 8.60577 1.19008 8.4334 1.21266 8.24195C1.1088 8.18022 0.972301 8.22218 0.871573 8.25791C0.835103 8.46947 0.780573 8.67722 0.7771 8.90404Z" fill="white"/>
<path fill-rule="evenodd" clip-rule="evenodd" d="M0.883789 9.36191C1.1079 9.37509 1.32473 9.41983 1.50658 9.29428L1.68773 8.70953C1.62989 8.70607 1.571 8.6804 1.51627 8.69982C1.39677 8.96619 1.15604 9.22873 0.883789 9.36191Z" fill="white"/>
<path fill-rule="evenodd" clip-rule="evenodd" d="M0.949642 7.29092C1.09547 7.50561 1.33862 7.74561 1.58836 7.81324C1.55927 7.54098 1.32615 7.35231 1.20596 7.1189L1.19903 7.04086C1.10516 6.94965 0.991552 6.8886 0.89422 6.83936C0.878633 6.99577 0.920892 7.14526 0.949642 7.29092Z" fill="white"/>
<path fill-rule="evenodd" clip-rule="evenodd" d="M1.74146 9.38768C1.91338 9.41751 2.09812 9.38768 2.25687 9.33844C2.48772 9.28398 2.61424 9.03045 2.69188 8.83276H2.40315L2.09154 9.13762C1.96884 9.20283 1.85133 9.30063 1.74146 9.38768Z" fill="white"/>
<path fill-rule="evenodd" clip-rule="evenodd" d="M1.70654 6.99585C1.75555 7.24903 1.86225 7.47932 2.00928 7.69713L2.04821 7.21331L1.70654 6.99585Z" fill="white"/>
<path fill-rule="evenodd" clip-rule="evenodd" d="M2.77163 8.25824C2.7911 8.09592 2.72332 7.90794 2.70455 7.74251C2.60654 7.6773 2.46959 7.68389 2.36914 7.61938C2.3754 7.87569 2.57664 8.0928 2.77163 8.25824Z" fill="white"/>
<path fill-rule="evenodd" clip-rule="evenodd" d="M10.677 9.90779C10.8815 9.84259 11.0791 9.77114 11.2669 9.66709C11.3869 9.49576 11.5688 9.339 11.5945 9.13818C11.4455 9.18015 11.3155 9.13194 11.1765 9.20027C11.0922 9.35252 11.0399 9.52489 10.878 9.63484C10.8524 9.74478 10.7321 9.82004 10.677 9.90779Z" fill="white"/>
<path fill-rule="evenodd" clip-rule="evenodd" d="M10.9949 10.3067L11.238 10.6244C11.3679 10.6667 11.53 10.6535 11.6433 10.5789L11.5557 10.29C11.3842 10.3556 11.1802 10.3355 10.9949 10.3067Z" fill="white"/>
<path fill-rule="evenodd" clip-rule="evenodd" d="M3.19946 8.00798L3.29366 8.43666C3.52097 8.25145 3.5672 7.98197 3.56164 7.69653C3.4313 7.84567 3.35518 7.93688 3.19946 8.00798Z" fill="white"/>
<path fill-rule="evenodd" clip-rule="evenodd" d="M3.83887 8.76489C3.84233 8.82628 3.85863 8.88489 3.89433 8.9338C4.14701 9.02432 4.17301 9.33265 4.40697 9.44953C4.55914 9.51751 4.73383 9.43288 4.86728 9.37149C4.76676 9.25808 4.65272 9.17935 4.55602 9.05969C4.48773 9.03056 4.41945 8.98825 4.42292 8.90397L3.83887 8.76489Z" fill="white"/>
<path fill-rule="evenodd" clip-rule="evenodd" d="M12.2418 10.2968C12.3526 10.4234 12.5019 10.4883 12.6579 10.5237C12.6322 10.4879 12.6746 10.5237 12.6808 10.5011L12.4853 10.0735C12.388 10.0759 12.2873 10.0957 12.1963 10.0894C12.2025 10.1602 12.2192 10.2313 12.2418 10.2968Z" fill="white"/>
<path fill-rule="evenodd" clip-rule="evenodd" d="M4.38519 8.29702C4.29385 8.08615 4.25564 7.82985 4.22994 7.59644C4.13234 7.71297 4.03161 7.78788 3.94061 7.90754C3.89823 8.14789 4.24174 8.20685 4.38519 8.29702Z" fill="white"/>
<path fill-rule="evenodd" clip-rule="evenodd" d="M4.78032 8.07676C4.89704 8.22901 5.15301 8.17699 5.29642 8.13156C5.22783 8.01468 5.00823 7.9467 4.96943 7.82011C4.94657 7.5964 4.90189 7.37894 4.82984 7.17432C4.71623 7.45004 4.57942 7.77814 4.78032 8.07676Z" fill="white"/>
<path fill-rule="evenodd" clip-rule="evenodd" d="M4.98486 8.76494C5.30974 9.00217 5.62733 9.27754 6.08153 9.17697C6.11412 9.15407 6.16925 9.1572 6.17584 9.11523C6.04235 9.0306 5.90019 8.96575 5.76359 8.88841L5.60826 8.66089H5.53684C5.3614 8.7195 5.17278 8.7417 4.98486 8.76494Z" fill="white"/>
<path fill-rule="evenodd" clip-rule="evenodd" d="M13.1936 11.3974H13.2158C13.4111 11.2417 13.6415 11.1896 13.8719 11.1244C13.934 11.147 13.8948 11.2153 13.95 11.2417C14.0898 11.1831 14.2588 11.1962 14.4014 11.1473C14.5738 11.1543 14.7136 11.1574 14.8527 11.232C14.9627 11.3776 15.1709 11.362 15.3142 11.4588L15.2913 11.232C14.9894 10.8778 14.5183 10.8518 14.0839 10.8588L14.0738 10.813C13.9701 10.813 13.8535 10.8359 13.756 10.8817C13.6165 10.8876 13.4833 10.9562 13.3497 10.9982C13.2876 11.1217 13.2391 11.2705 13.1936 11.3974Z" fill="white"/>
<path fill-rule="evenodd" clip-rule="evenodd" d="M5.25221 7.40823C5.37863 7.57402 5.56637 7.70026 5.78043 7.6583C5.67063 7.55113 5.54385 7.43702 5.53727 7.28476C5.56983 6.99586 5.2522 6.97332 5.09668 6.82349C5.14794 7.01875 5.14206 7.23586 5.25221 7.40823Z" fill="white"/>
<path fill-rule="evenodd" clip-rule="evenodd" d="M13.4211 11.9719H13.459C13.6314 11.864 13.8815 11.9455 14.0505 11.8317C14.1445 11.7828 14.1508 11.9129 14.2164 11.9486C14.3753 12.0461 14.3947 12.3378 14.6188 12.2701C14.8881 12.4095 14.8201 12.738 14.8298 12.978L15.0799 12.8223C15.057 12.6957 15.1282 12.5424 15.047 12.4324C14.9856 12.2934 14.8169 12.2802 14.7358 12.1664C14.8332 12.0006 14.6126 11.9233 14.5668 11.803L14.58 11.7863L14.9235 11.8317C15.0411 11.9032 15.0827 12.0332 15.1188 12.1532C15.3884 12.1987 15.4533 12.5035 15.5476 12.6985C15.6028 12.5653 15.6253 12.4224 15.6809 12.293C15.684 12.1855 15.541 12.1855 15.4699 12.1373C15.4498 11.9719 15.3755 11.8154 15.2298 11.7152C14.9307 11.6406 14.6681 11.4749 14.3402 11.4749L14.0672 11.5595C13.9176 11.5952 13.7587 11.5498 13.6453 11.6531C13.4756 11.666 13.4628 11.8515 13.4211 11.9719Z" fill="white"/>
<path fill-rule="evenodd" clip-rule="evenodd" d="M13.5925 10.6343L13.6546 10.6635C13.787 10.6014 13.9205 10.5303 14.0602 10.4782C14.2773 10.4165 14.4461 10.6635 14.6282 10.5077C14.6961 10.4588 14.754 10.5303 14.8064 10.5695C14.8844 10.7124 15.0661 10.7026 15.2023 10.7415C15.1344 10.5566 15.0501 10.3031 14.813 10.2733C14.719 10.2313 14.6084 10.2355 14.5176 10.1796C14.2679 9.9039 14.1057 10.4065 13.8328 10.2833C13.7357 10.3912 13.6158 10.4914 13.5925 10.6343Z" fill="white"/>
<path fill-rule="evenodd" clip-rule="evenodd" d="M13.6545 12.2151C13.7581 12.3021 13.8648 12.452 14.0265 12.4322C14.2285 12.5265 14.144 12.7922 14.2541 12.932L14.3705 12.8279L14.3608 12.8217L14.3774 12.8054L14.3844 12.8151C14.4166 12.7173 14.3708 12.5453 14.3158 12.4319C14.2413 12.3805 14.1537 12.4353 14.0827 12.3864C14.0726 12.2827 14.0078 12.2307 13.9334 12.1658C13.8814 12.127 13.8132 12.179 13.755 12.1756L13.6545 12.2151Z" fill="white"/>
<path fill-rule="evenodd" clip-rule="evenodd" d="M5.85889 8.25818C5.96599 8.43715 6.17327 8.54744 6.33895 8.67056C6.47482 8.73264 6.65333 8.74825 6.7996 8.71599C6.66026 8.60258 6.5334 8.47287 6.41694 8.33587C6.37153 8.27102 6.36148 8.19021 6.30013 8.13159C6.14692 8.16107 5.9757 8.15795 5.85889 8.25818Z" fill="white"/>
<path fill-rule="evenodd" clip-rule="evenodd" d="M6.03784 7.09669C6.18748 7.2812 6.41748 7.20698 6.62807 7.21322V7.19102L6.30386 6.91772C6.21276 6.9472 6.11612 7.02802 6.03784 7.09669Z" fill="white"/>
<path fill-rule="evenodd" clip-rule="evenodd" d="M0.0605469 4.03539L0.248803 4.61979C0.245329 4.28857 0.398156 4.01284 0.365854 3.67538L0.50583 3.46729L0.209554 3.55815C0.131751 3.70729 0.0671462 3.85712 0.0605469 4.03539Z" fill="white"/>
<path fill-rule="evenodd" clip-rule="evenodd" d="M0.187256 3.02291L0.443411 2.87343V2.49365C0.336159 2.55886 0.277155 2.66915 0.193505 2.75689L0.187256 3.02291Z" fill="white"/>
<path fill-rule="evenodd" clip-rule="evenodd" d="M5.45371 3.6139C5.3916 3.69506 5.29792 3.71448 5.22021 3.73078C5.35621 3.48072 5.42144 3.13285 5.31389 2.85054C5.3857 2.82487 5.46377 2.81239 5.53177 2.77285L5.52483 2.7666L5.70386 2.61019C5.94083 2.44787 5.84993 2.13989 5.93771 1.9096C5.82078 1.72751 5.78539 1.50693 5.61608 1.35398L5.62614 1.34809C5.49257 1.17918 5.25247 1.19826 5.06998 1.11398C4.82988 1.03282 4.64495 1.19826 4.47286 1.30924C4.39827 1.32173 4.44372 1.41919 4.36253 1.41606C4.31708 1.53641 4.26157 1.66613 4.2293 1.79896C3.90768 1.75318 3.56072 1.7896 3.30397 1.97099C3.16727 1.87075 3.00178 1.85098 2.84252 1.80555C2.72595 1.78301 2.59272 1.82532 2.50875 1.75977C2.38558 1.62069 2.35887 1.36716 2.14757 1.33179C2.07333 1.30577 2.05736 1.22496 2.05736 1.15317C1.91754 1.13063 1.79368 1.06612 1.65733 1.03629C1.45019 0.941954 1.2847 1.09178 1.12857 1.19202C1.06057 1.2215 0.9825 1.23086 0.917966 1.2704C0.801043 1.45179 0.690363 1.63699 0.615768 1.8378C0.638667 2.00324 0.709792 2.1496 0.794796 2.28903C0.869392 2.50024 1.10289 2.66568 1.301 2.7503C1.20698 3.07146 1.20698 3.45471 1.301 3.77934C1.301 3.77934 1.29545 3.78315 1.29545 3.78246C1.29545 3.78315 1.28504 3.79147 1.28504 3.79147C1.25382 3.79147 1.22086 3.79772 1.19518 3.78246H1.19102C1.23647 4.09252 1.38254 4.36374 1.61847 4.59646C1.70312 4.62628 1.68369 4.72652 1.71978 4.79172C1.74198 4.82051 1.74511 4.88224 1.73539 4.90825C1.22953 4.89195 0.777798 5.01854 0.37186 5.24884C0.268121 5.30086 0.313919 5.4441 0.304204 5.54433C0.589748 5.35635 0.898191 5.21658 1.2389 5.15519C1.38497 5.14548 1.55046 5.10976 1.69029 5.1486L1.7066 5.4278C1.32043 5.62896 0.89819 5.74584 0.566848 6.07706C0.57344 6.17729 0.554359 6.29452 0.583503 6.37914L0.879108 6.13844C1.1643 5.92168 1.46303 5.73613 1.79125 5.61613C1.87903 5.72017 1.97028 5.83046 2.08721 5.89497C2.28497 5.76838 2.49939 5.67474 2.72664 5.61613C2.84703 5.54468 3.03786 5.60954 3.11592 5.46699L3.17144 5.17149C3.16138 5.1649 3.15548 5.15242 3.13882 5.15589C2.98651 5.06814 2.88589 4.91588 2.89873 4.73692C2.84703 4.76259 2.78875 4.77923 2.72664 4.78236C2.6746 4.76918 2.62637 4.75669 2.60347 4.70432C2.6 4.63912 2.56739 4.54201 2.63227 4.49345C2.84322 4.36339 3.11627 4.3568 3.38273 4.37692C3.5805 4.40258 3.86674 4.39252 3.93439 4.62698C3.92537 4.69496 3.93127 4.76952 3.86327 4.81496C3.79179 4.8538 3.71095 4.81149 3.64538 4.7827C3.59403 4.94155 3.50625 5.12051 3.32722 5.17184L3.35047 5.36051C3.37267 5.44514 3.37926 5.58422 3.51284 5.55508C3.82128 5.62965 4.09364 5.78885 4.36323 5.96087C4.45413 5.86966 4.5256 5.76561 4.59014 5.67196C5.07067 5.83393 5.48667 6.19428 5.88254 6.52862L5.8992 6.25602C5.5224 5.92168 5.10328 5.6848 4.6682 5.49959C4.68485 5.41185 4.70428 5.32722 4.70706 5.23358C5.22367 5.26236 5.71323 5.42156 6.13929 5.67196L6.13235 5.4382C5.68443 5.1982 5.19419 5.03901 4.65814 5.03242C4.63871 5.00259 4.63246 4.96097 4.63593 4.93149C4.8958 4.88918 5.08038 4.62004 5.14283 4.38593C5.27537 4.23368 5.46759 4.06789 5.42213 3.84107C5.42803 3.82269 5.43462 3.80257 5.44121 3.78315C5.45856 3.72592 5.47314 3.66662 5.45371 3.6139Z" fill="white"/>
<path fill-rule="evenodd" clip-rule="evenodd" d="M5.90527 4.44802L6.1704 4.36339L6.19909 4.21426C6.2741 3.9968 6.11578 3.83448 6.03732 3.66211L5.90527 4.44802Z" fill="white"/>
<path fill-rule="evenodd" clip-rule="evenodd" d="M6.57677 5.47675C6.70355 5.61582 6.8272 5.84022 7.05193 5.77155C7.03525 5.67791 6.98315 5.60022 6.95085 5.51559C6.89181 5.44692 6.8727 5.25235 6.75565 5.32102C6.66777 5.26241 6.64554 5.1646 6.58962 5.08691C6.56426 5.20692 6.58025 5.3564 6.57677 5.47675Z" fill="white"/>
<path fill-rule="evenodd" clip-rule="evenodd" d="M6.62256 6.42698C6.6714 6.49565 6.68456 6.58339 6.73236 6.64478C6.81999 6.7027 6.94989 6.69368 7.05657 6.68363C7.1539 6.66108 7.21556 6.76791 7.30631 6.70582C7.19339 6.63472 7.1255 6.50466 7.01778 6.41102C6.891 6.31044 6.75557 6.39819 6.62256 6.42698Z" fill="white"/>
<path fill-rule="evenodd" clip-rule="evenodd" d="M6.79461 7.93676C7.01818 8.06994 7.3031 8.2 7.60154 8.15457C7.63377 8.13792 7.68923 8.14139 7.69547 8.1022C7.51072 8.03699 7.31662 7.85214 7.12251 7.81329C7.01506 7.64786 6.87572 7.8556 6.7395 7.84243C6.74262 7.88162 6.78144 7.9111 6.79461 7.93676Z" fill="white"/>
<path fill-rule="evenodd" clip-rule="evenodd" d="M15.6711 10.803L15.7201 10.9074C15.7691 11.2452 15.983 11.5563 15.866 11.9263C15.9636 11.9943 15.9931 12.1077 16.0546 12.1986H16.0709C16.1456 11.9166 16.0939 11.6243 16.0546 11.3416C16.0838 11.0853 15.8236 10.9358 15.6711 10.803Z" fill="white"/>
<path fill-rule="evenodd" clip-rule="evenodd" d="M7.52515 7.47897C7.69383 7.60903 7.96297 7.62186 8.15694 7.557C8.03398 7.48902 7.8982 7.41446 7.79705 7.32324L7.52515 7.47897Z" fill="white"/>
<path fill-rule="evenodd" clip-rule="evenodd" d="M8.32633 8.47606C8.30967 8.61271 8.40096 8.72612 8.49849 8.7941C8.53424 8.71294 8.59255 8.64497 8.5988 8.5541C8.56999 8.41433 8.4919 8.28808 8.36521 8.19409C8.3423 8.28461 8.31661 8.37167 8.32633 8.47606Z" fill="white"/>
<path fill-rule="evenodd" clip-rule="evenodd" d="M16.5383 9.95546C16.5153 10.1077 16.6841 10.1278 16.7557 10.2121C16.8144 10.2832 16.7168 10.3321 16.7168 10.4001C16.8401 10.5589 16.9116 10.741 16.9116 10.9522C16.9606 10.7545 17.0353 10.5655 17.062 10.3612C17.0488 10.2187 16.8217 10.2478 16.8571 10.089C16.9217 9.92667 16.8439 9.76748 16.8015 9.62181C16.7883 9.59857 16.7592 9.55314 16.7338 9.56632C16.6741 9.6995 16.5282 9.79314 16.5383 9.95546Z" fill="white"/>
<path fill-rule="evenodd" clip-rule="evenodd" d="M8.78125 9.18307L8.95017 9.51082C9.02525 9.5018 9.07321 9.42966 9.13195 9.37833C9.17783 9.24168 9.05722 9.15394 9.02177 9.04365C8.99188 8.96561 9.02178 8.86191 8.96616 8.79359C8.92411 8.76792 8.87475 8.72561 8.82609 8.73809L8.78125 9.18307Z" fill="white"/>
<path fill-rule="evenodd" clip-rule="evenodd" d="M17.2002 8.32031C17.3333 8.40112 17.4855 8.518 17.5566 8.66055C17.6707 8.99177 17.8524 9.29038 17.9852 9.61154C18.034 9.83559 18.0729 10.0354 18.1346 10.2563C18.1575 10.3139 18.1443 10.4276 18.2355 10.4183C18.2611 10.1717 18.31 9.93479 18.3132 9.67814C18.2324 9.57131 18.1245 9.52588 18.0243 9.46033V9.43813C18.0375 9.38264 18.0829 9.31778 18.1512 9.32819C18.18 9.29489 18.2677 9.26298 18.2292 9.20472C18.0604 9.03616 18.0701 8.74517 17.8004 8.6928C17.7067 8.65396 17.6835 8.55685 17.6745 8.46598C17.5476 8.3595 17.359 8.32274 17.2002 8.32031Z" fill="white"/>
<path fill-rule="evenodd" clip-rule="evenodd" d="M17.3554 10.0794C17.521 10.2313 17.4631 10.4522 17.4496 10.6568C17.424 10.7803 17.5795 10.7089 17.6283 10.7737C17.7284 10.9232 17.6703 11.1407 17.6342 11.303C17.7222 11.1694 17.8227 11.0526 17.8906 10.9069C17.8871 10.8514 17.9581 10.8257 17.9557 10.7578C17.9844 10.6634 17.8746 10.7057 17.8292 10.6953C17.7905 10.6856 17.7482 10.6596 17.7607 10.6079C17.8452 10.4453 17.7676 10.2507 17.735 10.0887C17.6962 9.9552 17.7517 9.77728 17.6897 9.6604C17.5861 9.80329 17.2778 9.83589 17.3554 10.0794Z" fill="white"/>
<path fill-rule="evenodd" clip-rule="evenodd" d="M9.45605 7.77444C9.74493 8.06681 9.95553 8.36023 10.2666 8.64289C10.2735 8.51699 10.2569 8.39942 10.2503 8.27595C10.2046 8.1889 10.1204 8.12369 10.0491 8.05884C9.81941 8.03595 9.69921 7.72588 9.45605 7.77444Z" fill="white"/>
<path fill-rule="evenodd" clip-rule="evenodd" d="M18.4146 9.32156C18.4212 9.3507 18.4344 9.37636 18.4469 9.40584C18.5737 9.61394 18.694 9.82758 18.7823 10.0516C18.7562 9.81197 18.9192 9.51266 18.7041 9.32815C18.6749 9.25012 18.5772 9.27613 18.5153 9.28237L18.4146 9.32156Z" fill="white"/>
<path fill-rule="evenodd" clip-rule="evenodd" d="M19.1938 11.6928C19.285 11.7341 19.4015 11.6595 19.4892 11.6082C19.5704 11.5884 19.6387 11.6339 19.7004 11.6762C19.7261 11.7279 19.7004 11.7764 19.7094 11.8253C19.9046 11.8805 20.0957 11.9519 20.268 12.0653L20.3224 12.0105C20.3356 11.8707 20.2257 11.7709 20.1217 11.6928C20.0537 11.6529 19.9525 11.6762 19.9046 11.6141C19.9369 11.5628 19.9369 11.4847 19.9334 11.4261C19.8259 11.4261 19.758 11.3935 19.6702 11.3415C19.6158 11.3255 19.5666 11.2801 19.5211 11.3415C19.3592 11.4521 19.3495 11.6141 19.1938 11.6928Z" fill="white"/>
<path fill-rule="evenodd" clip-rule="evenodd" d="M11.2196 7.60793C11.3004 7.58574 11.3853 7.56215 11.4533 7.50423C11.6699 7.30619 11.985 7.43903 12.2377 7.43591C12.1895 7.34816 12.1209 7.26111 12.0595 7.18585C11.9687 7.15012 11.8841 7.10781 11.7805 7.10781C11.5597 6.97844 11.411 7.19556 11.2418 7.30238C11.1968 7.39082 11.1742 7.52019 11.2196 7.60793Z" fill="white"/>
<path fill-rule="evenodd" clip-rule="evenodd" d="M11.226 8.27589C11.226 8.26687 11.226 8.25647 11.2357 8.2537C11.2649 8.27971 11.2323 8.3411 11.2812 8.35393C11.3655 8.31231 11.4436 8.2537 11.5213 8.1989C11.7392 8.1989 11.8689 7.98803 12.0826 7.98803C12.4397 8.05254 12.7942 8.12398 13.1055 8.29913C13.0833 8.08826 12.9011 7.89681 12.7165 7.80213C12.6121 7.76641 12.5309 7.82224 12.4563 7.88016C12.2384 8.01716 12.3526 7.68247 12.1999 7.67554C12.0018 7.73797 11.7971 7.8056 11.5768 7.78652C11.4467 7.83473 11.3554 7.95438 11.2097 7.9419C11.2031 8.04907 11.1868 8.17913 11.226 8.27589Z" fill="white"/>
<path fill-rule="evenodd" clip-rule="evenodd" d="M11.3754 9.00017C11.4431 9.07127 11.5566 9.05809 11.6547 9.07127L11.9368 8.96132C11.9403 8.9093 11.8525 8.89577 11.8716 8.8382C11.9497 8.75045 12.0572 8.81184 12.154 8.77577C12.2911 8.7567 12.4305 8.62039 12.5662 8.72097C12.5631 8.73693 12.5731 8.76016 12.5603 8.77577C12.5173 8.8767 12.5894 8.93809 12.6672 8.97693C12.8264 9.00676 12.9756 9.15277 13.1348 9.08722C13.1189 8.95439 13.0831 8.83126 13.0502 8.70433C12.9173 8.68144 12.8233 8.57114 12.6998 8.52536C12.6443 8.57739 12.5731 8.61658 12.5048 8.60999C12.2546 8.55172 11.9559 8.396 11.703 8.55519C11.6117 8.66513 11.4493 8.63288 11.3262 8.68109C11.3331 8.79242 11.3456 8.89924 11.3754 9.00017Z" fill="white"/>
<path fill-rule="evenodd" clip-rule="evenodd" d="M19.6839 10.9296C19.6641 10.9847 19.6094 11.076 19.7095 11.1016C19.9175 11.1086 20.1834 11.0014 20.3459 11.1634C20.4007 11.206 20.3747 11.2931 20.3716 11.3486L20.6437 11.5761C20.67 11.4394 20.7182 11.316 20.7217 11.1696C20.6995 11.0659 20.6471 10.965 20.5567 10.897C20.3778 10.897 20.2738 10.6879 20.0825 10.7146C19.9823 10.6913 19.895 10.7805 19.7938 10.7805C19.7484 10.8259 19.7227 10.8814 19.6839 10.9296Z" fill="white"/>
<path fill-rule="evenodd" clip-rule="evenodd" d="M19.7621 9.39964C19.804 9.48669 19.8532 9.62993 19.934 9.63964C20.1254 9.55536 20.4042 9.50299 20.6188 9.59421C20.6902 9.60704 20.6902 9.68819 20.6743 9.74057C20.7842 9.80542 20.9177 9.85675 21.0342 9.92854L21.0019 9.73398C20.995 9.52276 20.729 9.50299 20.7127 9.29489C20.4954 9.22379 20.252 9.20125 20.0217 9.2564C19.9465 9.32472 19.8401 9.31501 19.7489 9.33478C19.743 9.36044 19.7586 9.3764 19.7621 9.39964Z" fill="white"/>
<path fill-rule="evenodd" clip-rule="evenodd" d="M19.8176 10.4511C19.9441 10.4154 20.0245 10.2756 20.1611 10.2632C20.3687 10.2666 20.5538 10.3502 20.6831 10.5292C20.7618 10.5808 20.7451 10.7144 20.8453 10.7144C20.8162 10.5548 20.8682 10.4088 20.862 10.2465C20.725 10.0197 20.3888 10.1945 20.262 9.92847L20.0221 9.94442C19.8502 9.98673 19.8959 10.1882 19.8724 10.3245C19.853 10.3669 19.8141 10.3991 19.8176 10.4511Z" fill="white"/>
<path fill-rule="evenodd" clip-rule="evenodd" d="M21.0083 11.8704C21.1094 12.0716 21.331 12.2245 21.3532 12.4552C21.4053 12.3931 21.4411 12.322 21.4769 12.254C21.4734 12.1888 21.3984 12.1888 21.3688 12.1371C21.3397 12.0528 21.3855 11.9783 21.3984 11.903C21.3563 11.7827 21.2553 11.6692 21.1417 11.5981L21.0083 11.8704Z" fill="white"/>
<path fill-rule="evenodd" clip-rule="evenodd" d="M21.4087 11.358L21.6413 11.6761C21.7412 11.5169 21.7412 11.2835 21.7025 11.0913C21.6804 11.0556 21.6379 10.9973 21.5798 11.0233C21.492 11.1145 21.4796 11.2536 21.4087 11.358Z" fill="white"/>
<path fill-rule="evenodd" clip-rule="evenodd" d="M12.2549 2.47322C12.3395 2.51553 12.4206 2.55437 12.5207 2.56062C12.5894 2.52524 12.6771 2.49923 12.7613 2.52177C12.8812 2.59981 13.0271 2.50547 13.1661 2.51206C13.0434 2.39553 12.9034 2.32408 12.7613 2.2561C12.5793 2.2946 12.4337 2.42397 12.2549 2.47322Z" fill="white"/>
<path fill-rule="evenodd" clip-rule="evenodd" d="M13.5251 2.77861C13.6963 2.79457 13.8196 2.94683 13.9363 3.07446C14.0825 3.09665 14.1926 3.20035 14.2799 3.30787L14.2248 3.1355C14.186 2.96313 14.079 2.82994 13.9692 2.69434C13.8137 2.70405 13.6606 2.71688 13.5251 2.77861Z" fill="white"/>
<path fill-rule="evenodd" clip-rule="evenodd" d="M1.40717 1.35425L1.50113 1.36396C1.75458 1.49055 2.16336 1.55541 2.18589 1.922C1.93036 2.02293 1.6835 2.15958 1.47929 2.36663C1.32361 2.20744 1.00845 2.29519 0.956787 2.01634C1.00567 1.75344 1.09929 1.42292 1.40717 1.35425Z" fill="#FF6600"/>
<path fill-rule="evenodd" clip-rule="evenodd" d="M1.65157 3.00019C1.94628 2.97452 2.23197 3.0158 2.53743 2.99048C2.61197 3.02273 2.68963 3.08794 2.72535 3.1625C2.71564 3.5128 2.6085 3.84749 2.59221 4.20749C2.45942 4.26333 2.3294 4.37327 2.29715 4.51929C2.17684 4.55466 2.06971 4.6268 1.95286 4.68125C1.90086 4.57131 1.91056 4.40553 2.0021 4.31501C2.1283 4.13604 2.4563 4.17836 2.4296 3.89604C2.5142 3.75939 2.43306 3.58424 2.43653 3.44135C2.40394 3.33453 2.3717 3.47708 2.31969 3.47361C2.21602 3.4958 2.10889 3.50274 2.01839 3.45141C1.94974 3.37927 1.86549 3.32135 1.84608 3.22389C1.75524 3.17846 1.64845 3.10701 1.60303 3.01268L1.65157 3.00019Z" fill="#FF6600"/>
<path fill-rule="evenodd" clip-rule="evenodd" d="M2.00869 5.11643C2.14772 5.13551 2.29475 5.07412 2.41501 5.1421C2.38894 5.18753 2.32082 5.20695 2.26555 5.22013L2.04762 5.32106C1.96629 5.30094 2.01182 5.17123 2.00869 5.11643Z" fill="#FF6600"/>
<path fill-rule="evenodd" clip-rule="evenodd" d="M2.57658 2.40581C2.71548 2.36038 2.86512 2.26674 3.01406 2.31217C2.90703 2.41934 2.82286 2.55877 2.74215 2.68813L2.2981 2.67877C2.3459 2.56223 2.46886 2.46478 2.57658 2.40581Z" fill="#FF6600"/>
<path fill-rule="evenodd" clip-rule="evenodd" d="M3.87861 2.29886C4.06288 2.2666 4.05318 2.50661 4.22187 2.51667C4.25131 2.55551 4.29357 2.59089 4.27695 2.64915C4.17962 2.688 4.03725 2.66892 3.92641 2.69459C3.78059 2.61343 3.87515 2.36025 3.64446 2.37655C3.63199 2.35747 3.60567 2.31828 3.63823 2.3051C3.70993 2.27978 3.8031 2.28915 3.87861 2.29886Z" fill="#FF6600"/>
<path fill-rule="evenodd" clip-rule="evenodd" d="M3.76236 3.16907C3.84315 3.05496 3.96693 3.04594 4.08342 3.02271L4.92386 3.03901C4.95957 3.07126 4.89161 3.10039 4.89161 3.13959C4.83961 3.18814 4.76472 3.20132 4.7193 3.2471C4.60939 3.25057 4.6184 3.37959 4.54074 3.43508C4.42043 3.55508 4.24569 3.50028 4.10596 3.48052C4.05707 3.44479 4.00229 3.39589 3.97941 3.34074L3.94057 3.37959C3.98946 3.56167 3.97629 3.76318 4.01165 3.94769L4.21275 4.08122C4.21621 4.37983 4.56674 4.29868 4.7193 4.46446C4.68359 4.57128 4.61216 4.66215 4.53485 4.75337C4.41142 4.63302 4.27169 4.55463 4.1226 4.5033C4.10977 4.32781 3.91838 4.22446 3.8109 4.13636C3.78178 3.81832 3.77519 3.49369 3.72388 3.18537L3.76236 3.16907Z" fill="#FF6600"/>
<path fill-rule="evenodd" clip-rule="evenodd" d="M4.06728 5.17121H4.45768L4.40871 5.37583L4.0183 5.21005C4.00927 5.1778 4.04435 5.16809 4.06728 5.17121Z" fill="#FF6600"/>
<path fill-rule="evenodd" clip-rule="evenodd" d="M4.76829 1.49405L5.0571 1.40283C5.22283 1.48052 5.37851 1.57833 5.53072 1.68827C5.65103 1.90954 5.63092 2.20747 5.57614 2.45406C5.48842 2.55187 5.29703 2.45406 5.22596 2.60979H5.21278C5.1053 2.30493 4.80088 2.03267 4.51831 1.89255C4.56373 1.73717 4.61261 1.58492 4.76829 1.49405Z" fill="#FF6600"/>
<path fill-rule="evenodd" clip-rule="evenodd" d="M19.7422 13.8603H21.4745C21.7309 13.8215 22.0037 13.8277 22.208 13.6391C23.0754 13.7726 23.9549 13.5583 24.6367 13.0814C24.9965 12.7907 25.3199 12.455 25.5811 12.0884C25.8115 11.7652 25.9936 11.4631 26.1113 11.1013C26.1987 10.8776 26.2681 10.6456 26.3205 10.4066C26.5678 9.28189 26.4381 8.02395 26.0724 6.95295C26.0044 6.75422 25.9284 6.56277 25.8448 6.37896C25.3875 5.4342 24.7658 4.41523 23.8068 3.8173C23.2666 3.48053 22.7701 2.9596 22.4651 2.42133C22.2993 2.2715 22.14 2.07381 21.9259 2.03808C21.9846 2.13554 22.0491 2.22953 22.0658 2.34294L22.0526 2.35924C21.8257 2.36583 21.6466 2.24583 21.4909 2.09912L21.6633 1.94375C21.5981 1.91149 21.5235 1.89797 21.452 1.88236C20.7959 1.80779 20.2571 2.10918 19.6763 2.25554L19.6666 2.2878C20.0232 2.44664 20.0978 2.83925 20.306 3.10596C20.358 3.04388 20.4458 3.08931 20.517 3.08272C20.6207 3.08931 20.7182 3.16388 20.8185 3.13787C20.8219 3.05047 20.7737 2.98249 20.757 2.9048C20.8185 2.87497 20.8937 2.90133 20.9617 2.9048C21.1498 3.01474 21.452 2.88469 21.5689 3.13787C21.3545 3.15139 21.1533 3.19613 20.952 3.24504C20.9649 3.32619 21.0461 3.3914 21.0398 3.47256C20.8674 3.40042 20.6859 3.35602 20.4941 3.33278L20.485 3.36157C20.7286 3.64736 21.0624 3.81626 21.4034 3.91719C21.8937 4.0306 22.3253 3.79718 22.7989 3.87834C23.9622 4.41072 24.9552 5.62842 25.3875 6.78405C25.4087 6.83954 25.4288 6.89573 25.4482 6.95226C25.8101 8.00765 25.8784 9.30582 25.5162 10.406C25.3233 10.8645 25.111 11.2959 24.7706 11.6687C24.6419 11.8265 24.4993 11.9677 24.3446 12.0877C23.8571 12.4671 23.2562 12.634 22.6372 12.4637C22.5987 12.4384 22.5199 12.4314 22.5328 12.3634C22.5546 12.2733 22.5747 12.181 22.5924 12.0877C22.6955 11.5595 22.7423 11.0046 22.7153 10.4503C22.7139 10.4264 22.7135 10.4025 22.7125 10.3789C22.6785 9.57357 22.5178 8.84905 22.2215 8.15262C22.0321 7.75273 21.8062 7.31677 21.5221 6.92521C21.1831 6.45838 20.7619 6.05502 20.2213 5.85386C19.89 5.76611 19.4806 5.75016 19.2311 6.02623C19.0521 6.18196 18.9779 6.39283 19.0035 6.62312C18.7242 6.8007 18.4102 6.89642 18.0685 6.92521C17.9849 6.93249 17.8988 6.96266 17.8124 6.96232C17.7295 6.96613 17.6487 6.96232 17.5706 6.95226C17.1584 6.90162 16.7428 6.68069 16.4267 6.42647C16.4201 6.25861 16.41 6.09872 16.4038 5.9208C16.2223 5.82646 16.0732 5.6475 16.06 5.43698L16.0766 5.42068C16.1804 5.45293 16.2713 5.50495 16.3649 5.56045C16.3226 5.30726 16.2744 5.0572 16.1477 4.83662C16.0308 4.78772 15.9132 4.74922 15.8032 4.69026C15.6766 4.60598 15.5954 4.45338 15.5767 4.31361C15.6898 4.42459 15.8879 4.3854 15.9757 4.50228C15.8233 4.05106 15.8199 3.53498 15.5697 3.12261C15.4431 2.8174 15.1117 2.67798 14.8845 2.45358C14.7967 2.34676 14.7613 2.19762 14.6021 2.18098C14.4723 2.14872 14.4622 2.00236 14.4397 1.90872C14.5209 1.91808 14.5889 1.97357 14.6576 1.98641C14.4688 1.48628 14.3033 0.931709 13.7937 0.61367L13.7059 0.668468C13.5081 0.698295 13.2968 0.710781 13.0987 0.717371C13.1865 0.587311 13.3423 0.532512 13.4658 0.473552C13.3225 0.36673 13.2052 0.340718 13.0262 0.311237C12.9225 0.415632 12.7351 0.466962 12.6019 0.496096L12.5859 0.48361C12.5824 0.367076 12.5554 0.223491 12.7309 0.194704C12.5623 0.113547 12.283 0.145802 12.1106 0.194704C12.0617 0.321295 11.9232 0.434707 11.9323 0.583843C11.8323 0.688237 11.7609 0.827314 11.6564 0.902229C11.6536 0.652167 11.7595 0.421528 11.8053 0.211005C11.6592 0.265803 11.5107 0.343492 11.3681 0.412164C11.1374 0.278983 10.8945 0.145802 10.6482 0.0455689C10.6253 0.0355109 10.5763 0.0257999 10.5861 0.0677658C10.797 0.220369 10.7155 0.505807 10.738 0.723613L10.6048 0.61367C10.5399 0.447887 10.3522 0.327885 10.3203 0.145802C10.0993 0.188114 9.95808 0.246728 9.75338 0.334475L9.72492 0.350429C9.87724 0.350429 10.007 0.470431 10.0819 0.590432C9.85156 0.603612 9.64686 0.512396 9.41995 0.4902C9.39705 0.467309 9.37797 0.441297 9.34154 0.444765C9.22774 0.487078 9.13094 0.568235 9.02997 0.646271C8.80619 0.866506 8.57859 1.11067 8.47172 1.40235C8.54667 1.41553 8.64069 1.41241 8.69586 1.45784C8.57303 1.53241 8.46548 1.659 8.34508 1.73045C8.3031 1.89935 8.30935 2.0908 8.29963 2.27601C8.20561 2.41855 8.07897 2.54514 8.01721 2.70399C7.81598 3.35637 7.76394 4.08019 7.79343 4.82032C7.7282 4.88171 7.64354 4.92159 7.58248 4.9698L7.58907 5.63189H7.60503C7.63487 5.49212 7.80037 5.41443 7.90064 5.32044H7.93325C7.91729 5.46958 7.89751 5.61871 7.89439 5.77166L7.70599 5.92739C7.51829 6.09282 7.6772 6.34219 7.66054 6.54994C7.67407 6.60543 7.68309 6.68659 7.72299 6.69977C7.7452 6.61861 7.81667 6.56 7.86178 6.4889C7.94296 6.46878 8.01409 6.40427 8.08868 6.39456C8.0474 6.55653 7.99188 6.71572 7.92631 6.87145C7.89543 6.89191 7.85865 6.92 7.82743 6.95261C7.79447 6.98833 7.7681 7.02925 7.76185 7.0733C7.90757 7.84256 8.13726 8.60176 8.4006 9.32559C8.22157 9.62698 8.12061 9.98282 7.97176 10.2946C7.9506 10.3383 7.93152 10.3824 7.91347 10.4278C7.76428 10.8055 7.71883 11.2269 7.53321 11.59C7.45862 11.5376 7.37777 11.4988 7.29346 11.4631C6.942 11.3465 6.53641 11.4211 6.28036 11.6902C6.05275 11.6479 5.81891 11.6868 5.63988 11.8068C5.5122 11.9032 5.41297 12.019 5.35642 12.1546C5.31825 12.2486 5.29986 12.351 5.30611 12.463C5.15969 12.5636 5.08163 12.7193 5.0334 12.875C4.96505 13.226 5.08822 13.5905 5.28945 13.86L19.7422 13.8603Z" fill="white"/>
<path fill-rule="evenodd" clip-rule="evenodd" d="M26.0724 6.95344C26.0044 6.75471 25.9284 6.56326 25.8448 6.37944C25.3875 5.43469 24.7658 4.41572 23.8068 3.81779C23.2666 3.48102 22.7701 2.96009 22.4651 2.42181C22.2993 2.27199 22.14 2.07429 21.9259 2.03857C21.9846 2.13603 22.0491 2.23002 22.0658 2.34343L22.0526 2.35973C21.8257 2.36632 21.6466 2.24632 21.4909 2.09961L21.6633 1.94423C21.5981 1.91198 21.5235 1.89845 21.452 1.88285C20.7959 1.80828 20.2571 2.10967 19.6763 2.25603L19.6666 2.28829C20.0232 2.44713 20.0978 2.83974 20.306 3.10645C20.358 3.04437 20.4458 3.0898 20.517 3.08321C20.6207 3.0898 20.7182 3.16437 20.8185 3.13836C20.8219 3.05096 20.7737 2.98298 20.757 2.90529C20.8185 2.87546 20.8937 2.90182 20.9617 2.90529C21.1498 3.01523 21.452 2.88517 21.5689 3.13836C21.3545 3.15188 21.1533 3.19662 20.952 3.24553C20.9649 3.32668 21.0461 3.39189 21.0398 3.47304C20.8674 3.4009 20.6859 3.35651 20.4941 3.33327L20.485 3.36206C20.7286 3.64784 21.0624 3.81675 21.4034 3.91767C21.8937 4.03109 22.3253 3.79767 22.7989 3.87883C23.9622 4.41121 24.9552 5.62891 25.3875 6.78454C25.4087 6.84003 25.4288 6.89621 25.4482 6.95275C25.8101 8.00814 25.8784 9.30631 25.5162 10.4064C25.3233 10.8649 25.111 11.2964 24.7706 11.6692C24.6419 11.827 24.4993 11.9682 24.3446 12.0882C23.8571 12.4676 23.2562 12.6344 22.6372 12.4642C22.5987 12.4388 22.5199 12.4319 22.5328 12.3639C22.5546 12.2737 22.5747 12.1815 22.5924 12.0882C22.6955 11.56 22.7423 11.0051 22.7153 10.4508C22.7139 10.4269 22.7135 10.403 22.7125 10.3794C22.6785 9.57406 22.5178 8.84954 22.2215 8.15311C22.0321 7.75322 21.8062 7.31726 21.5221 6.92569C21.1831 6.45887 20.7619 6.05551 20.2213 5.85435C19.89 5.7666 19.4806 5.75065 19.2311 6.02672C19.0521 6.18245 18.9779 6.39332 19.0035 6.62361C18.7242 6.80118 18.4102 6.89691 18.0685 6.92569C17.9849 6.93298 17.8988 6.96315 17.8124 6.96281C17.7295 6.96662 17.6487 6.9628 17.5706 6.95275C17.1584 6.90211 16.7428 6.68118 16.4267 6.42696C16.4201 6.2591 16.41 6.09921 16.4038 5.92129C16.2223 5.82695 16.0732 5.64799 16.06 5.43746L16.0766 5.42116C16.1804 5.45342 16.2713 5.50544 16.3649 5.56094C16.3226 5.30775 16.2744 5.05769 16.1477 4.83711C16.0308 4.78821 15.9132 4.74971 15.8032 4.69075C15.6766 4.60647 15.5954 4.45387 15.5767 4.3141C15.6898 4.42508 15.8879 4.38589 15.9757 4.50277C15.8233 4.05155 15.8199 3.53547 15.5697 3.1231C15.4431 2.81789 15.1117 2.67847 14.8845 2.45407C14.7967 2.34725 14.7613 2.19811 14.6021 2.18146C14.4723 2.14921 14.4622 2.00285 14.4397 1.90921C14.5209 1.91857 14.5889 1.97406 14.6576 1.98689C14.4688 1.48677 14.3033 0.932197 13.7937 0.614158L13.7059 0.668956C13.5081 0.698783 13.2968 0.711269 13.0987 0.717859C13.1865 0.587799 13.3423 0.533001 13.4658 0.47404C13.3225 0.367218 13.2052 0.341206 13.0262 0.311726C12.9225 0.41612 12.7351 0.467451 12.6019 0.496584L12.5859 0.484098C12.5824 0.367565 12.5554 0.223979 12.7309 0.195192C12.5623 0.114035 12.283 0.14629 12.1106 0.195192C12.0617 0.321784 11.9232 0.435196 11.9323 0.584331C11.8323 0.688725 11.7609 0.827803 11.6564 0.902717C11.6536 0.652656 11.7595 0.422016 11.8053 0.211493C11.6592 0.266292 11.5107 0.343981 11.3681 0.412652C11.1374 0.279471 10.8945 0.14629 10.6482 0.0460572C10.6253 0.0359992 10.5763 0.0262881 10.5861 0.068254C10.797 0.220857 10.7155 0.506295 10.738 0.724102L10.6048 0.614158C10.5399 0.448375 10.3522 0.328373 10.3203 0.14629C10.0993 0.188603 9.95808 0.247216 9.75338 0.334963L9.72492 0.350917C9.87724 0.350917 10.007 0.470919 10.0819 0.590921C9.85156 0.6041 9.64686 0.512885 9.41995 0.490688C9.39705 0.467797 9.37797 0.441785 9.34154 0.445254C9.22774 0.487567 9.13094 0.568724 9.02997 0.64676C8.80619 0.866994 8.57859 1.11116 8.47172 1.40284C8.54667 1.41602 8.64069 1.4129 8.69586 1.45833C8.57303 1.5329 8.46548 1.65949 8.34508 1.73094C8.3031 1.89984 8.30935 2.09129 8.29963 2.27649C8.20561 2.41904 8.07897 2.54563 8.01721 2.70448C7.81598 3.35686 7.76394 4.08068 7.79343 4.82081C7.7282 4.8822 7.64354 4.92208 7.58248 4.97029L7.58907 5.63238H7.60503C7.63487 5.49261 7.80037 5.41492 7.90064 5.32093H7.93325C7.91729 5.47007 7.89751 5.6192 7.89439 5.77215L7.70599 5.92788C7.51829 6.09331 7.6772 6.34268 7.66054 6.55043C7.67407 6.60592 7.68309 6.68708 7.72299 6.70026C7.7452 6.6191 7.81667 6.56049 7.86178 6.48939C7.94296 6.46927 8.01409 6.40476 8.08868 6.39505C8.0474 6.55702 7.99188 6.71621 7.92631 6.87194C7.89543 6.8924 7.85865 6.92049 7.82743 6.95309C7.79447 6.98882 7.7681 7.02974 7.76185 7.07379C7.90757 7.84305 8.13726 8.60225 8.4006 9.32608C8.22157 9.62747 8.1206 9.98331 7.97176 10.2951C7.9506 10.3388 7.93151 10.3829 7.91347 10.4283C7.76428 10.806 7.71883 11.2274 7.53321 11.5905C7.45862 11.5381 7.37777 11.4993 7.29346 11.4636C6.942 11.347 6.53641 11.4216 6.28036 11.6907C6.05275 11.6484 5.81891 11.6873 5.63988 11.8073C5.5122 11.9037 5.41297 12.0195 5.35642 12.1551C5.31825 12.2491 5.29986 12.3514 5.30611 12.4635C5.15969 12.564 5.08163 12.7198 5.0334 12.8755C4.96505 13.2265 5.08822 13.591 5.28945 13.8605H11.027C10.9427 13.7602 10.8647 13.6205 10.8057 13.5005C10.6829 13.3149 10.7672 13.0524 10.754 12.838C10.8709 12.6022 10.9896 12.365 11.1232 12.1343C11.1502 12.0879 11.1773 12.0424 11.205 11.9973L11.4684 11.8967C11.6078 11.8967 11.7251 11.7962 11.858 11.8315C12.0367 12.0105 12.0367 11.6533 12.2091 11.637C12.6116 11.585 13.0109 11.6238 13.2378 11.9647C13.2378 12.0102 13.31 12.0102 13.2934 12.0525C13.2413 12.0681 13.1924 12.0358 13.1376 12.0358C12.8909 11.9744 12.6015 11.818 12.3583 11.9578C12.3489 12.0161 12.3365 12.0754 12.3247 12.1336C12.3125 12.1957 12.3014 12.2564 12.2962 12.3147C12.4551 12.3601 12.5883 12.4739 12.7084 12.597C12.7896 12.4381 12.9617 12.3667 13.1143 12.3147C13.2476 12.3438 13.3936 12.3473 13.5043 12.4316C13.709 12.6202 13.608 12.9414 13.589 13.1814C13.7735 13.2851 13.9782 13.3441 14.1663 13.4443C14.0785 13.523 13.9623 13.5549 13.8551 13.5941L13.5435 13.532C13.5078 13.5064 13.4457 13.5064 13.4328 13.4609C13.3291 13.5709 13.2025 13.7172 13.1376 13.8598H17.5855C17.5269 13.7266 17.4589 13.6229 17.3777 13.4998C17.2865 13.3049 17.3229 13.0385 17.3128 12.8308L17.7285 12.1978C17.9554 12.1947 18.2125 12.11 18.4588 12.1524C18.4713 12.1468 18.4831 12.1406 18.4946 12.1333C18.5969 12.0625 18.6281 11.8981 18.7804 11.9186C19.0528 11.8444 19.261 11.9678 19.4657 12.091C19.4587 12.1073 19.4521 12.1215 19.4449 12.1333C19.3592 12.2703 19.1989 12.1173 19.0819 12.1586C19.033 12.2106 19.1048 12.272 19.1142 12.331C19.1565 12.3889 19.0719 12.3823 19.0431 12.3924C18.9751 12.4021 18.9005 12.3858 18.8481 12.331C18.8353 12.3143 18.845 12.2953 18.8193 12.2921C18.7603 12.3889 18.676 12.477 18.6535 12.5873C18.7277 12.6591 18.8283 12.7302 18.8644 12.8214C18.939 12.9286 18.8058 13.0094 18.7801 13.1037C18.7704 13.1228 18.7405 13.1228 18.7312 13.1037C18.6625 13.0649 18.6045 12.9671 18.5296 12.9927C18.4644 13.282 18.5521 13.5709 18.5133 13.8598C18.6399 13.8896 18.7891 13.8532 18.9255 13.8598L18.981 13.2494C19.0389 12.8536 19.2735 12.5224 19.5493 12.22C19.8473 12.0164 20.0395 12.4187 20.2599 12.5581C20.2959 12.5647 20.2831 12.6036 20.2987 12.6261C20.2956 12.6913 20.2276 12.717 20.1821 12.7368C20.0454 12.785 19.9448 12.6358 19.8605 12.5481C19.7797 12.6358 19.7436 12.7524 19.6496 12.821L19.6818 12.8304C19.7897 12.9379 19.8928 13.0513 19.9164 13.1942C19.9032 13.3236 19.8383 13.4502 19.721 13.5157C19.6339 13.3659 19.5621 13.2005 19.5042 13.0479C19.5073 13.0548 19.5004 13.0576 19.4941 13.0645C19.3151 13.1127 19.2676 13.3139 19.2377 13.4765C19.2474 13.6357 19.1274 13.7006 19.1593 13.8594H21.4749C21.7313 13.8206 22.004 13.8268 22.2084 13.6382C23.0757 13.7717 23.9553 13.5574 24.637 13.0805C24.9968 12.7898 25.3202 12.4541 25.5814 12.0875C25.8118 11.7643 25.994 11.4622 26.1116 11.1004C26.199 10.8767 26.2684 10.6447 26.3208 10.4057C26.5678 9.28203 26.4381 8.02409 26.0724 6.95344Z" fill="#FF6600"/>
<path fill-rule="evenodd" clip-rule="evenodd" d="M11.1722 12.9777C11.2986 12.8965 11.503 12.8767 11.5317 12.6888C11.4805 12.6496 11.4347 12.6007 11.3762 12.5878L11.2432 12.6267C11.2529 12.5487 11.2952 12.4613 11.3218 12.377L11.7493 12.2375C11.6904 12.4321 11.6682 12.6756 11.6485 12.8996C11.6873 13.2309 11.7361 13.5846 11.9048 13.8603H11.4441C11.3925 13.5555 11.0742 13.3342 11.1722 12.9777Z" fill="#FF6600"/>
<path fill-rule="evenodd" clip-rule="evenodd" d="M12.1696 12.5879H12.1953L12.5068 12.8706L12.5523 12.8608C12.527 13.1921 12.5103 13.5167 12.5068 13.8604H12.1692C12.1005 13.5392 11.9869 13.2014 12.0001 12.8546C12.0584 12.7669 12.0973 12.6562 12.1696 12.5879Z" fill="#FF6600"/>
<path fill-rule="evenodd" clip-rule="evenodd" d="M12.8635 12.9002C12.9255 12.8194 12.9511 12.6824 13.0741 12.6667C13.1617 12.6692 13.2427 12.6824 13.3082 12.7444C13.4215 12.887 13.3106 13.0694 13.2694 13.212C13.2237 13.4294 13.1454 13.6562 13.0744 13.8609H12.7471L12.8635 12.9002Z" fill="#FF6600"/>
<path fill-rule="evenodd" clip-rule="evenodd" d="M17.7891 12.799C17.8605 12.8902 17.883 13.0134 17.99 13.0945C18.0842 12.9648 18.1067 12.7633 18.0614 12.5979L17.9675 12.5035C18.0877 12.4747 18.2138 12.4647 18.334 12.4421C18.282 12.6142 18.184 12.7699 18.201 12.971C18.2041 13.2634 18.2526 13.5558 18.2785 13.8603H17.9221C17.7926 13.5745 17.6627 13.3023 17.6724 12.971C17.7112 12.9124 17.7372 12.8441 17.7891 12.799Z" fill="#FF6600"/>
<path fill-rule="evenodd" clip-rule="evenodd" d="M11.1235 6.56274C11.1201 6.64702 11.0587 6.74066 11.1135 6.8128C11.1922 6.72505 11.3215 6.72817 11.4255 6.68933C11.7143 6.66297 11.99 6.75418 12.259 6.81939C12.1911 6.71187 12.1456 6.59187 12.0708 6.49476C11.9213 6.45557 11.6942 6.55961 11.6686 6.33834C11.5777 6.26065 11.4352 6.31614 11.3409 6.32239C11.2497 6.38724 11.1755 6.4684 11.1235 6.56274Z" fill="white"/>
<path fill-rule="evenodd" clip-rule="evenodd" d="M1.19925 3.75951C1.19799 3.75888 1.19672 3.75761 1.19482 3.75635C1.19482 3.75761 1.19546 3.75824 1.19546 3.75951H1.19925Z" fill="white"/>
<path fill-rule="evenodd" clip-rule="evenodd" d="M2.38029 6.64539L2.57528 6.45741C2.59194 6.45741 2.60477 6.46053 2.61414 6.47302L2.59818 6.83337C2.69221 6.92111 2.80844 6.9499 2.93195 6.95684C2.94201 6.85973 3.01661 6.79105 3.05894 6.70678C3.09467 6.6388 3.07212 6.53822 3.14325 6.49001L3.16615 6.51221C3.18835 6.61972 3.1821 6.73972 3.23762 6.83337C3.24421 6.88539 3.25323 6.9499 3.25948 6.99568C3.40277 7.00227 3.53288 6.96343 3.64286 6.91106C3.63627 6.78793 3.67894 6.68735 3.69768 6.57429C3.72752 6.5351 3.66194 6.4633 3.74313 6.46677C3.78893 6.56423 3.86977 6.66446 3.91557 6.76886C4.10362 6.57741 4.18237 6.32769 4.22678 6.06758C4.17197 5.99335 4.08766 5.99336 4.02208 5.94445C3.47042 5.76618 2.76298 5.73046 2.23041 6.00619C2.19467 6.22607 2.24012 6.46955 2.38029 6.64539Z" fill="white"/>
<path fill-rule="evenodd" clip-rule="evenodd" d="M5.42112 12.7363C5.40138 12.9863 5.42112 13.2208 5.43705 13.4677C5.48901 13.5489 5.58357 13.6432 5.67744 13.6491L5.69337 13.4833C5.73216 13.253 5.6092 13.0085 5.73909 12.8136C5.82984 12.8424 5.9206 12.8882 5.99853 12.9302C6.03733 12.7162 5.9819 12.4658 5.77754 12.3357L5.42112 12.7363Z" fill="white"/>
<path fill-rule="evenodd" clip-rule="evenodd" d="M6.22326 12.3853C6.09674 12.7655 6.00281 13.2333 6.15532 13.6336C6.24302 13.5746 6.33348 13.5195 6.41113 13.4386C6.39518 13.1331 6.3529 12.8078 6.53452 12.5539C6.69327 12.6028 6.80072 12.7554 6.86173 12.9042C6.96953 12.7682 7.00488 12.5796 6.96294 12.3985C6.96953 12.2553 6.80731 12.2882 6.72932 12.2296C6.75497 12.1093 6.7515 11.9705 6.87837 11.9019L6.48946 11.9407C6.38894 12.0839 6.27872 12.2227 6.22326 12.3853Z" fill="white"/>
<path fill-rule="evenodd" clip-rule="evenodd" d="M7.02563 13.5071C7.04193 13.5359 7.02564 13.5883 7.05857 13.5949C7.10677 13.3219 7.32728 13.1454 7.44794 12.9047C7.50584 12.8246 7.50306 12.7101 7.59702 12.6487C7.72323 12.6487 7.81441 12.7396 7.93785 12.7493C7.97668 12.7788 7.91774 12.8048 7.91462 12.837C7.88896 13.0583 7.80471 13.2407 7.82066 13.4683H7.84319C8.01516 13.2862 8.13201 13.0902 8.25856 12.8825L8.28075 12.698C8.31056 12.477 8.07064 12.3345 7.91392 12.2433L8.05365 12.0643L7.85879 11.9963C7.63169 12.0189 7.42713 12.1132 7.26834 12.2922C7.07071 12.655 7.03846 13.0656 7.02563 13.5071Z" fill="white"/>
<path fill-rule="evenodd" clip-rule="evenodd" d="M7.89917 11.5806C7.97337 11.6028 8.04167 11.5418 8.11587 11.5737C8.41474 11.6843 8.72609 11.7977 8.95007 12.0474L9.21634 12.7262L9.34948 12.3069L9.26176 12.0804C9.18687 11.9181 8.98266 11.9313 8.84293 11.9247C8.78468 11.8595 8.84605 11.7849 8.86581 11.7235C8.93377 11.4929 8.65154 11.5057 8.53817 11.4117C8.54475 11.2726 8.3759 11.3205 8.2816 11.308L8.24935 11.2692C8.22993 11.2393 8.1814 11.2393 8.15505 11.2622C8.14915 11.2525 8.13598 11.2459 8.14256 11.23L8.07149 11.2459C7.97025 11.3337 7.90229 11.4471 7.89917 11.5806Z" fill="white"/>
<path fill-rule="evenodd" clip-rule="evenodd" d="M8.08716 10.8337C8.09722 10.8754 8.12289 10.9177 8.15516 10.944C8.30158 10.9052 8.44174 10.8039 8.61002 10.866C8.82791 11.0575 9.05481 11.2586 9.31815 11.3623L9.41253 11.3464C9.47047 11.3654 9.53535 11.3686 9.57421 11.4341C9.61029 11.5218 9.51939 11.5732 9.49059 11.6446C9.63631 11.7521 9.57837 11.9432 9.66892 12.073L9.90242 11.7619C9.84795 11.6252 9.9059 11.3918 9.69217 11.3786C9.62 11.3429 9.57178 11.2718 9.57455 11.1906C9.43542 11.064 9.26333 11.0089 9.12386 10.8788C9.00936 10.7883 8.94171 10.6489 8.79599 10.6163C8.69502 10.5608 8.58469 10.5317 8.46811 10.5063C8.24988 10.473 8.23045 10.7328 8.08716 10.8337Z" fill="white"/>
<path fill-rule="evenodd" clip-rule="evenodd" d="M8.39917 10.1946L8.438 10.257C8.60027 10.2469 8.74589 10.1758 8.90503 10.1786C9.01182 10.2435 9.15155 10.24 9.2618 10.2955C9.34952 10.4158 9.44383 10.5514 9.5728 10.6326C9.83596 10.6714 9.98158 10.9548 10.0724 11.1618V11.0616C10.1113 10.9218 10.069 10.7592 10.018 10.6326C9.95281 10.5677 9.85815 10.5258 9.79054 10.4679C9.77737 10.4255 9.78707 10.4054 9.80025 10.3669C9.69935 10.2598 9.55027 10.2011 9.42684 10.1165C9.25487 9.86645 8.92445 9.93547 8.66129 9.86646L8.39917 10.1946Z" fill="white"/>
<path fill-rule="evenodd" clip-rule="evenodd" d="M0.192139 7.81363C0.220968 7.91456 0.25605 8.0408 0.275848 8.14832C0.366503 7.94716 0.546075 7.85594 0.705155 7.69085C0.613806 7.62912 0.500225 7.59964 0.399845 7.58056V7.57397C0.327947 7.64473 0.217494 7.71652 0.192139 7.81363Z" fill="white"/>
<path fill-rule="evenodd" clip-rule="evenodd" d="M0.781738 8.88156L0.927619 8.73243C1.07419 8.5826 1.19507 8.41023 1.21695 8.21913C1.1131 8.15774 0.976592 8.20005 0.876212 8.23577C0.840436 8.44595 0.784864 8.6537 0.781738 8.88156Z" fill="white"/>
<path fill-rule="evenodd" clip-rule="evenodd" d="M0.888672 9.33961C1.11243 9.3521 1.32996 9.39753 1.51146 9.27094L1.69331 8.68688C1.63442 8.68342 1.57588 8.65706 1.52116 8.67717C1.40131 8.94284 1.16162 9.20608 0.888672 9.33961Z" fill="white"/>
<path fill-rule="evenodd" clip-rule="evenodd" d="M0.954524 7.2686C1.10035 7.48259 1.34385 7.72225 1.5929 7.79092C1.56415 7.51797 1.33069 7.32964 1.2105 7.09658L1.20391 7.01854C1.11005 6.92767 0.996435 6.86559 0.899103 6.81738C0.883516 6.97311 0.925775 7.1219 0.954524 7.2686Z" fill="white"/>
<path fill-rule="evenodd" clip-rule="evenodd" d="M1.74609 9.36498C1.91802 9.39411 2.10311 9.36498 2.26186 9.31608C2.49201 9.26059 2.61887 9.00775 2.69652 8.81006H2.40778L2.09687 9.11492C1.97382 9.17943 1.85701 9.27689 1.74609 9.36498Z" fill="white"/>
<path fill-rule="evenodd" clip-rule="evenodd" d="M1.71118 6.97339C1.76019 7.22692 1.86794 7.45721 2.01426 7.67467L2.05285 7.19085L1.71118 6.97339Z" fill="white"/>
<path fill-rule="evenodd" clip-rule="evenodd" d="M2.77627 8.23553C2.79608 8.07322 2.72796 7.88454 2.70884 7.7198C2.61117 7.6546 2.47492 7.66084 2.37378 7.59668C2.38038 7.85229 2.58128 8.0701 2.77627 8.23553Z" fill="white"/>
<path fill-rule="evenodd" clip-rule="evenodd" d="M10.6819 9.88464C10.886 9.81978 11.084 9.74833 11.2725 9.64463C11.3925 9.47226 11.5737 9.31688 11.6001 9.11572C11.45 9.15769 11.321 9.10879 11.1814 9.17746C11.0971 9.32971 11.0448 9.50243 10.8829 9.61238C10.8569 9.72197 10.737 9.79689 10.6819 9.88464Z" fill="white"/>
<path fill-rule="evenodd" clip-rule="evenodd" d="M10.9998 10.2834L11.2429 10.6015C11.3728 10.6434 11.5349 10.6309 11.6482 10.5564L11.5612 10.2678C11.3891 10.332 11.1847 10.3133 10.9998 10.2834Z" fill="white"/>
<path fill-rule="evenodd" clip-rule="evenodd" d="M3.2041 7.98601L3.2983 8.41399C3.52596 8.22948 3.57288 7.96 3.56627 7.67456C3.43628 7.8237 3.36086 7.91456 3.2041 7.98601Z" fill="white"/>
<path fill-rule="evenodd" clip-rule="evenodd" d="M3.84399 8.7417C3.84711 8.80378 3.86306 8.86205 3.89841 8.9106C4.15145 9.00182 4.17744 9.30945 4.41141 9.42633C4.56323 9.495 4.73896 9.41038 4.87137 9.3483C4.7712 9.23489 4.65785 9.15685 4.56045 9.03719C4.49251 9.00806 4.42354 8.96575 4.42735 8.88147L3.84399 8.7417Z" fill="white"/>
<path fill-rule="evenodd" clip-rule="evenodd" d="M12.2471 10.2742C12.3572 10.4001 12.5066 10.4656 12.6625 10.5007C12.6368 10.4653 12.6792 10.5007 12.6855 10.4785L12.4903 10.0498C12.3927 10.0533 12.2916 10.073 12.2009 10.0665C12.2082 10.1379 12.2239 10.209 12.2471 10.2742Z" fill="white"/>
<path fill-rule="evenodd" clip-rule="evenodd" d="M4.38993 8.27491C4.29858 8.06404 4.26107 7.80704 4.23433 7.57397C4.13742 7.69085 4.03634 7.76577 3.94499 7.88508C3.90262 8.12508 4.24683 8.18369 4.38993 8.27491Z" fill="white"/>
<path fill-rule="evenodd" clip-rule="evenodd" d="M4.78486 8.05326C4.90229 8.20655 5.15791 8.15453 5.30062 8.10875C5.23238 7.99187 5.01278 7.9232 4.97398 7.79765C4.95181 7.5736 4.90609 7.35544 4.83439 7.15186C4.72113 7.42724 4.58396 7.75533 4.78486 8.05326Z" fill="white"/>
<path fill-rule="evenodd" clip-rule="evenodd" d="M4.98975 8.74164C5.31427 8.97852 5.63256 9.2546 6.08606 9.15367C6.11865 9.13147 6.17413 9.1339 6.18037 9.09228C6.04723 9.008 5.90473 8.94245 5.76847 8.86476L5.61314 8.63794H5.54172C5.36628 8.69586 5.17836 8.71944 4.98975 8.74164Z" fill="white"/>
<path fill-rule="evenodd" clip-rule="evenodd" d="M13.198 11.3741H13.2212C13.4159 11.2184 13.6463 11.166 13.8766 11.1015C13.9387 11.1244 13.8995 11.1927 13.9551 11.2184C14.0945 11.1604 14.2635 11.1729 14.4061 11.1244C14.5782 11.1306 14.718 11.1337 14.8575 11.2083C14.9685 11.3547 15.1756 11.338 15.3189 11.4358L15.2957 11.2083C14.9942 10.8545 14.5234 10.8289 14.0883 10.8355L14.0786 10.79C13.9748 10.79 13.8579 10.8122 13.7604 10.858C13.6213 10.8646 13.4877 10.9326 13.3545 10.9745C13.2924 11.098 13.2434 11.2482 13.198 11.3741Z" fill="white"/>
<path fill-rule="evenodd" clip-rule="evenodd" d="M5.25708 7.38518C5.38316 7.55097 5.57125 7.6779 5.78531 7.63559C5.67551 7.52773 5.54839 7.41432 5.54215 7.26206C5.57471 6.97315 5.25709 6.94992 5.10156 6.80078C5.15352 6.9957 5.14659 7.21316 5.25708 7.38518Z" fill="white"/>
<path fill-rule="evenodd" clip-rule="evenodd" d="M13.4255 11.9484H13.4644C13.6361 11.8415 13.8863 11.923 14.0553 11.8093C14.1493 11.7604 14.1559 11.8904 14.2208 11.9262C14.38 12.0229 14.3998 12.3153 14.6236 12.2473C14.8925 12.3867 14.8248 12.7145 14.8345 12.9545L15.0847 12.7991C15.0618 12.6725 15.1336 12.5199 15.0521 12.4096C14.9903 12.2702 14.8213 12.2574 14.7401 12.144C14.838 11.9782 14.617 11.8998 14.5712 11.7798L14.5847 11.7638L14.9289 11.8093C15.0458 11.8804 15.0881 12.0104 15.1239 12.1308C15.3928 12.1762 15.4577 12.4811 15.552 12.6756C15.6075 12.5428 15.6301 12.3996 15.6853 12.2699C15.6887 12.1627 15.5458 12.1627 15.4743 12.1141C15.4552 11.9484 15.3803 11.793 15.2342 11.6927C14.9355 11.6171 14.6728 11.4524 14.345 11.4524L14.0723 11.5363C13.9224 11.5724 13.7635 11.527 13.6497 11.6303C13.4804 11.6435 13.4679 11.8287 13.4255 11.9484Z" fill="white"/>
<path fill-rule="evenodd" clip-rule="evenodd" d="M13.5974 10.6114L13.6595 10.6409C13.7926 10.5792 13.9254 10.5077 14.0651 10.4557C14.2818 10.3943 14.4507 10.6409 14.6331 10.4848C14.7007 10.4366 14.7596 10.5077 14.8109 10.5469C14.89 10.6895 15.071 10.6797 15.2076 10.7182C15.1393 10.5337 15.0547 10.2806 14.8179 10.2511C14.7239 10.2091 14.6133 10.2126 14.5228 10.1571C14.2728 9.88135 14.1109 10.3846 13.8373 10.2615C13.7406 10.368 13.6203 10.4692 13.5974 10.6114Z" fill="white"/>
<path fill-rule="evenodd" clip-rule="evenodd" d="M13.6594 12.1922C13.763 12.28 13.87 12.4295 14.0325 12.4097C14.233 12.5037 14.1489 12.77 14.2587 12.9098L14.3754 12.8058L14.3657 12.7988L14.382 12.7829L14.3889 12.7919C14.4211 12.6951 14.3757 12.5231 14.3203 12.409C14.2462 12.3573 14.1589 12.4125 14.0872 12.3636C14.0775 12.2592 14.0127 12.2078 13.9383 12.1433C13.8863 12.1038 13.8181 12.1558 13.7595 12.1523L13.6594 12.1922Z" fill="white"/>
<path fill-rule="evenodd" clip-rule="evenodd" d="M5.86377 8.23558C5.97053 8.41385 6.17815 8.52449 6.34384 8.64761C6.4804 8.70935 6.65822 8.72565 6.80449 8.6927C6.6648 8.57929 6.53794 8.44923 6.42182 8.31327C6.37607 8.24807 6.36636 8.16656 6.30501 8.10864C6.1525 8.13812 5.98023 8.13465 5.86377 8.23558Z" fill="white"/>
<path fill-rule="evenodd" clip-rule="evenodd" d="M6.04272 7.07388C6.19167 7.25874 6.42201 7.18417 6.63261 7.19076V7.16787L6.3084 6.89526C6.21764 6.92405 6.12066 7.00521 6.04272 7.07388Z" fill="white"/>
<path fill-rule="evenodd" clip-rule="evenodd" d="M0.0654297 4.01303L0.253685 4.59743C0.250212 4.26621 0.403733 3.98979 0.371084 3.65268L0.510366 3.44458L0.214437 3.5358C0.136634 3.68493 0.0716817 3.83441 0.0654297 4.01303Z" fill="white"/>
<path fill-rule="evenodd" clip-rule="evenodd" d="M0.192139 3.0002L0.448644 2.85107V2.47095C0.340697 2.5358 0.282732 2.64679 0.198388 2.73349L0.192139 3.0002Z" fill="white"/>
<path fill-rule="evenodd" clip-rule="evenodd" d="M5.45841 3.59071C5.39666 3.67152 5.30263 3.69163 5.22457 3.70724C5.36127 3.45787 5.42615 3.11035 5.31894 2.82769C5.39007 2.80202 5.46813 2.78885 5.53613 2.75L5.52954 2.74306L5.70822 2.58734C5.94519 2.42502 5.85394 2.11704 5.94172 1.8864C5.82515 1.70501 5.78941 1.48409 5.62044 1.33148L5.63015 1.32489C5.49692 1.15599 5.25683 1.17576 5.07503 1.09148C4.83424 1.01032 4.64932 1.17576 4.47688 1.28605C4.40229 1.29923 4.44808 1.39634 4.3669 1.39287C4.32144 1.51287 4.26593 1.64293 4.23331 1.77611C3.91203 1.73068 3.56473 1.7664 3.30834 1.94814C3.17129 1.84721 3.00648 1.82814 2.84723 1.7827C2.73031 1.75947 2.59742 1.80178 2.51311 1.73692C2.38995 1.59785 2.36323 1.34432 2.15193 1.30894C2.07734 1.28258 2.06173 1.20142 2.06173 1.12998C1.9219 1.10674 1.79804 1.04223 1.66238 1.0131C1.45455 0.91876 1.28906 1.06859 1.13328 1.16882C1.06458 1.19761 0.986862 1.20767 0.921981 1.24651C0.805404 1.42859 0.695419 1.61345 0.619783 1.81461C0.643029 1.98005 0.714154 2.12571 0.798811 2.26583C0.873406 2.4767 1.10725 2.64248 1.30502 2.72711C1.21099 3.04827 1.21099 3.43082 1.30502 3.75545C1.30502 3.75545 1.29981 3.75996 1.29981 3.75892C1.29981 3.75996 1.28941 3.76863 1.28941 3.76863C1.25887 3.76863 1.22487 3.77452 1.19954 3.75892H1.19538C1.24187 4.06898 1.38759 4.34089 1.62352 4.57361C1.70818 4.60274 1.6884 4.70367 1.72379 4.76818C1.74669 4.79766 1.75016 4.85905 1.74045 4.88506C1.23355 4.86911 0.782159 4.9957 0.376222 5.22599C0.272482 5.27801 0.317931 5.42056 0.308216 5.52149C0.594107 5.33281 0.902203 5.19374 1.24326 5.13165C1.38933 5.12264 1.55448 5.08622 1.69465 5.12506L1.71061 5.40495C1.32479 5.60646 0.902204 5.72299 0.571556 6.05421C0.577801 6.15444 0.558371 6.27098 0.587515 6.3556L0.883469 6.1156C1.16901 5.89779 1.46774 5.71293 1.79527 5.59293C1.88339 5.69663 1.97429 5.80762 2.09122 5.87213C2.28898 5.74519 2.50375 5.6512 2.731 5.59293C2.85105 5.52149 3.04291 5.58634 3.12063 5.4438L3.17545 5.1483C3.16643 5.14171 3.15949 5.12853 3.14319 5.13165C2.99087 5.04391 2.88991 4.89165 2.90309 4.71338C2.85105 4.73905 2.79311 4.75569 2.731 4.75812C2.67965 4.74564 2.63039 4.73246 2.60783 4.68009C2.60471 4.61558 2.57175 4.51812 2.63733 4.46991C2.84793 4.33985 3.12098 4.33326 3.38709 4.35268C3.58486 4.37904 3.87075 4.36898 3.93945 4.60274C3.92973 4.67107 3.93598 4.74598 3.86763 4.79107C3.79615 4.82992 3.71531 4.7876 3.65009 4.75812C3.59839 4.91766 3.51061 5.09593 3.33228 5.14795L3.35448 5.33593C3.37669 5.42056 3.38362 5.55998 3.51685 5.5305C3.8253 5.60577 4.09835 5.76461 4.36759 5.93629C4.45884 5.84577 4.52996 5.74172 4.59449 5.64738C5.07572 5.81039 5.49068 6.1704 5.8876 6.50508L5.90321 6.23213C5.52642 5.89745 5.10799 5.66091 4.67256 5.47605C4.68922 5.3883 4.70864 5.30368 4.71211 5.20934C5.22803 5.23882 5.71828 5.39802 6.1433 5.64738L6.13671 5.41397C5.68879 5.17362 5.19855 5.01477 4.6632 5.00853C4.64307 4.9794 4.63682 4.93708 4.64029 4.90795C4.90016 4.86599 5.08474 4.59685 5.14685 4.36239C5.28043 4.21014 5.47195 4.04435 5.4265 3.81753C5.43205 3.79846 5.43864 3.77869 5.44558 3.75892C5.46258 3.70308 5.47715 3.64342 5.45841 3.59071Z" fill="white"/>
<path fill-rule="evenodd" clip-rule="evenodd" d="M5.90942 4.42545L6.17455 4.34083L6.20427 4.19204C6.27859 3.97423 6.11993 3.81192 6.04216 3.63989L5.90942 4.42545Z" fill="white"/>
<path fill-rule="evenodd" clip-rule="evenodd" d="M6.58165 5.45369C6.70843 5.59347 6.83208 5.81717 7.05646 5.74919C7.03979 5.65485 6.98769 5.57682 6.95573 5.49254C6.89738 5.42456 6.87724 5.22964 6.76053 5.29797C6.67265 5.2397 6.65043 5.14224 6.59451 5.06421C6.56915 5.18456 6.58513 5.33369 6.58165 5.45369Z" fill="white"/>
<path fill-rule="evenodd" clip-rule="evenodd" d="M6.62695 6.40447C6.67579 6.47244 6.6893 6.56054 6.7371 6.62227C6.82474 6.68019 6.95463 6.67048 7.06201 6.66112C7.15865 6.63823 7.22065 6.74505 7.31105 6.68366C7.19779 6.61221 7.1299 6.4825 7.02321 6.38782C6.89644 6.28793 6.76031 6.37568 6.62695 6.40447Z" fill="white"/>
<path fill-rule="evenodd" clip-rule="evenodd" d="M6.79936 7.91469C7.02327 8.04752 7.3075 8.17758 7.60628 8.13215C7.63852 8.11619 7.69397 8.11931 7.70021 8.08047C7.51512 8.01527 7.32101 7.83041 7.12691 7.79156C7.0198 7.62613 6.88012 7.83388 6.7439 7.8207C6.74702 7.85919 6.78584 7.88833 6.79936 7.91469Z" fill="white"/>
<path fill-rule="evenodd" clip-rule="evenodd" d="M15.6753 10.7803L15.7243 10.884C15.7736 11.2218 15.9872 11.5329 15.8705 11.9029C15.9681 11.9716 15.9973 12.085 16.0594 12.1759H16.0754C16.1501 11.8939 16.0983 11.6016 16.0594 11.3189C16.0886 11.0626 15.8281 10.9135 15.6753 10.7803Z" fill="white"/>
<path fill-rule="evenodd" clip-rule="evenodd" d="M7.52979 7.45675C7.69812 7.58681 7.96726 7.5993 8.16158 7.53479C8.03862 7.46681 7.90249 7.39155 7.80169 7.30103L7.52979 7.45675Z" fill="white"/>
<path fill-rule="evenodd" clip-rule="evenodd" d="M8.33131 8.45273C8.31534 8.58938 8.40593 8.70279 8.50347 8.77146C8.53922 8.69065 8.59718 8.62163 8.60378 8.53111C8.57462 8.39169 8.49653 8.26475 8.36984 8.17041C8.34762 8.26128 8.32124 8.34903 8.33131 8.45273Z" fill="white"/>
<path fill-rule="evenodd" clip-rule="evenodd" d="M16.5427 9.93358C16.5194 10.0858 16.6886 10.1056 16.7598 10.1899C16.8185 10.2613 16.7209 10.3102 16.7209 10.3782C16.8445 10.5371 16.9164 10.7181 16.9164 10.9297C16.9647 10.732 17.0394 10.5437 17.0658 10.3394C17.0526 10.1961 16.8254 10.226 16.8609 10.0668C16.9262 9.90445 16.848 9.74561 16.8056 9.5989C16.7931 9.5767 16.7633 9.53092 16.7379 9.54445C16.6789 9.67693 16.533 9.77127 16.5427 9.93358Z" fill="white"/>
<path fill-rule="evenodd" clip-rule="evenodd" d="M8.78564 9.1606L8.95457 9.48835C9.0293 9.47864 9.07796 9.40719 9.13635 9.35517C9.18188 9.21886 9.06127 9.13112 9.02617 9.02048C8.99662 8.94244 9.02617 8.83909 8.97056 8.77111C8.92815 8.74475 8.87984 8.70244 8.83118 8.71562L8.78564 9.1606Z" fill="white"/>
<path fill-rule="evenodd" clip-rule="evenodd" d="M17.2043 8.29712C17.3378 8.37828 17.49 8.49481 17.5618 8.63805C17.6752 8.96927 17.8569 9.26719 17.9897 9.5887C18.0385 9.81275 18.0774 10.0129 18.1387 10.2331C18.162 10.2917 18.1488 10.4051 18.24 10.3954C18.2653 10.1488 18.3142 9.91159 18.3176 9.65529C18.2365 9.54812 18.1297 9.50303 18.0288 9.43818V9.41529C18.042 9.36049 18.0878 9.29494 18.1554 9.30534C18.1842 9.27274 18.2722 9.24048 18.2334 9.18187C18.0645 9.01331 18.0743 8.72302 17.8056 8.67065C17.7112 8.63181 17.6887 8.534 17.679 8.44383C17.5521 8.33596 17.3642 8.30059 17.2043 8.29712Z" fill="white"/>
<path fill-rule="evenodd" clip-rule="evenodd" d="M17.3611 10.0565C17.526 10.2088 17.4681 10.4297 17.4549 10.6343C17.4293 10.7578 17.5845 10.6857 17.6333 10.7512C17.7341 10.9003 17.6756 11.1182 17.6403 11.2801C17.7279 11.1466 17.828 11.0301 17.8959 10.8837C17.8931 10.8289 17.9641 10.8025 17.961 10.7342C17.9898 10.6402 17.88 10.6825 17.8342 10.6728C17.7954 10.6631 17.7535 10.6371 17.7667 10.5851C17.8502 10.4228 17.7729 10.2282 17.7404 10.0659C17.7016 9.9327 17.757 9.75409 17.6946 9.63721C17.5907 9.78079 17.2825 9.81305 17.3611 10.0565Z" fill="white"/>
<path fill-rule="evenodd" clip-rule="evenodd" d="M9.46094 7.75229C9.74982 8.04466 9.96042 8.33808 10.2715 8.62074C10.278 8.4938 10.2618 8.37727 10.2555 8.2538C10.2102 8.16605 10.1256 8.10154 10.0539 8.03599C9.82394 8.01379 9.70409 7.70339 9.46094 7.75229Z" fill="white"/>
<path fill-rule="evenodd" clip-rule="evenodd" d="M18.4187 9.29872C18.4257 9.32855 18.4389 9.35422 18.4521 9.383C18.5786 9.5911 18.6992 9.80544 18.7871 10.0291C18.7607 9.78879 18.9234 9.49052 18.7082 9.30531C18.6794 9.22693 18.5824 9.25329 18.5198 9.25953L18.4187 9.29872Z" fill="white"/>
<path fill-rule="evenodd" clip-rule="evenodd" d="M19.1982 11.6695C19.2891 11.7118 19.4059 11.6372 19.4936 11.5852C19.5748 11.5658 19.6427 11.6116 19.7048 11.6535C19.7305 11.7052 19.7048 11.7541 19.7145 11.803C19.909 11.8578 20.1001 11.9296 20.272 12.043L20.3268 11.9879C20.34 11.8484 20.2301 11.7475 20.1257 11.6695C20.0581 11.6306 19.9569 11.6535 19.9087 11.5918C19.9413 11.5398 19.9413 11.4617 19.9378 11.4035C19.8307 11.4035 19.7623 11.3705 19.6753 11.3192C19.6198 11.3029 19.571 11.2571 19.5255 11.3192C19.3636 11.4291 19.3539 11.5918 19.1982 11.6695Z" fill="white"/>
<path fill-rule="evenodd" clip-rule="evenodd" d="M11.2244 7.58526C11.3051 7.56202 11.3897 7.53948 11.4577 7.48087C11.6753 7.28283 11.9897 7.41601 12.2431 7.41289C12.1942 7.32514 12.1256 7.2374 12.0642 7.16283C11.9731 7.12711 11.8888 7.08514 11.7852 7.08514C11.5644 6.95508 11.4157 7.17289 11.2466 7.27971C11.2008 7.36746 11.1786 7.49717 11.2244 7.58526Z" fill="white"/>
<path fill-rule="evenodd" clip-rule="evenodd" d="M11.2302 8.25368C11.2302 8.24362 11.2302 8.23356 11.24 8.23113C11.2698 8.2568 11.2368 8.31923 11.2858 8.33171C11.3701 8.2894 11.4481 8.23113 11.5259 8.17599C11.7434 8.17599 11.8735 7.96477 12.0872 7.96477C12.4449 8.02997 12.7988 8.10177 13.11 8.27622C13.0878 8.06604 12.9053 7.8739 12.7208 7.77991C12.6163 7.74419 12.5351 7.79933 12.4609 7.85795C12.2437 7.9946 12.3572 7.65991 12.2048 7.65332C12.0064 7.71471 11.8017 7.78338 11.581 7.76326C11.4513 7.81251 11.36 7.93217 11.2139 7.91899C11.208 8.02685 11.1921 8.15691 11.2302 8.25368Z" fill="white"/>
<path fill-rule="evenodd" clip-rule="evenodd" d="M11.3799 8.97711C11.4479 9.04924 11.5614 9.03607 11.6592 9.04924L11.9417 8.93826C11.9448 8.88728 11.8574 8.8734 11.8768 8.81514C11.9548 8.72739 12.0614 8.78947 12.1592 8.75375C12.2952 8.73398 12.435 8.59837 12.5714 8.69826C12.5672 8.71491 12.5773 8.7371 12.5644 8.75375C12.5225 8.85433 12.5936 8.91606 12.6717 8.95491C12.8309 8.98404 12.9797 9.1304 13.139 9.06485C13.123 8.93167 13.0877 8.80924 13.055 8.68196C12.9218 8.65941 12.8274 8.54912 12.7043 8.50334C12.6494 8.55537 12.5773 8.59421 12.5093 8.58762C12.2591 8.52901 11.96 8.37328 11.7071 8.53247C11.6162 8.64311 11.4538 8.61051 11.3303 8.65907C11.3376 8.76936 11.3504 8.87687 11.3799 8.97711Z" fill="white"/>
<path fill-rule="evenodd" clip-rule="evenodd" d="M19.6888 10.9069C19.6694 10.962 19.6143 11.0525 19.7151 11.0789C19.9224 11.0851 20.1886 10.978 20.3508 11.1403C20.4059 11.1826 20.3796 11.2704 20.3761 11.3255L20.6486 11.5527C20.6746 11.4157 20.7238 11.2925 20.7273 11.1465C20.7044 11.0425 20.6524 10.9423 20.5616 10.8743C20.3827 10.8743 20.2794 10.6651 20.0874 10.6908C19.9872 10.6686 19.8995 10.7577 19.7987 10.7577C19.754 10.8028 19.7276 10.8583 19.6888 10.9069Z" fill="white"/>
<path fill-rule="evenodd" clip-rule="evenodd" d="M19.7665 9.37613C19.8085 9.46388 19.8577 9.60677 19.9385 9.61614C20.1299 9.53255 20.4093 9.48018 20.6233 9.5714C20.6943 9.58388 20.6943 9.66504 20.6787 9.71706C20.7886 9.78192 20.9218 9.83394 21.0386 9.90504L21.006 9.71013C20.9995 9.49926 20.7339 9.48018 20.7172 9.27209C20.4998 9.20099 20.2564 9.17775 20.0262 9.23324C19.9517 9.30122 19.8442 9.2922 19.754 9.31128C19.7475 9.33729 19.7631 9.35394 19.7665 9.37613Z" fill="white"/>
<path fill-rule="evenodd" clip-rule="evenodd" d="M19.8217 10.4282C19.9482 10.3921 20.0296 10.253 20.1659 10.2399C20.3731 10.2433 20.5582 10.328 20.6882 10.5069C20.7659 10.5579 20.7496 10.6911 20.8504 10.6911C20.8206 10.5322 20.8726 10.3866 20.866 10.2236C20.7305 9.99673 20.3929 10.1722 20.2664 9.90552L20.0265 9.92182C19.8543 9.96448 19.9 10.1656 19.8775 10.3023C19.8577 10.3439 19.8189 10.3765 19.8217 10.4282Z" fill="white"/>
<path fill-rule="evenodd" clip-rule="evenodd" d="M21.0139 11.8481C21.1143 12.0493 21.3359 12.2019 21.3581 12.4322C21.4099 12.3708 21.446 12.2994 21.4814 12.231C21.478 12.1662 21.4033 12.1662 21.3744 12.1142C21.3446 12.0299 21.3901 11.9553 21.4033 11.8804C21.3609 11.7604 21.2598 11.647 21.1466 11.5752L21.0139 11.8481Z" fill="white"/>
<path fill-rule="evenodd" clip-rule="evenodd" d="M21.4133 11.335L21.646 11.6534C21.7459 11.4946 21.7459 11.2604 21.7071 11.069C21.685 11.0329 21.6425 10.9747 21.5848 11.001C21.4973 11.0915 21.4842 11.2313 21.4133 11.335Z" fill="white"/>
<path fill-rule="evenodd" clip-rule="evenodd" d="M12.2598 2.45086C12.344 2.49317 12.4251 2.53202 12.5263 2.53861C12.5939 2.50288 12.6819 2.47652 12.7662 2.49976C12.8861 2.5778 13.032 2.48346 13.1717 2.49005C13.0483 2.37317 12.9083 2.30138 12.7662 2.2334C12.5842 2.2719 12.4386 2.40196 12.2598 2.45086Z" fill="white"/>
<path fill-rule="evenodd" clip-rule="evenodd" d="M13.5293 2.75552C13.7011 2.77182 13.8248 2.92443 13.9408 3.05102C14.0866 3.07322 14.1968 3.17761 14.284 3.28443L14.2297 3.11275C14.1909 2.94038 14.0832 2.8072 13.9734 2.6709C13.8178 2.68096 13.6651 2.69448 13.5293 2.75552Z" fill="white"/>
<path fill-rule="evenodd" clip-rule="evenodd" d="M1.41236 1.33179L1.50667 1.34184C1.75908 1.46844 2.16785 1.53329 2.19143 1.89989C1.93451 2.00081 1.688 2.13677 1.48344 2.34452C1.32811 2.18567 1.01329 2.27307 0.960938 1.99422C1.01017 1.73064 1.10379 1.39942 1.41236 1.33179Z" fill="#FF6600"/>
<path fill-rule="evenodd" clip-rule="evenodd" d="M1.65655 2.97808C1.95195 2.95172 2.2373 2.99368 2.54241 2.96802C2.61661 3.00027 2.69427 3.06478 2.73033 3.1397C2.72028 3.49034 2.61349 3.82502 2.59754 4.18503C2.4644 4.23983 2.33438 4.35081 2.30179 4.49648C2.18183 4.5322 2.07435 4.6033 1.9575 4.65845C1.90654 4.5485 1.91555 4.38272 2.00674 4.2915C2.13329 4.11324 2.46128 4.15486 2.43528 3.87254C2.51953 3.73658 2.43874 3.56109 2.44117 3.41854C2.40893 3.31103 2.37634 3.45427 2.32467 3.4508C2.22101 3.473 2.11422 3.47959 2.02303 3.42756C1.95473 3.35612 1.87117 3.2975 1.85106 3.20074C1.75988 3.1553 1.65343 3.0842 1.60767 2.98987L1.65655 2.97808Z" fill="#FF6600"/>
<path fill-rule="evenodd" clip-rule="evenodd" d="M2.01362 5.09328C2.15265 5.1134 2.29968 5.05097 2.41994 5.11964C2.39457 5.16542 2.32575 5.1845 2.27048 5.19768L2.05221 5.29791C1.97122 5.27884 2.01675 5.14878 2.01362 5.09328Z" fill="#FF6600"/>
<path fill-rule="evenodd" clip-rule="evenodd" d="M2.58122 2.38348C2.72012 2.33805 2.86976 2.24441 3.0187 2.28915C2.91201 2.39666 2.82785 2.53574 2.74679 2.6658L2.30273 2.65609C2.35157 2.53886 2.47454 2.4421 2.58122 2.38348Z" fill="#FF6600"/>
<path fill-rule="evenodd" clip-rule="evenodd" d="M3.88307 2.27684C4.06769 2.24459 4.05764 2.48459 4.22633 2.49361C4.25612 2.53245 4.29838 2.56818 4.28175 2.62679C4.18407 2.66563 4.04171 2.64691 3.93156 2.67222C3.78539 2.59107 3.87995 2.33788 3.64961 2.35419C3.6368 2.33442 3.61116 2.29557 3.64303 2.28274C3.71438 2.25707 3.80894 2.26679 3.88307 2.27684Z" fill="#FF6600"/>
<path fill-rule="evenodd" clip-rule="evenodd" d="M3.76665 3.14591C3.84779 3.03215 3.97122 3.02279 4.08806 3.00024L4.9285 3.01585C4.96421 3.0488 4.89591 3.07793 4.89591 3.11678C4.84425 3.16568 4.76935 3.17886 4.72393 3.22395C4.61368 3.22707 4.62339 3.35713 4.54573 3.41262C4.42542 3.53262 4.24998 3.47713 4.1106 3.45805C4.06206 3.42198 4.00693 3.37343 3.9837 3.31828L3.94487 3.35713C3.99375 3.53921 3.98092 3.74037 4.01698 3.92523L4.21808 4.05841C4.2212 4.35668 4.57173 4.27552 4.72393 4.44131C4.68822 4.54882 4.6168 4.63934 4.53914 4.73021C4.41605 4.61021 4.27598 4.53252 4.12724 4.48015C4.11406 4.3057 3.92268 4.2013 3.81623 4.1139C3.78642 3.79552 3.78018 3.47089 3.72852 3.16256L3.76665 3.14591Z" fill="#FF6600"/>
<path fill-rule="evenodd" clip-rule="evenodd" d="M4.07225 5.14875H4.46266L4.41368 5.35303L4.02293 5.18759C4.0139 5.15534 4.04933 5.14562 4.07225 5.14875Z" fill="#FF6600"/>
<path fill-rule="evenodd" clip-rule="evenodd" d="M4.77318 1.47173L5.06199 1.38086C5.22772 1.45855 5.38305 1.55566 5.5356 1.6663C5.65557 1.88688 5.6365 2.1855 5.58102 2.43209C5.4933 2.5292 5.30192 2.43209 5.23084 2.58781H5.21732C5.11053 2.28295 4.80542 2.00965 4.52319 1.87092C4.56861 1.71485 4.6175 1.56225 4.77318 1.47173Z" fill="#FF6600"/>
</svg>
