<svg viewBox="0 0 59 14" fill="none" xmlns="http://www.w3.org/2000/svg">
<path d="M38.2152 5.09803C37.238 4.17621 36.0581 3.72559 34.6941 3.72559C33.3488 3.72559 32.1689 4.17678 31.1912 5.09803C30.214 5.99984 29.7171 7.25504 29.7171 8.86308C29.7171 10.4711 30.214 11.7252 31.1912 12.647C32.1684 13.5488 33.3488 14 34.6941 14C36.0581 14 37.238 13.5488 38.2152 12.647C39.211 11.7252 39.7079 10.4705 39.7079 8.86308C39.7079 7.25562 39.2105 5.99984 38.2152 5.09803ZM32.8515 10.9212C32.336 10.3922 32.0764 9.70542 32.0764 8.86251C32.0764 8.01961 32.3338 7.33339 32.8515 6.8233C33.0915 6.56894 33.3786 6.36826 33.6953 6.23347C34.012 6.09869 34.3517 6.03262 34.6936 6.03929C35.0384 6.03255 35.381 6.09851 35.7008 6.23322C36.0206 6.36793 36.3111 6.56863 36.5549 6.8233C37.0884 7.33339 37.3481 8.01903 37.3481 8.86251C37.3481 9.70599 37.0906 10.3916 36.5549 10.9212C36.0395 11.4307 35.4123 11.6857 34.6936 11.6857C34.3534 11.6914 34.0155 11.6267 33.6994 11.4955C33.3832 11.3643 33.0951 11.1691 32.8515 10.9212ZM43.1939 13.7249V0.270484H40.8713V13.7249H43.1939ZM50.6901 4.00008V9.3686C50.6901 10.6621 50.0327 11.5199 48.7816 11.5199C47.5092 11.5199 46.8694 10.6633 46.8694 9.3686V4.00008H44.5425V9.78033C44.5425 12.0197 45.8697 13.9994 48.7816 13.9994H48.7997C51.6936 13.9994 53.0186 11.9757 53.0186 9.78033V4.00008H50.6901ZM27.2456 4.00008L24.9231 10.5878L22.6005 4.00008H20.1306L23.8368 13.7255H26.0126L29.7182 4.00008H27.2456ZM20.1416 8.58802C20.1416 7.1767 19.7182 6.01985 18.8883 5.09803C18.0584 4.17621 16.9908 3.72559 15.6817 3.72559C14.3364 3.72559 13.1926 4.21624 12.2526 5.17637C11.3302 6.13765 10.8706 7.35283 10.8706 8.86251C10.8706 10.3722 11.3313 11.608 12.2346 12.5681C13.157 13.5294 14.263 13.9994 15.5716 13.9994C17.5819 13.9994 19.0006 13.0582 19.8655 11.1562L18.1335 10.0971C17.5633 11.2929 16.7323 11.8813 15.6083 11.8813C14.2263 11.8813 13.249 10.94 13.1011 9.45037H20.1411V8.58745L20.1416 8.58802ZM15.6066 5.60755C16.9152 5.60755 17.7824 6.39155 18.0031 7.64676H13.1C13.4512 6.48991 14.4087 5.60755 15.6072 5.60755H15.6066ZM10.8701 13.7249L7.75383 7.92182C9.72525 7.15726 10.7025 5.82428 10.7025 3.88285C10.7047 1.51025 8.93372 0 6.11382 0H0.603271V13.7249H3.03646V8.15685H5.10154L8.08688 13.7255L10.8701 13.7249ZM6.11382 2.27424C7.55171 2.27424 8.27093 2.88212 8.27093 4.07785C8.27093 5.27359 7.55116 5.88146 6.11382 5.88146H3.03646V2.27424H6.11382ZM56.956 13.9994C55.4611 13.9994 54.2489 12.7093 54.2489 11.1173V1.37244H56.5714V4.00351H58.5631V6.00327H56.5714V10.9583C56.5714 11.425 56.9269 11.803 57.3663 11.803H58.5631V13.9994H56.956Z" fill="white"/>
</svg>
