<svg viewBox="0 0 39 16" fill="none" xmlns="http://www.w3.org/2000/svg">
<path d="M2.74083 6.26969C2.74083 5.85314 3.0875 5.69292 3.66167 5.69292C4.485 5.69292 5.525 5.93858 6.34833 6.3765V3.86649C5.44917 3.51402 4.56083 3.37517 3.66167 3.37517C1.4625 3.37517 0 4.50734 0 6.39786C0 9.34579 4.11667 8.87583 4.11667 10.1469C4.11667 10.6382 3.68333 10.7984 3.07667 10.7984C2.1775 10.7984 1.02917 10.4352 0.119167 9.94392V12.486C1.12667 12.9132 2.145 13.0948 3.07667 13.0948C5.33 13.0948 6.87917 11.9947 6.87917 10.0828C6.86833 6.89987 2.74083 7.46595 2.74083 6.26969ZM10.0642 1.23899L7.42083 1.79439L7.41 10.3498C7.41 11.9306 8.6125 13.0948 10.2158 13.0948C11.1042 13.0948 11.7542 12.9346 12.1117 12.7423V10.5741C11.765 10.713 10.0533 11.2043 10.0533 9.6235V5.83178H12.1117V3.55674H10.0533L10.0642 1.23899ZM15.4808 4.34713L15.3075 3.55674H12.9675V12.9025H15.6758V6.56876C16.315 5.74633 17.3983 5.89586 17.7342 6.01335V3.55674C17.3875 3.42857 16.12 3.19359 15.4808 4.34713ZM18.395 3.55674H21.1142V12.9025H18.395V3.55674ZM18.395 2.74499L21.1142 2.16822V0L18.395 0.566088V2.74499ZM26.7692 3.37517C25.7075 3.37517 25.025 3.86649 24.6458 4.20828L24.505 3.54606H22.1217V16L24.83 15.4339L24.8408 12.4112C25.2308 12.6889 25.805 13.0841 26.7583 13.0841C28.6975 13.0841 30.4633 11.5461 30.4633 8.16021C30.4525 5.06275 28.665 3.37517 26.7692 3.37517ZM26.1192 10.7343C25.48 10.7343 25.1008 10.51 24.8408 10.2323L24.83 6.26969C25.1117 5.95995 25.5017 5.74633 26.1192 5.74633C27.105 5.74633 27.7875 6.83578 27.7875 8.23498C27.7875 9.66622 27.1158 10.7343 26.1192 10.7343ZM39 8.26702C39 5.53271 37.6567 3.37517 35.0892 3.37517C32.5108 3.37517 30.9508 5.53271 30.9508 8.24566C30.9508 11.4606 32.7925 13.0841 35.4358 13.0841C36.725 13.0841 37.7 12.7957 38.4367 12.3899V10.2537C37.7 10.6168 36.855 10.8411 35.7825 10.8411C34.7317 10.8411 33.8 10.478 33.6808 9.21762H38.9783C38.9783 9.07877 39 8.52336 39 8.26702ZM33.6483 7.25234C33.6483 6.04539 34.3958 5.54339 35.0783 5.54339C35.7392 5.54339 36.4433 6.04539 36.4433 7.25234H33.6483Z" fill="#6772E5"/>
</svg>
