<svg width="61" height="35" viewBox="0 0 61 35" fill="none" xmlns="http://www.w3.org/2000/svg">
<path d="M18.4642 28.2216L18.3529 28.3183C16.6046 29.9151 14.5814 30.7587 12.4974 30.7587C8.14485 30.7587 4.98746 27.8318 4.98746 23.7947C4.98746 19.7639 8.14485 16.8324 12.4974 16.8324C14.5814 16.8324 16.6046 17.6806 18.3529 19.2836L18.4642 19.3787L21.2632 16.3443L21.1884 16.2632C18.8608 13.7979 16.067 12.5988 12.633 12.5988C9.19036 12.5988 6.03818 13.6389 3.76973 15.5116C1.29949 17.5419 0 20.4048 0 23.7947C0 27.1847 1.29949 30.0538 3.76973 32.0841C6.03818 33.9677 9.19036 35 12.633 35C16.067 35 18.8608 33.7993 21.1884 31.3325L21.2632 31.2576L18.4642 28.2216Z" fill="#004685"/>
<path d="M24.0903 34.5861H29.0342V12.949H24.0903V34.5861Z" fill="#004685"/>
<path d="M48.4039 29.8825C47.0835 30.6029 45.8571 30.9662 44.7542 30.9662C43.1555 30.9662 42.4318 30.2084 42.4318 28.5243V17.043H47.4715V12.9701H42.4318V6.23695L37.587 8.56346V12.9701H33.405V17.043H37.587V29.2556C37.587 32.5816 39.7859 34.8582 43.0703 34.9175C45.2987 34.9565 46.6417 34.3608 47.4558 33.9242L47.508 33.8946L48.6962 29.7219L48.4039 29.8825Z" fill="#004685"/>
<path d="M52.4963 34.5861H57.4473V12.949H52.4963V34.5861Z" fill="#004685"/>
<path d="M60.331 9.15632C55.8132 3.42115 48.312 0 40.6804 0C33.0504 0 25.5475 3.42115 21.0384 9.15632L20.8053 9.45103H26.4939L26.5565 9.39022C30.4271 5.8069 35.4824 3.91389 40.6804 3.91389C45.8783 3.91389 50.9301 5.8069 54.8095 9.39022L54.8721 9.45103H60.5571L60.331 9.15632Z" fill="#EE1C25"/>
</svg>
