<svg width="163" height="24" viewBox="0 0 163 24" fill="none" xmlns="http://www.w3.org/2000/svg">
<path fill-rule="evenodd" clip-rule="evenodd" d="M39.9094 20.2178H32.8113C33.7291 19.4921 33.9807 16.8846 34.3138 12.1737L34.3989 11.0852C34.6505 8.47457 34.732 6.37438 34.732 4.92607C34.732 3.69302 34.5654 2.8966 34.1473 2.60756H42.0817C44.0024 2.60756 47.7623 2.68136 47.7623 6.08533C47.7623 8.40384 45.3384 9.78142 43.0845 10.2888C46.2597 10.5071 48.5986 11.8816 48.5986 14.7106C48.6801 17.7548 45.3384 20.2178 39.9094 20.2178ZM39.6578 11.6664H38.2367L37.9851 14.277C37.9001 15.4363 37.8186 16.3803 37.8186 17.5395C37.8186 17.684 38.4033 18.0469 39.7393 18.0469C42.5778 18.0469 44.417 16.8138 44.417 14.7844C44.502 12.5366 42.2482 11.6664 39.6578 11.6664ZM40.2425 4.70775C39.8243 4.70775 39.3247 4.70775 38.8215 4.78155C38.5699 6.01461 38.4883 7.17386 38.4033 8.55144C38.4033 8.55144 38.3182 9.63997 38.3182 9.56618H38.8179C41.4084 9.56618 43.7472 8.76976 43.7472 6.74029C43.8358 5.57796 42.6664 4.70775 40.2425 4.70775ZM65.3001 20.3623C63.546 20.3623 63.3794 20.2885 62.0435 16.1589L61.5438 14.6368C60.7075 14.9996 59.2049 15.1441 56.8661 15.1441H54.4422L54.024 15.9405C53.6059 16.737 52.603 18.4036 52.603 19.4183C52.603 19.6366 52.603 19.8519 52.688 20.2147H47.8438C49.1798 19.0555 51.0189 16.2296 53.4393 11.734L54.8603 9.12338C56.1148 6.73107 57.5323 4.04971 57.5323 3.68687C57.5323 3.32402 57.4473 3.03498 57.2807 2.67213H61.7068C61.7068 2.67213 62.8762 6.44203 63.8791 9.63075L64.7154 12.3859C66.218 17.0967 67.2208 19.3445 68.3903 20.2147C67.2208 20.2916 65.8033 20.3623 65.3001 20.3623ZM58.9533 6.73722L55.6116 12.8994H60.9591L58.9533 6.73722ZM84.5106 20.9435C83.0081 20.9435 82.675 20.7252 82.1718 20.1471L76.4097 13.333C75.9915 12.7549 75.5734 12.3921 74.9072 12.3921H74.8257L74.7406 13.7696C74.6591 15.5808 74.489 17.0322 74.489 18.1176C74.489 19.2769 74.6556 20.0026 75.0737 20.2916H69.5597C70.396 19.7104 70.6441 17.681 71.1473 12.2475L71.2323 11.159C71.4839 8.54836 71.5654 6.44817 71.5654 4.99987C71.5654 3.76681 71.3989 2.9704 70.9807 2.68136H78.4154C80.9209 2.68136 84.1775 3.0442 84.1775 6.45125C84.1775 9.27713 82.0052 10.7992 79.3333 11.5249C79.5849 11.7432 80.0845 12.2506 80.3361 12.5397L84.4291 17.2505C87.0196 20.2209 87.1861 20.3685 88.104 20.7283C87.0161 20.8697 85.5135 20.9435 84.5106 20.9435ZM77.161 4.78155C76.6578 4.78155 76.073 4.78155 75.5734 4.85535C75.4068 5.58104 75.3218 6.88482 75.1552 8.98501L75.0737 10.2181C75.3253 10.2919 75.7435 10.2919 75.9915 10.2919C78.4969 10.2919 80.2511 8.91429 80.2511 6.95862C80.1696 5.57796 79.0817 4.78155 77.161 4.78155ZM95.2871 20.5807C90.0247 20.5807 87.0196 16.8108 87.0196 12.6811C87.0196 6.88482 90.6944 2.31544 97.626 2.31544C99.7983 2.31544 100.801 2.67829 102.637 2.67829L102.137 7.17079C101.134 5.57489 99.4651 4.56015 97.2928 4.56015C92.9482 4.56015 91.1976 8.61909 91.1976 12.0969C91.1976 15.8667 93.703 17.9669 96.8782 17.9669C98.6324 17.9669 100.22 17.6041 102.807 16.0113C101.719 18.7695 99.295 20.5807 95.2871 20.5807ZM131.033 20.3623C129.278 20.3623 129.197 20.2885 127.776 16.1589L127.276 14.6368C126.44 14.9996 124.937 15.1441 122.599 15.1441H120.093L119.675 15.9405C119.005 17.0998 118.254 18.4774 118.254 19.4183C118.254 19.6366 118.339 19.9257 118.339 20.2147H103.973C104.809 19.4183 105.057 16.8077 105.475 12.1707L105.56 11.0821C105.812 8.40077 105.893 6.3713 105.893 4.923C105.893 3.76374 105.727 2.96733 105.394 2.60448H110.989C110.153 3.11185 109.905 5.93773 109.568 10.6486L109.487 11.7371C109.402 13.4775 109.069 15.2887 109.069 16.9553C109.069 17.7517 109.402 17.97 110.405 17.97C113.828 17.97 114.579 17.8962 116.167 17.0291C117.17 15.507 118.172 13.622 119.257 11.6664L120.678 9.05573C122.014 6.5927 123.35 4.05586 123.35 3.61922C123.35 3.25638 123.268 2.96733 123.098 2.60448H127.524C127.524 2.60448 129.278 8.33005 129.697 9.5631L130.533 12.3183C132.035 17.0291 132.957 19.2769 134.293 20.1471C133.123 20.2916 131.536 20.3623 131.033 20.3623ZM124.686 6.73722L121.429 12.8994H126.692L124.686 6.73722ZM143.73 10.7224C143.312 11.448 142.642 12.3152 142.309 13.0409C141.976 14.3447 141.891 16.0851 141.891 17.97C141.891 18.7664 142.057 19.855 142.475 20.2178H136.961C137.964 19.4214 138.297 14.566 138.297 12.9701C137.546 10.7962 136.543 8.62217 135.041 6.01153C134.038 4.41563 132.953 2.89353 132.202 2.60448C133.456 2.53069 135.041 2.45996 135.795 2.45996C137.131 2.45996 137.549 2.60449 138.386 4.20039C139.722 6.81102 140.64 8.76669 141.224 10.1443C142.56 8.25932 143.563 6.95554 144.818 5.14439C145.069 4.71082 145.402 4.12966 145.402 3.62229C145.402 3.25945 145.321 2.75208 145.151 2.60756H150.58C149.41 2.8228 144.733 9.27405 143.73 10.7224ZM162.104 6.73722C161.268 5.43344 159.432 4.4187 157.426 4.4187C155.672 4.4187 154.17 4.9968 154.17 6.5927C154.17 7.97028 156.09 8.84049 158.096 9.99974C160.268 11.159 162.522 12.6104 162.522 15.1472C162.522 18.4097 158.847 20.5099 154.503 20.5099C152.749 20.5099 150.913 20.2209 148.822 19.569L149.155 15.221C150.158 16.9614 151.994 18.3359 154.751 18.3359C156.838 18.3359 158.511 17.4657 158.511 15.8729C158.511 14.5691 157.256 13.6989 155.672 12.9025C152.33 11.1621 150.243 9.78757 150.243 7.25074C150.243 3.48085 153.833 2.25087 157.678 2.25087C159.85 2.25087 161.271 2.61371 162.607 2.61371L162.104 6.73722Z" fill="#00AEEF"/>
<path fill-rule="evenodd" clip-rule="evenodd" d="M24.7068 5.14439C24.4552 4.63703 24.0371 4.05586 23.2858 3.62229C22.9527 3.40397 22.5345 3.18872 22.1164 3.04113C21.7832 2.96733 21.4466 2.8966 21.032 2.8966H20.9469C20.4437 2.8966 19.5259 2.9704 19.0262 3.62229C18.7746 3.84061 18.6931 4.27418 18.7746 4.63703C18.8597 4.92607 19.1077 5.21819 19.4444 5.28892C19.4444 5.28892 19.5294 5.36272 19.696 5.36272C19.696 5.43652 19.6109 5.58104 19.6109 5.58104C19.3593 5.79936 18.9412 6.15913 17.6903 6.15913H17.6052C16.9354 6.08533 16.4358 5.94081 15.6845 5.28892C15.2663 4.85535 15.0147 4.05586 15.0147 2.82588C15.0147 2.17399 14.9297 1.66662 14.7631 1.23305C14.6781 0.944009 14.345 0.651888 14.0934 0.507365C13.8418 0.362842 13.6752 0.289046 13.2571 0.144523C12.7539 0.0707243 12.2542 0 11.836 0C11.3364 0 10.9997 0.0737996 10.8332 0.289046H10.3335L9.49717 0.362842C8.99396 0.436641 8.66085 0.65189 8.32774 0.870212C8.24269 0.944011 7.90958 1.23305 7.82808 1.5221C7.82808 1.74042 7.91313 1.95567 7.91313 2.02947L7.99818 2.10327C8.16473 1.95874 8.49784 1.88495 8.916 1.88495C9.50072 1.88495 10.337 2.10327 10.5036 2.46303C10.9217 3.0442 10.7552 3.47777 10.7552 3.98514C10.5036 5.36272 9.91887 6.01461 8.66794 6.15913C8.41634 6.23293 8.16827 6.23293 7.99818 6.23293C7.08035 6.23293 6.41059 6.01461 6.07748 5.50724V5.36272C6.07748 5.36272 6.16253 5.36271 6.24404 5.28892C6.57715 5.14439 6.82875 4.92607 6.9138 4.63703C6.99885 4.27418 6.9138 3.91134 6.6622 3.62229C6.16253 3.18872 5.49277 2.8966 4.7415 2.8966C4.24183 2.8966 3.90518 2.9704 3.57207 3.04113C2.5692 3.25945 1.65137 3.98206 0.981611 5.14439C0.481946 6.0146 0.145293 7.02934 0.063787 8.1886C-0.0212623 9.34785 -0.0212623 10.2919 0.063787 11.159C0.148836 12.6073 0.481946 13.4775 0.900105 14.4215C1.31826 15.3625 1.81793 16.2327 2.40264 17.0322C2.5692 17.2505 2.65425 17.4657 2.8208 17.6133L2.90585 17.5395C2.9909 17.4657 3.07241 17.395 3.15745 17.2505C3.49056 17.0322 4.07528 16.3095 4.24183 16.0912C4.40839 15.8729 4.65999 15.5101 4.82655 15.1503L4.9116 15.0058L5.07815 15.0796C5.24471 15.2241 5.32976 15.4424 5.32976 15.6607C5.32976 15.879 5.24471 16.0943 5.07815 16.5309C4.9116 17.0383 4.57494 17.6195 4.24183 18.1976C4.32688 18.2714 4.32688 18.4159 4.24183 18.4159C3.99023 18.7787 3.99023 18.9233 3.99023 19.0678H4.07528C4.16033 19.0678 4.49344 18.994 4.74504 18.7787C4.99665 18.6342 5.66287 18.1268 6.49918 17.1121C7.16895 16.3864 7.5871 15.59 8.08677 14.7198L8.17182 14.5753L8.33837 14.6491L8.58998 14.7936C8.67503 14.9381 8.67503 15.1564 8.67503 15.3717C8.58998 15.9529 8.17536 16.7493 7.92376 17.3304C7.42409 18.3452 6.50273 19.4337 5.83651 20.2301C5.83651 20.3039 5.66995 20.4484 5.5849 20.4484C5.66995 20.5222 5.75146 20.593 5.91801 20.6668L6.16962 20.8851C7.08744 21.537 7.92376 22.0443 9.00814 22.5517C9.84445 22.9853 11.5135 23.711 12.683 24C13.8524 23.7817 15.5215 22.9853 16.3578 22.5517C17.4422 22.0443 18.2785 21.537 19.1963 20.8851L19.4479 20.6668L19.781 20.4484C19.8661 20.3039 19.8661 20.2301 19.8661 20.1594L19.781 20.0856C19.1113 19.3599 18.1935 18.2006 17.6938 17.1859C17.4422 16.6078 17.024 15.8083 16.9425 15.2302C16.8575 15.0119 16.9425 14.7967 17.0276 14.6491L17.1941 14.5045C17.2792 14.4307 17.4457 14.4307 17.4457 14.4307L17.5308 14.5753C18.0304 15.4455 18.5337 16.2419 19.1184 16.9676C19.9547 17.9823 20.6209 18.4897 20.8725 18.6342C21.1241 18.8525 21.3722 18.9233 21.5423 18.9233H21.6273C21.7124 18.8495 21.6273 18.7049 21.3757 18.3421C21.2907 18.2683 21.2907 18.1976 21.2907 18.1238C20.9576 17.5426 20.6209 16.9645 20.4544 16.4571C20.2878 16.0236 20.2027 15.7315 20.2027 15.5869C20.2027 15.3686 20.2878 15.1534 20.4544 15.0058L20.6209 14.932L20.706 15.0765C20.8725 15.4393 21.2092 15.8729 21.3757 16.0912L22.3786 17.1798C22.5451 17.3243 22.6302 17.3981 22.6302 17.4688L22.7152 17.5426C22.8003 17.4688 22.8818 17.3243 23.0484 17.0352L23.1334 16.9614C23.6366 16.2357 24.1363 15.2948 24.5544 14.3508C24.9726 13.4806 25.2242 12.5397 25.3908 11.0883C25.4758 10.2181 25.5573 9.27713 25.3908 8.11787C25.4581 7.02626 25.125 5.94081 24.7068 5.14439Z" fill="#00AEEF"/>
</svg>
