<svg width="101" height="20" viewBox="0 0 101 20" fill="none" xmlns="http://www.w3.org/2000/svg">
<path d="M65.4956 7.2829C63.794 5.96602 61.7394 5.32228 59.3643 5.32228C57.0216 5.32228 54.967 5.96683 53.2643 7.2829C51.5627 8.57119 50.6975 10.3643 50.6975 12.6615C50.6975 14.9587 51.5627 16.7503 53.2643 18.0672C54.966 19.3554 57.0216 20 59.3643 20C61.7394 20 63.794 19.3554 65.4956 18.0672C67.2298 16.7503 68.0949 14.9579 68.0949 12.6615C68.0949 10.3652 67.2288 8.57119 65.4956 7.2829ZM56.1555 15.6017C55.2579 14.846 54.8058 13.8649 54.8058 12.6607C54.8058 11.4566 55.2541 10.4763 56.1555 9.74757C56.5734 9.3842 57.0734 9.09752 57.6249 8.90496C58.1764 8.71241 58.7678 8.61803 59.3633 8.62756C59.9637 8.61793 60.5603 8.71216 61.1172 8.9046C61.6741 9.09705 62.18 9.38376 62.6045 9.74757C63.5336 10.4763 63.9857 11.4558 63.9857 12.6607C63.9857 13.8657 63.5374 14.8452 62.6045 15.6017C61.7069 16.3295 60.6148 16.6939 59.3633 16.6939C58.7709 16.702 58.1825 16.6096 57.632 16.4222C57.0815 16.2347 56.5797 15.9559 56.1555 15.6017ZM74.1653 19.6071V0.386406H70.1209V19.6071H74.1653ZM87.2188 5.7144V13.3837C87.2188 15.2316 86.0742 16.457 83.8956 16.457C81.6797 16.457 80.5656 15.2332 80.5656 13.3837V5.7144H76.5136V13.9719C76.5136 17.171 78.8248 19.9992 83.8956 19.9992H83.927C88.9663 19.9992 91.2736 17.1081 91.2736 13.9719V5.7144H87.2188ZM46.3937 5.7144L42.3493 15.1254L38.305 5.7144H34.0041L40.4579 19.6079H44.2466L50.6994 5.7144H46.3937ZM34.0231 12.2686C34.0231 10.2524 33.2858 8.59979 31.8407 7.2829C30.3956 5.96602 28.5365 5.32228 26.2568 5.32228C23.9142 5.32228 21.9225 6.0232 20.2857 7.39482C18.6794 8.76807 17.8791 10.504 17.8791 12.6607C17.8791 14.8174 18.6813 16.5828 20.2542 17.9544C21.8605 19.3277 23.7863 19.9992 26.0651 19.9992C29.5658 19.9992 32.0362 18.6545 33.5424 15.9374L30.5263 14.4245C29.5333 16.1327 28.0863 16.9733 26.129 16.9733C23.7224 16.9733 22.0207 15.6286 21.7632 13.5005H34.0222V12.2678L34.0231 12.2686ZM26.1261 8.01078C28.4049 8.01078 29.9149 9.13079 30.2993 10.9239H21.7613C22.3727 9.2713 24.0401 8.01078 26.1271 8.01078H26.1261ZM17.8781 19.6071L12.4517 11.3169C15.8846 10.2247 17.5863 8.3204 17.5863 5.54693C17.5901 2.1575 14.5063 0 9.5958 0H0V19.6071H4.23703V11.6526H7.83307L13.0316 19.6079L17.8781 19.6071ZM9.5958 3.24892C12.0997 3.24892 13.3521 4.11731 13.3521 5.8255C13.3521 7.5337 12.0987 8.40209 9.5958 8.40209H4.23703V3.24892H9.5958ZM98.13 19.9992C95.5269 19.9992 93.416 18.1562 93.416 15.8819V1.96062H97.4604V5.7193H100.929V8.5761H97.4604V15.6548C97.4604 16.3214 98.0794 16.8614 98.8444 16.8614H100.929V19.9992H98.13Z" fill="white"/>
</svg>
