<svg width="92" height="19" viewBox="0 0 92 19" fill="none" xmlns="http://www.w3.org/2000/svg">
<path d="M91.9642 8.30539C91.9642 3.42943 88.2425 0 83.0249 0C76.3828 0 71.931 4.40462 71.931 10.6946C71.931 15.6031 75.6883 19 80.9949 19C85.8207 19 89.4178 16.8708 90.8958 13.4739H85.5358C84.8235 14.5304 83.3099 15.1967 81.4579 15.1967C78.6087 15.1967 76.828 13.4739 76.6677 11.0359H91.6615C91.8574 10.1095 91.9642 9.31309 91.9642 8.30539ZM77.0773 7.73653C77.5581 5.49358 79.9443 3.70573 82.829 3.70573C85.3221 3.70573 87.2097 5.36356 87.2097 7.73653H77.0773Z" fill="#2E4369"/>
<path d="M57.5248 18.5612L58.4864 13.8802C61.4246 14.4166 61.8698 12.905 62.6355 9.26433L63.0095 7.46022C64.0779 2.37297 66.2326 -0.162532 72.3939 0.520103L71.4323 5.20103C68.4941 4.66467 67.9777 6.69632 67.3188 9.84944L66.9449 11.6535C65.8765 16.8058 63.6505 19.2438 57.5248 18.5612Z" fill="#2E4369"/>
<path d="M50.3306 18.5774L53.9633 0.438837H58.7535L55.1386 18.5774H50.3306Z" fill="#2E4369"/>
<path d="M22.8895 0.438837H27.5372L29.0509 13.5552L35.141 0.438837H39.7531L41.3735 13.6852L47.25 0.438837H51.8799L43.457 18.5774H38.186L36.4765 6.09495L30.6535 18.5774H25.5606L22.8895 0.438837Z" fill="#2E4369"/>
<path d="M5.52736 5.24979L0.00708008 10.0607H9.39155L10.371 7.96407H5.61639L8.59022 5.24979L6.86291 2.5355H14.9296L7.48617 18.5774H10.2819L18.7048 0.438837H2.42888L5.52736 5.24979Z" fill="#00B9FF"/>
</svg>
