<svg width="53" height="31" viewBox="0 0 53 31" fill="none" xmlns="http://www.w3.org/2000/svg">
<path fill-rule="evenodd" clip-rule="evenodd" d="M0.828613 2.26062H16.8102V0H0.828613V2.26062ZM45.8269 22.3061C43.4867 22.3061 41.8666 20.4127 41.5863 17.9035C42.297 15.7614 43.8729 14.6945 45.7364 14.6945C48.1319 14.6945 49.4837 16.2509 49.4837 18.4632C49.4837 20.8375 47.9437 22.3061 45.8269 22.3061ZM46.4132 12.621C44.0502 12.621 42.3599 13.5832 41.5066 15.0077C41.5066 11.6426 42.8405 8.71108 46.0082 8.71108C48.0224 8.71108 48.8218 9.73076 49.249 11.4019L52.1824 10.8858C51.4923 8.00032 49.4075 6.59764 46.0294 6.59764C41.7845 6.59764 38.6083 9.46465 38.6083 15.8904C38.6083 21.5946 41.2563 24.4138 45.8199 24.4138C49.5904 24.4138 52.4143 22.1492 52.4143 18.4171C52.4143 15.5012 50.6474 12.621 46.4132 12.621ZM13.8134 6.78186V18.7178H13.8122C13.8122 19.7744 13.8401 20.4133 13.8959 21.0277H13.8401C13.5468 20.3241 13.2005 19.7076 12.684 18.9054L4.6599 6.78186H0.992113V24.2296H3.84997V12.2935H3.85138C3.85138 11.2368 3.82334 10.598 3.76768 9.98355H3.82334C4.11658 10.687 4.46286 11.3033 4.97936 12.1053L13.0041 24.2296H16.6337V6.78186H13.8134ZM16.8102 31H0.828613V28.7508H16.8102V31ZM30.2225 18.7178C29.2726 19.5535 27.132 21.062 25.6384 21.9691H34.5989V24.2296H21.4129V22.1654C22.9408 21.2057 26.1142 19.1207 28.1003 17.3734C30.0013 15.701 31.2458 14.1728 31.2458 11.9302C31.2458 9.72366 29.868 8.80594 28.0059 8.80594C26.0966 8.80594 24.5715 9.77642 24.5715 11.8033C24.5715 12.246 24.6272 12.737 24.767 13.3025L21.7716 13.047C21.6321 12.5555 21.576 12.1133 21.576 11.671C21.576 8.96422 23.7334 6.59782 28.1045 6.59782C31.7095 6.59782 34.3757 8.24512 34.3757 11.844C34.3757 15.1173 31.6591 17.472 30.4367 18.5313C30.3589 18.5988 30.2873 18.661 30.2225 18.7178Z" fill="white"/>
</svg>
