<svg width="87" height="26" viewBox="0 0 87 26" fill="none" xmlns="http://www.w3.org/2000/svg">
<path d="M56.2429 0C50.1117 0 44.6326 2.95323 44.6326 8.40955C44.6326 14.6669 54.35 15.0991 54.35 18.2426C54.35 19.5663 52.7178 20.7511 49.93 20.7511C45.9735 20.7511 43.0164 19.0955 43.0164 19.0955L41.7511 24.6015C41.7511 24.6015 45.1576 26 49.6803 26C56.3836 26 61.6583 22.9018 61.6583 17.3521C61.6583 10.7401 51.9004 10.3208 51.9004 7.40304C51.9004 6.36618 53.2404 5.2301 56.0202 5.2301C59.1567 5.2301 61.7157 6.43415 61.7157 6.43415L62.954 1.11626C62.954 1.11626 60.1696 0 56.2429 0ZM0.14846 0.401351L0 1.20405C0 1.20405 2.5794 1.64275 4.90257 2.51785C7.89384 3.52133 8.10693 4.1055 8.61071 5.91992L14.1004 25.5861H21.4593L32.7963 0.401351H25.4542L18.1695 17.5246L15.197 3.01013C14.9243 1.34896 13.5435 0.401351 11.8532 0.401351H0.14846ZM35.7486 0.401351L29.989 25.5861H36.9903L42.7296 0.401351H35.7486ZM74.7971 0.401351C73.1088 0.401351 72.2143 1.24131 71.5579 2.70912L61.3007 25.5861H68.6427L70.0632 21.7733H79.008L79.8717 25.5861H86.35L80.6984 0.401351H74.7971ZM75.752 7.2055L77.9282 16.6561H72.0978L75.752 7.2055Z" fill="#1434CB"/>
</svg>
