<svg width="45" height="30" viewBox="0 0 45 30" fill="none" xmlns="http://www.w3.org/2000/svg">
<path d="M8.72693 29.9343V27.9433C8.72693 27.1817 8.20168 26.683 7.3 26.683C6.84917 26.683 6.35893 26.8144 6.0219 27.2474C5.75927 26.884 5.38285 26.683 4.8182 26.683C4.44178 26.683 4.06535 26.7835 3.76771 27.1469V26.7487H2.97983V29.9343H3.76771V28.1753C3.76771 27.6108 4.10474 27.3441 4.62999 27.3441C5.15524 27.3441 5.41786 27.6418 5.41786 28.1753V29.9343H6.20574V28.1753C6.20574 27.6108 6.58216 27.3441 7.06802 27.3441C7.59327 27.3441 7.85589 27.6418 7.85589 28.1753V29.9343H8.72693ZM20.4137 26.7487H19.1356V25.7861H18.3477V26.7487H17.6343V27.3789H18.3477V28.8402C18.3477 29.5709 18.6848 30 19.5864 30C19.9235 30 20.2999 29.8995 20.5625 29.768L20.3349 29.1688C20.1073 29.3003 19.8447 29.3351 19.6565 29.3351C19.2801 29.3351 19.1312 29.134 19.1312 28.8054V27.3789H20.4093V26.7487H20.4137ZM27.1019 26.6791C26.651 26.6791 26.349 26.8802 26.1608 27.143V26.7448H25.3729V29.9304H26.1608V28.1366C26.1608 27.607 26.4234 27.3054 26.9137 27.3054C27.0625 27.3054 27.2507 27.3402 27.4039 27.3711L27.6315 26.7062C27.4739 26.6791 27.2507 26.6791 27.1019 26.6791ZM16.9952 27.0116C16.6188 26.7796 16.0935 26.6791 15.5289 26.6791C14.6272 26.6791 14.0276 27.0773 14.0276 27.7075C14.0276 28.2371 14.4784 28.5387 15.2663 28.6353L15.6427 28.6701C16.0542 28.7358 16.2818 28.8363 16.2818 29.0026C16.2818 29.2345 15.9797 29.4008 15.4545 29.4008C14.9292 29.4008 14.5134 29.2345 14.2508 29.0683L13.8744 29.5979C14.2858 29.8647 14.8505 29.9961 15.4151 29.9961C16.4656 29.9961 17.0696 29.5631 17.0696 28.9678C17.0696 28.4033 16.5794 28.1057 15.8309 28.0052L15.4545 27.9704C15.1175 27.9356 14.8548 27.8698 14.8548 27.6727C14.8548 27.4407 15.1175 27.3093 15.5333 27.3093C15.9841 27.3093 16.435 27.4755 16.6626 27.576L16.9952 27.0116ZM37.957 26.6791C37.5062 26.6791 37.2042 26.8802 37.016 27.143V26.7448H36.2281V29.9304H37.016V28.1366C37.016 27.607 37.2786 27.3054 37.7688 27.3054C37.9176 27.3054 38.1058 27.3402 38.259 27.3711L38.4866 26.7139C38.3335 26.6791 38.1102 26.6791 37.957 26.6791ZM27.8898 28.3415C27.8898 29.3041 28.6426 30 29.8069 30C30.3322 30 30.7086 29.8995 31.085 29.6366L30.7086 29.0722C30.4066 29.2732 30.1089 29.3698 29.7675 29.3698C29.1285 29.3698 28.6776 28.9716 28.6776 28.3415C28.6776 27.7423 29.1285 27.3441 29.7675 27.3131C30.1046 27.3131 30.4066 27.4137 30.7086 27.6108L31.085 27.0464C30.7086 26.7796 30.3322 26.683 29.8069 26.683C28.6426 26.6791 27.8898 27.3789 27.8898 28.3415ZM35.1776 26.7487H34.3897V27.1469C34.1271 26.8492 33.7507 26.683 33.2604 26.683C32.2449 26.683 31.4571 27.3789 31.4571 28.3415C31.4571 29.3041 32.2449 30 33.2604 30C33.7857 30 34.1621 29.8338 34.3897 29.5361V29.9343H35.1776V26.7487ZM32.2843 28.3415C32.2843 27.7771 32.6958 27.3131 33.3742 27.3131C34.0133 27.3131 34.4641 27.7461 34.4641 28.3415C34.4641 28.9059 34.0133 29.3698 33.3742 29.3698C32.7002 29.3351 32.2843 28.9021 32.2843 28.3415ZM22.8561 26.6791C21.8056 26.6791 21.0528 27.3441 21.0528 28.3376C21.0528 29.3351 21.8056 29.9961 22.8955 29.9961C23.4208 29.9961 23.946 29.8647 24.3618 29.5631L23.9854 29.0644C23.6834 29.2655 23.307 29.3969 22.9349 29.3969C22.4447 29.3969 21.9588 29.1959 21.845 28.6353H24.5107C24.5107 28.5348 24.5107 28.4691 24.5107 28.3686C24.5457 27.3441 23.8672 26.6791 22.8561 26.6791ZM22.8561 27.2783C23.3464 27.2783 23.6834 27.5451 23.7578 28.0399H21.88C21.9544 27.6108 22.2915 27.2783 22.8561 27.2783ZM42.4304 25.4884H41.6425V27.1469C41.3799 26.8492 41.0035 26.683 40.5132 26.683C39.4978 26.683 38.7099 27.3789 38.7099 28.3415C38.7099 29.3041 39.4978 30 40.5132 30C41.0385 30 41.4149 29.8338 41.6425 29.5361V29.9343H42.4304V25.4884ZM39.5371 28.3415C39.5371 27.7771 39.9486 27.3131 40.627 27.3131C41.2661 27.3131 41.7169 27.7461 41.7169 28.3415C41.7169 28.9059 41.2661 29.3698 40.627 29.3698C39.9486 29.3351 39.5371 28.9021 39.5371 28.3415ZM13.1609 26.7487H12.373V27.1469C12.1104 26.8492 11.734 26.683 11.2437 26.683C10.2283 26.683 9.44039 27.3789 9.44039 28.3415C9.44039 29.3041 10.2283 30 11.2437 30C11.769 30 12.1454 29.8338 12.373 29.5361V29.9343H13.1609V26.7487ZM10.2326 28.3415C10.2326 27.7771 10.6441 27.3131 11.3225 27.3131C11.9616 27.3131 12.4124 27.7461 12.4124 28.3415C12.4124 28.9059 11.9616 29.3698 11.3225 29.3698C10.6441 29.3351 10.2326 28.9021 10.2326 28.3415Z" fill="white"/>
<path d="M28.5682 2.55541H16.7326V21.3363H28.5682V2.55541Z" fill="#FF5A00"/>
<path d="M17.5205 11.9459C17.5205 8.13015 19.5514 4.74356 22.6679 2.55541C20.3743 0.962629 17.4811 0 14.3252 0C6.84916 0 0.800049 5.34278 0.800049 11.9459C0.800049 18.549 6.84916 23.8918 14.3252 23.8918C17.4811 23.8918 20.3743 22.9291 22.6679 21.3363C19.5471 19.1791 17.5205 15.7616 17.5205 11.9459Z" fill="#EB001B"/>
<path d="M44.5358 11.9459C44.5358 18.549 38.4866 23.8918 31.0106 23.8918C27.8547 23.8918 24.9615 22.9291 22.6679 21.3363C25.8238 19.1443 27.8153 15.7616 27.8153 11.9459C27.8153 8.13015 25.7844 4.74356 22.6679 2.55541C24.9571 0.962629 27.8504 0 31.0062 0C38.4866 0 44.5358 5.37758 44.5358 11.9459Z" fill="#F79E1B"/>
</svg>
