<svg width="73" height="46" viewBox="0 0 73 46" fill="none" xmlns="http://www.w3.org/2000/svg">
<path d="M12.0661 15.9993L4.97857 29.9849H13.4633L14.5152 27.755H16.9195L17.9713 29.9849H27.3107V28.283L28.1428 29.9849H32.9739L33.8061 28.247V29.9849H53.2293L55.5911 27.8129L57.8025 29.9849L67.7787 30.0029L60.6688 23.0311L67.7787 15.9993H57.9572L55.6582 18.1312L53.5164 15.9993H32.3864L30.572 19.6091L28.715 15.9993H20.248V17.6433L19.3061 15.9993H12.0661ZM13.7078 17.9853H17.8437L22.5448 27.469V17.9853H27.0755L30.7066 24.785L34.053 17.9853H38.5611V28.0208H35.818L35.7956 20.1571L31.7966 28.0208H29.3428L25.3213 20.1571V28.0208H19.6783L18.6085 25.771H12.8286L11.761 28.0189H8.73757L13.7078 17.9853ZM41.0707 17.9853H52.2244L55.6358 21.2711L59.1572 17.9853H62.5686L57.3853 23.0292L62.5686 28.0149H59.0025L55.5911 24.6909L52.0517 28.0149H41.0707V17.9853ZM15.7198 19.6833L13.8156 23.6912H17.6218L15.7198 19.6833ZM43.825 21.8952H49.9099V23.9371H43.825V25.937H50.6501L53.8214 22.9912L50.7846 20.0614H43.825V21.8952Z" fill="white"/>
</svg>
