<svg width="188" height="27" viewBox="0 0 188 27" fill="none" xmlns="http://www.w3.org/2000/svg">
<path d="M13.3261 21H1.96158V3.16442H5.7854V17.6575H13.3261V21ZM22.121 21.3209C18.1903 21.3209 15.2221 18.6736 15.2221 14.5289C15.2221 10.7853 18.0031 7.7637 21.9071 7.7637C25.7844 7.7637 28.3782 10.6516 28.3782 14.8498V15.652H18.7785C19.0192 17.2297 20.3027 18.5399 22.4954 18.5399C23.5917 18.5399 25.0892 18.0853 25.9181 17.2831L27.4423 19.5293C26.1588 20.7059 24.1265 21.3209 22.121 21.3209ZM25.1159 13.2989C25.009 12.0688 24.1533 10.5447 21.9071 10.5447C19.7947 10.5447 18.8855 12.0154 18.7518 13.2989H25.1159ZM36.6605 26.241C34.4678 26.241 32.7297 25.733 31.0986 24.3158L32.6227 21.8824C33.6656 23.0055 35.0561 23.4601 36.6605 23.4601C38.2916 23.4601 40.2436 22.7648 40.2436 20.1443V18.8875C39.2275 20.1711 37.837 20.893 36.2326 20.893C33.0238 20.893 30.537 18.6469 30.537 14.3417C30.537 10.1168 32.9704 7.7637 36.2326 7.7637C37.7836 7.7637 39.2008 8.40546 40.2436 9.74246V8.08458H43.6396V20.1443C43.6396 25.0377 39.8425 26.241 36.6605 26.241ZM37.329 17.8982C38.4253 17.8982 39.6554 17.2564 40.2436 16.4275V12.2293C39.6554 11.4003 38.4253 10.7853 37.329 10.7853C35.377 10.7853 34.04 12.1223 34.04 14.3417C34.04 16.5612 35.377 17.8982 37.329 17.8982Z" fill="white"/>
<path d="M13.3261 21H1.96158V3.16442H5.7854V17.6575H13.3261V21ZM22.121 21.3209C18.1903 21.3209 15.2221 18.6736 15.2221 14.5289C15.2221 10.7853 18.0031 7.7637 21.9071 7.7637C25.7844 7.7637 28.3782 10.6516 28.3782 14.8498V15.652H18.7785C19.0192 17.2297 20.3027 18.5399 22.4954 18.5399C23.5917 18.5399 25.0892 18.0853 25.9181 17.2831L27.4423 19.5293C26.1588 20.7059 24.1265 21.3209 22.121 21.3209ZM25.1159 13.2989C25.009 12.0688 24.1533 10.5447 21.9071 10.5447C19.7947 10.5447 18.8855 12.0154 18.7518 13.2989H25.1159ZM36.6605 26.241C34.4678 26.241 32.7297 25.733 31.0986 24.3158L32.6227 21.8824C33.6656 23.0055 35.0561 23.4601 36.6605 23.4601C38.2916 23.4601 40.2436 22.7648 40.2436 20.1443V18.8875C39.2275 20.1711 37.837 20.893 36.2326 20.893C33.0238 20.893 30.537 18.6469 30.537 14.3417C30.537 10.1168 32.9704 7.7637 36.2326 7.7637C37.7836 7.7637 39.2008 8.40546 40.2436 9.74246V8.08458H43.6396V20.1443C43.6396 25.0377 39.8425 26.241 36.6605 26.241ZM37.329 17.8982C38.4253 17.8982 39.6554 17.2564 40.2436 16.4275V12.2293C39.6554 11.4003 38.4253 10.7853 37.329 10.7853C35.377 10.7853 34.04 12.1223 34.04 14.3417C34.04 16.5612 35.377 17.8982 37.329 17.8982Z" fill="white"/>
<path d="M109.683 21H105.378L104.255 17.9784H96.6069L95.4838 21H91.1787L98.0509 3.16442H102.811L109.683 21ZM103.212 14.6359L100.431 6.9615L97.6498 14.6359H103.212ZM116.437 21.3209C114.191 21.3209 112.025 20.5722 110.661 19.3154L112.132 16.8553C113.095 17.7645 114.993 18.6469 116.598 18.6469C118.068 18.6469 118.764 18.0853 118.764 17.2831C118.764 15.1707 111.116 16.9088 111.116 11.8282C111.116 9.66224 112.988 7.7637 116.41 7.7637C118.576 7.7637 120.314 8.51242 121.598 9.52854L120.234 11.9351C119.459 11.1329 117.988 10.4377 116.41 10.4377C115.18 10.4377 114.378 10.9725 114.378 11.6945C114.378 13.593 122.053 11.9886 122.053 17.2029C122.053 19.5828 120.02 21.3209 116.437 21.3209ZM129.715 21.3209C127.469 21.3209 125.303 20.5722 123.939 19.3154L125.41 16.8553C126.373 17.7645 128.271 18.6469 129.876 18.6469C131.346 18.6469 132.042 18.0853 132.042 17.2831C132.042 15.1707 124.394 16.9088 124.394 11.8282C124.394 9.66224 126.266 7.7637 129.688 7.7637C131.854 7.7637 133.593 8.51242 134.876 9.52854L133.512 11.9351C132.737 11.1329 131.266 10.4377 129.688 10.4377C128.458 10.4377 127.656 10.9725 127.656 11.6945C127.656 13.593 135.331 11.9886 135.331 17.2029C135.331 19.5828 133.298 21.3209 129.715 21.3209ZM140.025 6.6941C138.929 6.6941 138.02 5.78494 138.02 4.66186C138.02 3.53878 138.929 2.65636 140.025 2.65636C141.148 2.65636 142.057 3.53878 142.057 4.66186C142.057 5.78494 141.148 6.6941 140.025 6.6941ZM141.737 21H138.341V8.08458H141.737V21ZM150.291 21.3209C148.045 21.3209 145.879 20.5722 144.516 19.3154L145.986 16.8553C146.949 17.7645 148.847 18.6469 150.452 18.6469C151.923 18.6469 152.618 18.0853 152.618 17.2831C152.618 15.1707 144.97 16.9088 144.97 11.8282C144.97 9.66224 146.842 7.7637 150.265 7.7637C152.431 7.7637 154.169 8.51242 155.452 9.52854L154.089 11.9351C153.313 11.1329 151.842 10.4377 150.265 10.4377C149.035 10.4377 148.232 10.9725 148.232 11.6945C148.232 13.593 155.907 11.9886 155.907 17.2029C155.907 19.5828 153.875 21.3209 150.291 21.3209ZM163.249 21.3209C160.869 21.3209 159.612 20.0908 159.612 17.7645V11.0527H157.473V8.08458H159.612V4.5549H163.008V8.08458H165.628V11.0527H163.008V16.8553C163.008 17.6842 163.436 18.2993 164.185 18.2993C164.693 18.2993 165.174 18.1121 165.361 17.8982L166.083 20.4919C165.575 20.9465 164.666 21.3209 163.249 21.3209Z" fill="white"/>
<path d="M109.683 21H105.378L104.255 17.9784H96.6069L95.4838 21H91.1787L98.0509 3.16442H102.811L109.683 21ZM103.212 14.6359L100.431 6.9615L97.6498 14.6359H103.212ZM116.437 21.3209C114.191 21.3209 112.025 20.5722 110.661 19.3154L112.132 16.8553C113.095 17.7645 114.993 18.6469 116.598 18.6469C118.068 18.6469 118.764 18.0853 118.764 17.2831C118.764 15.1707 111.116 16.9088 111.116 11.8282C111.116 9.66224 112.988 7.7637 116.41 7.7637C118.576 7.7637 120.314 8.51242 121.598 9.52854L120.234 11.9351C119.459 11.1329 117.988 10.4377 116.41 10.4377C115.18 10.4377 114.378 10.9725 114.378 11.6945C114.378 13.593 122.053 11.9886 122.053 17.2029C122.053 19.5828 120.02 21.3209 116.437 21.3209ZM129.715 21.3209C127.469 21.3209 125.303 20.5722 123.939 19.3154L125.41 16.8553C126.373 17.7645 128.271 18.6469 129.876 18.6469C131.346 18.6469 132.042 18.0853 132.042 17.2831C132.042 15.1707 124.394 16.9088 124.394 11.8282C124.394 9.66224 126.266 7.7637 129.688 7.7637C131.854 7.7637 133.593 8.51242 134.876 9.52854L133.512 11.9351C132.737 11.1329 131.266 10.4377 129.688 10.4377C128.458 10.4377 127.656 10.9725 127.656 11.6945C127.656 13.593 135.331 11.9886 135.331 17.2029C135.331 19.5828 133.298 21.3209 129.715 21.3209ZM140.025 6.6941C138.929 6.6941 138.02 5.78494 138.02 4.66186C138.02 3.53878 138.929 2.65636 140.025 2.65636C141.148 2.65636 142.057 3.53878 142.057 4.66186C142.057 5.78494 141.148 6.6941 140.025 6.6941ZM141.737 21H138.341V8.08458H141.737V21ZM150.291 21.3209C148.045 21.3209 145.879 20.5722 144.516 19.3154L145.986 16.8553C146.949 17.7645 148.847 18.6469 150.452 18.6469C151.923 18.6469 152.618 18.0853 152.618 17.2831C152.618 15.1707 144.97 16.9088 144.97 11.8282C144.97 9.66224 146.842 7.7637 150.265 7.7637C152.431 7.7637 154.169 8.51242 155.452 9.52854L154.089 11.9351C153.313 11.1329 151.842 10.4377 150.265 10.4377C149.035 10.4377 148.232 10.9725 148.232 11.6945C148.232 13.593 155.907 11.9886 155.907 17.2029C155.907 19.5828 153.875 21.3209 150.291 21.3209ZM163.249 21.3209C160.869 21.3209 159.612 20.0908 159.612 17.7645V11.0527H157.473V8.08458H159.612V4.5549H163.008V8.08458H165.628V11.0527H163.008V16.8553C163.008 17.6842 163.436 18.2993 164.185 18.2993C164.693 18.2993 165.174 18.1121 165.361 17.8982L166.083 20.4919C165.575 20.9465 164.666 21.3209 163.249 21.3209Z" fill="white"/>
<mask id="path-3-outside-1_30_4748" maskUnits="userSpaceOnUse" x="49.5498" y="2" width="28" height="20" fill="black">
<rect fill="white" x="49.5498" y="2" width="28" height="20"/>
<path d="M69.9469 21H65.6418L64.5187 17.9784H56.8711L55.748 21H51.4428L58.315 3.16442H63.0747L69.9469 21ZM63.4758 14.6359L60.6949 6.9615L57.9139 14.6359H63.4758ZM75.9258 21H72.1287V3.16442H75.9258V21Z"/>
</mask>
<path d="M69.9469 21V22H71.4039L70.8801 20.6405L69.9469 21ZM65.6418 21L64.7044 21.3484L64.9466 22H65.6418V21ZM64.5187 17.9784L65.4561 17.63L65.2139 16.9784H64.5187V17.9784ZM56.8711 17.9784V16.9784H56.1759L55.9337 17.63L56.8711 17.9784ZM55.748 21V22H56.4431L56.6853 21.3484L55.748 21ZM51.4428 21L50.5097 20.6405L49.9859 22H51.4428V21ZM58.315 3.16442V2.16442H57.6287L57.3819 2.80488L58.315 3.16442ZM63.0747 3.16442L64.0079 2.80488L63.7611 2.16442H63.0747V3.16442ZM63.4758 14.6359V15.6359H64.9018L64.416 14.2952L63.4758 14.6359ZM60.6949 6.9615L61.6351 6.62081L60.6949 4.02629L59.7547 6.62081L60.6949 6.9615ZM57.9139 14.6359L56.9737 14.2952L56.4879 15.6359H57.9139V14.6359ZM69.9469 20H65.6418V22H69.9469V20ZM66.5791 20.6516L65.4561 17.63L63.5814 18.3268L64.7044 21.3484L66.5791 20.6516ZM64.5187 16.9784H56.8711V18.9784H64.5187V16.9784ZM55.9337 17.63L54.8106 20.6516L56.6853 21.3484L57.8084 18.3268L55.9337 17.63ZM55.748 20H51.4428V22H55.748V20ZM52.376 21.3595L59.2482 3.52396L57.3819 2.80488L50.5097 20.6405L52.376 21.3595ZM58.315 4.16442H63.0747V2.16442H58.315V4.16442ZM62.1416 3.52396L69.0138 21.3595L70.8801 20.6405L64.0079 2.80488L62.1416 3.52396ZM64.416 14.2952L61.6351 6.62081L59.7547 7.30219L62.5357 14.9766L64.416 14.2952ZM59.7547 6.62081L56.9737 14.2952L58.8541 14.9766L61.6351 7.30219L59.7547 6.62081ZM57.9139 15.6359H63.4758V13.6359H57.9139V15.6359ZM75.9258 21V22H76.9258V21H75.9258ZM72.1287 21H71.1287V22H72.1287V21ZM72.1287 3.16442V2.16442H71.1287V3.16442H72.1287ZM75.9258 3.16442H76.9258V2.16442H75.9258V3.16442ZM75.9258 20H72.1287V22H75.9258V20ZM73.1287 21V3.16442H71.1287V21H73.1287ZM72.1287 4.16442H75.9258V2.16442H72.1287V4.16442ZM74.9258 3.16442V21H76.9258V3.16442H74.9258Z" fill="white" mask="url(#path-3-outside-1_30_4748)"/>
</svg>
