<svg viewBox="0 0 235 190" fill="none" xmlns="http://www.w3.org/2000/svg">
<path d="M188.522 75.1793L144.248 157.472M188.522 75.1793L128.109 108.941M188.522 75.1793L189.422 67.921L167.931 42.9615M116.431 9.99363L64.7883 39.1395L55.9686 63.8797L41.1606 80.6037L72.1217 154.206M116.431 9.99363L167.931 42.9615M116.431 9.99363L109.295 35.6974L80.617 92.9437M70.6828 162.772L72.1761 154.254M70.6828 162.772L47.913 127.173M70.6828 162.772L110.98 184.591L147.906 166.268L178.769 132.768L183.594 114.229L193.889 74.9249L189.477 67.8725M72.1761 154.254L94.0178 132.435M72.1761 154.254L129.247 145.655L128.109 108.941M94.0178 132.435L120.778 123.664M94.0178 132.435L80.617 92.9437M94.0178 132.435L123.264 139.235L129.193 145.607L144.193 157.472M94.0178 132.435L116.632 133.397M120.778 123.664L128.109 108.941M120.778 123.664L123.318 139.284M128.109 108.941L147.119 64.6338M167.931 42.9615L154.333 28.4809L116.431 10.042L81.0704 25.895L64.7886 39.2362L39.1547 62.2259L33.0467 68.7708L33.3761 70.1246L47.9674 127.221L72.2306 154.303L147.907 166.364M163.613 68.0298L109.241 35.6975L147.065 64.6339L163.613 68.0298ZM163.613 68.0298L188.468 75.1311L193.781 74.9251M55.9688 63.928L109.241 35.7459M55.9688 63.928L36.3557 69.2468M55.9688 63.928L69.0839 61.6721L109.295 35.7457M39.1002 62.1293L36.3557 69.2468M36.3557 69.2468L41.1608 80.652M36.3557 69.2468L32.9923 68.7226M41.1608 80.652L80.5627 92.9438L128.055 108.941M41.1608 80.652L33.8092 69.93L32.9381 68.6743M178.715 132.817L144.193 157.472M144.193 157.472L147.852 166.268M80.617 92.9437L69.0837 61.6237M163.613 68.0782L167.877 42.9616M116.632 133.397L120.778 123.616M116.632 133.397L123.318 139.235" stroke="url(#paint0_linear_564_3324)" stroke-width="0.5" stroke-linecap="round" stroke-linejoin="round"/>
<ellipse cx="2" cy="2.24286" rx="2" ry="2.24286" transform="matrix(0.00294418 0.999996 -0.999997 0.00234111 35.7444 67.1826)" fill="white"/>
<path d="M5.09262 73.0613C4.16548 73.0613 3.44286 72.7955 2.92476 72.2637C2.40665 71.732 2.1476 70.9582 2.1476 69.9425L2.1476 65.842L2.9043 65.842L2.9043 69.9118C2.9043 70.7435 3.09178 71.3639 3.46672 71.7729C3.84167 72.1819 4.38363 72.3864 5.09262 72.3864C5.80842 72.3864 6.3538 72.1819 6.72874 71.7729C7.10369 71.3639 7.29116 70.7435 7.29116 69.9118L7.29116 65.842L8.02742 65.842L8.02742 69.9425C8.02742 70.9582 7.76836 71.732 7.25026 72.2637C6.73897 72.7955 6.01976 73.0613 5.09262 73.0613ZM12.4858 73.0613C11.954 73.0613 11.4427 72.9761 10.9519 72.8057C10.4679 72.6353 10.0929 72.4103 9.82707 72.1308L10.1236 71.5479C10.3827 71.807 10.7269 72.0183 11.1564 72.1819C11.5859 72.3387 12.029 72.4171 12.4858 72.4171C13.1266 72.4171 13.6072 72.3012 13.9276 72.0694C14.248 71.8308 14.4082 71.5241 14.4082 71.1491C14.4082 70.8628 14.3196 70.6344 14.1424 70.464C13.9719 70.2936 13.7606 70.164 13.5084 70.0754C13.2561 69.98 12.905 69.8777 12.4551 69.7686C11.9165 69.6323 11.4871 69.5028 11.1667 69.3801C10.8462 69.2505 10.5701 69.0563 10.3384 68.7972C10.1134 68.5382 10.0009 68.1871 10.0009 67.744C10.0009 67.3826 10.0964 67.0554 10.2872 66.7623C10.4781 66.4623 10.7713 66.2237 11.1667 66.0465C11.562 65.8692 12.0529 65.7806 12.6392 65.7806C13.0482 65.7806 13.447 65.8386 13.8356 65.9544C14.231 66.0635 14.5718 66.2169 14.8582 66.4146L14.6025 67.0179C14.3026 66.8202 13.9821 66.6737 13.6413 66.5782C13.3004 66.476 12.9664 66.4248 12.6392 66.4248C12.012 66.4248 11.5382 66.5475 11.2178 66.793C10.9042 67.0316 10.7474 67.3417 10.7474 67.7235C10.7474 68.0098 10.8326 68.2416 11.003 68.4189C11.1803 68.5893 11.3984 68.7222 11.6575 68.8177C11.9234 68.9063 12.2779 69.0051 12.721 69.1142C13.2459 69.2437 13.6686 69.3733 13.989 69.5028C14.3162 69.6255 14.5923 69.8164 14.8173 70.0754C15.0422 70.3277 15.1547 70.6719 15.1547 71.1082C15.1547 71.4695 15.0559 71.8002 14.8582 72.1001C14.6673 72.3933 14.3707 72.6284 13.9685 72.8057C13.5663 72.9761 13.0721 73.0613 12.4858 73.0613ZM21.4971 71.0878L17.509 71.0878L16.6501 73L15.8627 73L19.1349 65.842L19.8814 65.842L23.1537 73L22.356 73L21.4971 71.0878ZM21.221 70.4742L19.5031 66.6293L17.7851 70.4742L21.221 70.4742Z" fill="white"/>
<path d="M108.84 101.061C107.913 101.061 107.19 100.795 106.672 100.264C106.154 99.732 105.895 98.9582 105.895 97.9425L105.895 93.842L106.651 93.842L106.651 97.9118C106.651 98.7435 106.839 99.3639 107.214 99.7729C107.589 100.182 108.131 100.386 108.84 100.386C109.555 100.386 110.101 100.182 110.476 99.7729C110.851 99.3639 111.038 98.7435 111.038 97.9118L111.038 93.842L111.774 93.842L111.774 97.9425C111.774 98.9582 111.515 99.732 110.997 100.264C110.486 100.795 109.767 101.061 108.84 101.061ZM118.599 99.0878L114.611 99.0878L113.752 101L112.964 101L116.236 93.842L116.983 93.842L120.255 101L119.458 101L118.599 99.0878ZM118.322 98.4742L116.605 94.6293L114.887 98.4742L118.322 98.4742ZM126.706 100.346L126.706 101L121.644 101L121.644 93.842L126.552 93.842L126.552 94.4964L122.401 94.4964L122.401 97.0426L126.102 97.0426L126.102 97.6868L122.401 97.6868L122.401 100.346L126.706 100.346Z" fill="white"/>
<path d="M125.085 10.0613C124.158 10.0613 123.436 9.79547 122.917 9.26373C122.399 8.73199 122.14 7.95824 122.14 6.94249L122.14 2.84196L122.897 2.84196L122.897 6.91181C122.897 7.7435 123.084 8.36387 123.459 8.77289C123.834 9.18192 124.376 9.38644 125.085 9.38644C125.801 9.38644 126.346 9.18192 126.721 8.77289C127.096 8.36387 127.284 7.7435 127.284 6.91181L127.284 2.84196L128.02 2.84196L128.02 6.94249C128.02 7.95824 127.761 8.73199 127.243 9.26373C126.732 9.79547 126.012 10.0613 125.085 10.0613ZM132.724 6.63571L131.262 8.11845L131.262 9.99998L130.505 9.99998L130.505 2.84196L131.262 2.84196L131.262 7.16745L135.464 2.84196L136.334 2.84196L133.235 6.08352L136.548 9.99998L135.648 9.99998L132.724 6.63571Z" fill="white"/>
<path d="M209.98 66.842L209.98 74L209.233 74L209.233 70.6971L204.754 70.6971L204.754 74L203.998 74L203.998 66.842L204.754 66.842L204.754 70.0324L209.233 70.0324L209.233 66.842L209.98 66.842ZM214.566 74.0511C214.048 74.0511 213.581 73.9352 213.165 73.7034C212.749 73.4648 212.422 73.1376 212.183 72.7218C211.944 72.3059 211.825 71.8355 211.825 71.3106C211.825 70.7857 211.944 70.3153 212.183 69.8995C212.422 69.4836 212.749 69.1598 213.165 68.928C213.581 68.6962 214.048 68.5803 214.566 68.5803C215.084 68.5803 215.551 68.6962 215.967 68.928C216.382 69.1598 216.706 69.4836 216.938 69.8995C217.177 70.3153 217.296 70.7857 217.296 71.3106C217.296 71.8355 217.177 72.3059 216.938 72.7218C216.706 73.1376 216.382 73.4648 215.967 73.7034C215.551 73.9352 215.084 74.0511 214.566 74.0511ZM214.566 73.4069C214.947 73.4069 215.288 73.3217 215.588 73.1512C215.895 72.974 216.134 72.7252 216.304 72.4048C216.474 72.0844 216.56 71.7196 216.56 71.3106C216.56 70.9016 216.474 70.5369 216.304 70.2165C216.134 69.8961 215.895 69.6506 215.588 69.4802C215.288 69.303 214.947 69.2143 214.566 69.2143C214.184 69.2143 213.84 69.303 213.533 69.4802C213.233 69.6506 212.994 69.8961 212.817 70.2165C212.647 70.5369 212.561 70.9016 212.561 71.3106C212.561 71.7196 212.647 72.0844 212.817 72.4048C212.994 72.7252 213.233 72.974 213.533 73.1512C213.84 73.3217 214.184 73.4069 214.566 73.4069ZM221.723 68.5803C222.398 68.5803 222.933 68.778 223.329 69.1734C223.731 69.562 223.932 70.1312 223.932 70.8811L223.932 74L223.206 74L223.206 70.9527C223.206 70.3937 223.066 69.9676 222.787 69.6745C222.507 69.3814 222.108 69.2348 221.59 69.2348C221.011 69.2348 220.551 69.4086 220.21 69.7563C219.876 70.0972 219.709 70.571 219.709 71.1777L219.709 74L218.983 74L218.983 68.6212L219.678 68.6212L219.678 69.6131C219.876 69.2859 220.148 69.0337 220.496 68.8564C220.851 68.6724 221.26 68.5803 221.723 68.5803ZM231.108 68.6212L231.108 73.3455C231.108 74.259 230.883 74.9339 230.433 75.3702C229.99 75.8133 229.318 76.0349 228.418 76.0349C227.921 76.0349 227.447 75.9599 226.997 75.8099C226.554 75.6668 226.192 75.4657 225.913 75.2066L226.281 74.6544C226.54 74.8862 226.854 75.0669 227.222 75.1964C227.597 75.3259 227.989 75.3907 228.398 75.3907C229.079 75.3907 229.58 75.2305 229.901 74.9101C230.221 74.5965 230.382 74.1056 230.382 73.4376L230.382 72.7524C230.157 73.0933 229.86 73.3524 229.492 73.5296C229.131 73.7068 228.728 73.7955 228.285 73.7955C227.781 73.7955 227.321 73.6864 226.905 73.4682C226.496 73.2433 226.172 72.9331 225.933 72.5377C225.702 72.1355 225.586 71.6821 225.586 71.1777C225.586 70.6732 225.702 70.2233 225.933 69.8279C226.172 69.4325 226.496 69.1257 226.905 68.9076C227.314 68.6894 227.774 68.5803 228.285 68.5803C228.742 68.5803 229.154 68.6724 229.523 68.8564C229.891 69.0405 230.187 69.3064 230.412 69.654L230.412 68.6212L231.108 68.6212ZM228.357 73.1512C228.745 73.1512 229.096 73.0694 229.41 72.9058C229.724 72.7354 229.966 72.5002 230.136 72.2003C230.313 71.9003 230.402 71.5594 230.402 71.1777C230.402 70.7959 230.313 70.4585 230.136 70.1653C229.966 69.8654 229.724 69.6336 229.41 69.47C229.103 69.2996 228.752 69.2143 228.357 69.2143C227.968 69.2143 227.617 69.2961 227.304 69.4598C226.997 69.6234 226.755 69.8551 226.578 70.1551C226.407 70.4551 226.322 70.7959 226.322 71.1777C226.322 71.5594 226.407 71.9003 226.578 72.2003C226.755 72.5002 226.997 72.7354 227.304 72.9058C227.617 73.0694 227.968 73.1512 228.357 73.1512ZM206.866 80.6357L205.403 82.1184L205.403 84L204.647 84L204.647 76.8419L205.403 76.8419L205.403 81.1674L209.606 76.8419L210.475 76.8419L207.377 80.0835L210.69 84L209.79 84L206.866 80.6357ZM213.917 84.0511C213.398 84.0511 212.931 83.9352 212.516 83.7034C212.1 83.4648 211.773 83.1376 211.534 82.7217C211.295 82.3059 211.176 81.8355 211.176 81.3106C211.176 80.7857 211.295 80.3153 211.534 79.8994C211.773 79.4836 212.1 79.1598 212.516 78.928C212.931 78.6962 213.398 78.5803 213.917 78.5803C214.435 78.5803 214.902 78.6962 215.318 78.928C215.733 79.1598 216.057 79.4836 216.289 79.8994C216.528 80.3153 216.647 80.7857 216.647 81.3106C216.647 81.8355 216.528 82.3059 216.289 82.7217C216.057 83.1376 215.733 83.4648 215.318 83.7034C214.902 83.9352 214.435 84.0511 213.917 84.0511ZM213.917 83.4069C214.298 83.4069 214.639 83.3217 214.939 83.1512C215.246 82.974 215.485 82.7252 215.655 82.4048C215.825 82.0843 215.911 81.7196 215.911 81.3106C215.911 80.9016 215.825 80.5368 215.655 80.2164C215.485 79.896 215.246 79.6506 214.939 79.4802C214.639 79.3029 214.298 79.2143 213.917 79.2143C213.535 79.2143 213.191 79.3029 212.884 79.4802C212.584 79.6506 212.345 79.896 212.168 80.2164C211.998 80.5368 211.912 80.9016 211.912 81.3106C211.912 81.7196 211.998 82.0843 212.168 82.4048C212.345 82.7252 212.584 82.974 212.884 83.1512C213.191 83.3217 213.535 83.4069 213.917 83.4069ZM221.074 78.5803C221.749 78.5803 222.284 78.778 222.68 79.1734C223.082 79.562 223.283 80.1312 223.283 80.8811L223.283 84L222.557 84L222.557 80.9527C222.557 80.3937 222.417 79.9676 222.138 79.6745C221.858 79.3813 221.459 79.2348 220.941 79.2348C220.362 79.2348 219.902 79.4086 219.561 79.7563C219.227 80.0971 219.06 80.5709 219.06 81.1777L219.06 84L218.334 84L218.334 78.6212L219.029 78.6212L219.029 79.6131C219.227 79.2859 219.499 79.0337 219.847 78.8564C220.202 78.6724 220.611 78.5803 221.074 78.5803ZM230.458 78.6212L230.458 83.3455C230.458 84.259 230.233 84.9339 229.784 85.3702C229.34 85.8133 228.669 86.0349 227.769 86.0349C227.271 86.0349 226.798 85.9599 226.348 85.8099C225.905 85.6668 225.543 85.4657 225.264 85.2066L225.632 84.6544C225.891 84.8862 226.205 85.0669 226.573 85.1964C226.948 85.3259 227.34 85.3907 227.749 85.3907C228.43 85.3907 228.931 85.2305 229.252 84.9101C229.572 84.5965 229.732 84.1056 229.732 83.4376L229.732 82.7524C229.507 83.0933 229.211 83.3523 228.843 83.5296C228.481 83.7068 228.079 83.7955 227.636 83.7955C227.132 83.7955 226.671 83.6864 226.256 83.4682C225.847 83.2433 225.523 82.9331 225.284 82.5377C225.052 82.1355 224.937 81.6821 224.937 81.1777C224.937 80.6732 225.052 80.2233 225.284 79.8279C225.523 79.4325 225.847 79.1257 226.256 78.9075C226.665 78.6894 227.125 78.5803 227.636 78.5803C228.093 78.5803 228.505 78.6724 228.873 78.8564C229.242 79.0405 229.538 79.3064 229.763 79.654L229.763 78.6212L230.458 78.6212ZM227.708 83.1512C228.096 83.1512 228.447 83.0694 228.761 82.9058C229.075 82.7354 229.317 82.5002 229.487 82.2002C229.664 81.9003 229.753 81.5594 229.753 81.1777C229.753 80.7959 229.664 80.4585 229.487 80.1653C229.317 79.8654 229.075 79.6336 228.761 79.47C228.454 79.2995 228.103 79.2143 227.708 79.2143C227.319 79.2143 226.968 79.2961 226.654 79.4597C226.348 79.6233 226.106 79.8551 225.928 80.1551C225.758 80.455 225.673 80.7959 225.673 81.1777C225.673 81.5594 225.758 81.9003 225.928 82.2002C226.106 82.5002 226.348 82.7354 226.654 82.9058C226.968 83.0694 227.319 83.1512 227.708 83.1512Z" fill="white"/>
<path d="M46.7968 187.061C46.265 187.061 45.7538 186.976 45.2629 186.806C44.7789 186.635 44.404 186.41 44.1381 186.131L44.4346 185.548C44.6937 185.807 45.038 186.018 45.4674 186.182C45.8969 186.339 46.34 186.417 46.7968 186.417C47.4376 186.417 47.9182 186.301 48.2386 186.069C48.559 185.831 48.7192 185.524 48.7192 185.149C48.7192 184.863 48.6306 184.634 48.4534 184.464C48.2829 184.294 48.0716 184.164 47.8194 184.075C47.5671 183.98 47.216 183.878 46.7661 183.769C46.2275 183.632 45.7981 183.503 45.4777 183.38C45.1573 183.251 44.8812 183.056 44.6494 182.797C44.4244 182.538 44.3119 182.187 44.3119 181.744C44.3119 181.383 44.4074 181.055 44.5982 180.762C44.7891 180.462 45.0823 180.224 45.4777 180.046C45.8731 179.869 46.3639 179.781 46.9502 179.781C47.3592 179.781 47.758 179.839 48.1466 179.954C48.542 180.064 48.8828 180.217 49.1692 180.415L48.9135 181.018C48.6136 180.82 48.2932 180.674 47.9523 180.578C47.6114 180.476 47.2774 180.425 46.9502 180.425C46.323 180.425 45.8492 180.548 45.5288 180.793C45.2152 181.032 45.0584 181.342 45.0584 181.724C45.0584 182.01 45.1436 182.242 45.314 182.419C45.4913 182.589 45.7094 182.722 45.9685 182.818C46.2344 182.906 46.5889 183.005 47.032 183.114C47.5569 183.244 47.9796 183.373 48.3 183.503C48.6272 183.625 48.9033 183.816 49.1283 184.075C49.3532 184.328 49.4657 184.672 49.4657 185.108C49.4657 185.47 49.3669 185.8 49.1692 186.1C48.9783 186.393 48.6817 186.628 48.2795 186.806C47.8773 186.976 47.3831 187.061 46.7968 187.061ZM51.1656 181.621L51.8916 181.621L51.8916 187L51.1656 187L51.1656 181.621ZM51.5337 180.445C51.3837 180.445 51.2576 180.394 51.1554 180.292C51.0531 180.19 51.002 180.067 51.002 179.924C51.002 179.787 51.0531 179.668 51.1554 179.566C51.2576 179.464 51.3837 179.412 51.5337 179.412C51.6837 179.412 51.8098 179.464 51.9121 179.566C52.0143 179.661 52.0655 179.777 52.0655 179.914C52.0655 180.064 52.0143 180.19 51.9121 180.292C51.8098 180.394 51.6837 180.445 51.5337 180.445ZM56.8568 181.58C57.5317 181.58 58.0668 181.778 58.4622 182.173C58.8644 182.562 59.0656 183.131 59.0656 183.881L59.0656 187L58.3395 187L58.3395 183.953C58.3395 183.394 58.1998 182.968 57.9203 182.674C57.6408 182.381 57.242 182.235 56.7239 182.235C56.1444 182.235 55.6842 182.409 55.3434 182.756C55.0093 183.097 54.8423 183.571 54.8423 184.178L54.8423 187L54.1163 187L54.1163 181.621L54.8116 181.621L54.8116 182.613C55.0093 182.286 55.282 182.034 55.6297 181.856C55.9842 181.672 56.3932 181.58 56.8568 181.58ZM66.2411 181.621L66.2411 186.346C66.2411 187.259 66.0161 187.934 65.5662 188.37C65.1231 188.813 64.4516 189.035 63.5517 189.035C63.0541 189.035 62.5803 188.96 62.1303 188.81C61.6872 188.667 61.3259 188.466 61.0464 188.207L61.4145 187.654C61.6736 187.886 61.9872 188.067 62.3553 188.196C62.7302 188.326 63.1222 188.391 63.5313 188.391C64.213 188.391 64.714 188.23 65.0345 187.91C65.3549 187.596 65.5151 187.106 65.5151 186.438L65.5151 185.752C65.2901 186.093 64.9935 186.352 64.6254 186.53C64.2641 186.707 63.8619 186.795 63.4188 186.795C62.9143 186.795 62.4541 186.686 62.0383 186.468C61.6293 186.243 61.3055 185.933 61.0669 185.538C60.8351 185.135 60.7192 184.682 60.7192 184.178C60.7192 183.673 60.8351 183.223 61.0669 182.828C61.3055 182.432 61.6293 182.126 62.0383 181.908C62.4473 181.689 62.9075 181.58 63.4188 181.58C63.8755 181.58 64.288 181.672 64.6561 181.856C65.0242 182.04 65.3208 182.306 65.5457 182.654L65.5457 181.621L66.2411 181.621ZM63.4904 186.151C63.8789 186.151 64.23 186.069 64.5436 185.906C64.8572 185.735 65.0992 185.5 65.2696 185.2C65.4469 184.9 65.5355 184.559 65.5355 184.178C65.5355 183.796 65.4469 183.458 65.2696 183.165C65.0992 182.865 64.8572 182.634 64.5436 182.47C64.2368 182.3 63.8858 182.214 63.4904 182.214C63.1018 182.214 62.7507 182.296 62.4371 182.46C62.1303 182.623 61.8883 182.855 61.7111 183.155C61.5406 183.455 61.4554 183.796 61.4554 184.178C61.4554 184.559 61.5406 184.9 61.7111 185.2C61.8883 185.5 62.1303 185.735 62.4371 185.906C62.7507 186.069 63.1018 186.151 63.4904 186.151ZM70.3574 181.58C71.0596 181.58 71.5982 181.758 71.9731 182.112C72.3481 182.46 72.5355 182.978 72.5355 183.666L72.5355 187L71.8402 187L71.8402 186.161C71.6766 186.441 71.4346 186.659 71.1142 186.816C70.8006 186.973 70.4256 187.051 69.9893 187.051C69.3894 187.051 68.9122 186.908 68.5577 186.622C68.2032 186.335 68.026 185.957 68.026 185.487C68.026 185.03 68.1896 184.662 68.5168 184.382C68.8509 184.103 69.3792 183.963 70.1018 183.963L71.8095 183.963L71.8095 183.636C71.8095 183.172 71.68 182.821 71.4209 182.582C71.1619 182.337 70.7835 182.214 70.2859 182.214C69.945 182.214 69.6178 182.272 69.3042 182.388C68.9906 182.497 68.7213 182.651 68.4964 182.848L68.1691 182.306C68.4418 182.075 68.769 181.897 69.1508 181.775C69.5326 181.645 69.9348 181.58 70.3574 181.58ZM70.1018 186.478C70.5108 186.478 70.8619 186.386 71.1551 186.202C71.4482 186.011 71.6663 185.739 71.8095 185.384L71.8095 184.505L70.1223 184.505C69.2019 184.505 68.7418 184.825 68.7418 185.466C68.7418 185.78 68.8611 186.029 69.0997 186.213C69.3383 186.39 69.6723 186.478 70.1018 186.478ZM77.4832 181.58C77.9877 181.58 78.4444 181.696 78.8535 181.928C79.2625 182.153 79.5829 182.473 79.8147 182.889C80.0465 183.305 80.1624 183.779 80.1624 184.311C80.1624 184.849 80.0465 185.326 79.8147 185.742C79.5829 186.158 79.2625 186.482 78.8535 186.714C78.4513 186.939 77.9945 187.051 77.4832 187.051C77.0469 187.051 76.6515 186.962 76.297 186.785C75.9494 186.601 75.663 186.335 75.4381 185.988L75.4381 188.984L74.712 188.984L74.712 181.621L75.4074 181.621L75.4074 182.685C75.6255 182.33 75.9119 182.058 76.2663 181.867C76.6277 181.676 77.0333 181.58 77.4832 181.58ZM77.4321 186.407C77.807 186.407 78.1479 186.322 78.4547 186.151C78.7614 185.974 79 185.725 79.1705 185.405C79.3477 185.084 79.4363 184.72 79.4363 184.311C79.4363 183.902 79.3477 183.54 79.1705 183.227C79 182.906 78.7614 182.657 78.4547 182.48C78.1479 182.303 77.807 182.214 77.4321 182.214C77.0503 182.214 76.7061 182.303 76.3993 182.48C76.0993 182.657 75.8607 182.906 75.6835 183.227C75.5131 183.54 75.4278 183.902 75.4278 184.311C75.4278 184.72 75.5131 185.084 75.6835 185.405C75.8607 185.725 76.0993 185.974 76.3993 186.151C76.7061 186.322 77.0503 186.407 77.4321 186.407ZM84.0454 187.051C83.5273 187.051 83.0604 186.935 82.6445 186.703C82.2287 186.465 81.9014 186.138 81.6628 185.722C81.4242 185.306 81.3049 184.836 81.3049 184.311C81.3049 183.786 81.4242 183.315 81.6628 182.899C81.9014 182.484 82.2287 182.16 82.6445 181.928C83.0604 181.696 83.5273 181.58 84.0454 181.58C84.5636 181.58 85.0305 181.696 85.4464 181.928C85.8622 182.16 86.186 182.484 86.4178 182.899C86.6564 183.315 86.7757 183.786 86.7757 184.311C86.7757 184.836 86.6564 185.306 86.4178 185.722C86.186 186.138 85.8622 186.465 85.4464 186.703C85.0305 186.935 84.5636 187.051 84.0454 187.051ZM84.0454 186.407C84.4272 186.407 84.7681 186.322 85.068 186.151C85.3748 185.974 85.6134 185.725 85.7838 185.405C85.9543 185.084 86.0395 184.72 86.0395 184.311C86.0395 183.902 85.9543 183.537 85.7838 183.216C85.6134 182.896 85.3748 182.651 85.068 182.48C84.7681 182.303 84.4272 182.214 84.0454 182.214C83.6637 182.214 83.3194 182.303 83.0126 182.48C82.7127 182.651 82.4741 182.896 82.2968 183.216C82.1264 183.537 82.0412 183.902 82.0412 184.311C82.0412 184.72 82.1264 185.084 82.2968 185.405C82.4741 185.725 82.7127 185.974 83.0126 186.151C83.3194 186.322 83.6637 186.407 84.0454 186.407ZM89.1579 182.674C89.3283 182.313 89.5805 182.04 89.9146 181.856C90.2554 181.672 90.6747 181.58 91.1723 181.58L91.1723 182.286L90.9985 182.276C90.4327 182.276 89.9896 182.45 89.6691 182.797C89.3487 183.145 89.1885 183.632 89.1885 184.259L89.1885 187L88.4625 187L88.4625 181.621L89.1579 181.621L89.1579 182.674ZM97.3249 184.536L92.8256 184.536C92.8665 185.095 93.0812 185.548 93.4698 185.896C93.8584 186.236 94.3492 186.407 94.9423 186.407C95.2763 186.407 95.5831 186.349 95.8626 186.233C96.1421 186.11 96.3841 185.933 96.5886 185.701L96.9977 186.172C96.7591 186.458 96.4591 186.676 96.0978 186.826C95.7433 186.976 95.3513 187.051 94.9218 187.051C94.3696 187.051 93.8788 186.935 93.4493 186.703C93.0267 186.465 92.696 186.138 92.4574 185.722C92.2188 185.306 92.0995 184.836 92.0995 184.311C92.0995 183.786 92.212 183.315 92.437 182.899C92.6688 182.484 92.9823 182.16 93.3777 181.928C93.78 181.696 94.2299 181.58 94.7275 181.58C95.2252 181.58 95.6717 181.696 96.0671 181.928C96.4625 182.16 96.7727 182.484 96.9977 182.899C97.2226 183.308 97.3351 183.779 97.3351 184.311L97.3249 184.536ZM94.7275 182.204C94.2094 182.204 93.7731 182.371 93.4186 182.705C93.071 183.032 92.8733 183.462 92.8256 183.994L96.6398 183.994C96.592 183.462 96.3909 183.032 96.0364 182.705C95.6888 182.371 95.2525 182.204 94.7275 182.204Z" fill="white"/>
<ellipse cx="2" cy="2.24286" rx="2" ry="2.24286" transform="matrix(0.00294418 0.999996 -0.999997 0.00234111 118.556 19.9885)" fill="white"/>
<ellipse cx="2" cy="2.24286" rx="2" ry="2.24286" transform="matrix(0.00294418 0.999996 -0.999997 0.00234111 196.126 72.8071)" fill="white"/>
<ellipse cx="2" cy="2.24286" rx="2" ry="2.24286" transform="matrix(0.00294418 0.999996 -0.999997 0.00234111 113.464 183.001)" fill="white"/>
<ellipse cx="2" cy="2.24286" rx="2" ry="2.24286" transform="matrix(0.00294418 0.999996 -0.999997 0.00234111 130.062 106.962)" fill="white"/>
<defs>
<linearGradient id="paint0_linear_564_3324" x1="33.2799" y1="184.773" x2="202.754" y2="175.51" gradientUnits="userSpaceOnUse">
<stop stop-color="#0071E3"/>
<stop offset="1" stop-color="#03B5AA"/>
</linearGradient>
</defs>
</svg>
