<svg viewBox="0 0 15 12" fill="none" xmlns="http://www.w3.org/2000/svg">
<path d="M14.6869 1.85088C14.5087 1.12674 14.0154 0.558818 13.3801 0.358057C12.2102 1.71175e-05 7.50716 1.7204e-05 7.50716 1.7204e-05C7.50716 1.7204e-05 2.81307 -0.00857157 1.63099 0.358057C0.998917 0.559354 0.503296 1.12674 0.326992 1.85088C0.105205 3.22345 -0.00498481 4.61267 0.000173018 6.00833C-0.00217145 7.39486 0.10755 8.78193 0.326992 10.1459C0.503296 10.8701 0.998917 11.438 1.63099 11.642C2.80088 12 7.50716 12 7.50716 12C7.50716 12 12.1984 12 13.3801 11.642C14.0154 11.438 14.5087 10.8706 14.6869 10.1459C14.9021 8.78193 15.0071 7.39486 14.9996 6.00833C15.0071 4.61267 14.9044 3.22345 14.6869 1.85088ZM6.00483 8.57795V3.42743L9.91962 6.00833L6.00483 8.57795Z" fill="white" fill-opacity="0.7"/>
</svg>
