<svg width="34" height="18" viewBox="0 0 34 18" fill="none" xmlns="http://www.w3.org/2000/svg">
<path d="M30.3069 7.38252C30.9689 7.65921 31.56 8.05764 32.0802 8.57731C32.5998 9.09748 32.9983 9.68858 33.275 10.3506C33.5516 11.0132 33.69 11.7215 33.69 12.4761C33.69 13.2307 33.5516 13.9144 33.275 14.5764C32.9983 15.2389 32.5998 15.83 32.0802 16.3497C31.5605 16.8694 30.9689 17.2678 30.3069 17.5445C29.6443 17.8212 28.936 17.9595 28.1814 17.9595H17.8685C17.3151 17.9595 16.8412 17.7628 16.4473 17.3684C16.0529 16.9745 15.8562 16.5006 15.8562 15.9473C15.8562 15.3939 16.0529 14.9205 16.4473 14.5261C16.8417 14.1317 17.3151 13.935 17.8685 13.935H28.1814C28.6005 13.935 28.9526 13.7926 29.2378 13.5074C29.5231 13.2221 29.6654 12.8785 29.6654 12.4761C29.6654 12.0736 29.5226 11.7049 29.2378 11.4196C28.9526 11.1349 28.6005 10.992 28.1814 10.992H20.3335C19.5955 10.992 18.8953 10.8537 18.2332 10.577C17.5707 10.3003 16.9796 9.90239 16.4599 9.38222C15.9397 8.86255 15.5418 8.27144 15.2651 7.6089C14.9884 6.94686 14.8501 6.24659 14.8501 5.50859C14.8501 4.77059 14.9884 4.0497 15.2651 3.39571C15.5418 2.74172 15.9397 2.14659 16.4599 1.60982C16.9796 1.09015 17.5707 0.691718 18.2332 0.415031C18.8953 0.138344 19.5955 0 20.3335 0H30.6716C31.225 0 31.6983 0.197203 32.0927 0.591105C32.4867 0.98551 32.6839 1.4589 32.6839 2.01227C32.6839 2.56565 32.4867 3.06067 32.0927 3.44602C31.6983 3.83187 31.225 4.02454 30.6716 4.02454H20.3335C19.9311 4.02454 19.587 4.17144 19.3022 4.46473C19.017 4.75852 18.8746 5.10614 18.8746 5.50859C18.8746 5.91105 19.017 6.25515 19.3022 6.53988C19.587 6.82512 19.9311 6.96749 20.3335 6.96749H28.1814C28.936 6.96749 29.6443 7.10583 30.3069 7.38252Z" fill="url(#paint0_linear_3_2840)"/>
<path d="M17.2316 1.60982C17.7513 2.12999 18.1497 2.72109 18.4264 3.38313C18.7031 4.04567 18.8414 4.74594 18.8414 5.48344C18.8414 6.80852 18.4304 7.97363 17.6089 8.97976C18.0113 9.46623 18.3172 10.007 18.527 10.6022C18.7363 11.1978 18.8414 11.814 18.8414 12.4509V12.4761C18.8414 13.2141 18.7031 13.9144 18.4264 14.5764C18.1497 15.2389 17.7513 15.83 17.2316 16.3497C16.7119 16.8694 16.1203 17.2678 15.4583 17.5445C14.7957 17.8212 14.0955 17.9595 13.358 17.9595H2.01378C1.46041 17.9595 0.986516 17.7628 0.592614 17.3684C0.198209 16.9745 0.00150914 16.5006 0.00150914 15.9473C0.00150914 15.3939 0.198209 14.9205 0.592614 14.5261C0.987019 14.1317 1.46041 13.935 2.01378 13.935H13.358C13.7604 13.935 14.104 13.7926 14.3893 13.5074C14.6745 13.2221 14.8169 12.8785 14.8169 12.4761V12.4509C14.8169 12.0485 14.674 11.7049 14.3893 11.4196C14.104 11.1349 13.7604 10.992 13.358 10.992H2.01378C1.46041 10.992 0.986516 10.7953 0.592614 10.4009C0.198209 10.007 0.00150914 9.53314 0.00150914 8.97976C0.00150914 8.42639 0.198209 7.93187 0.592614 7.54602C0.986516 7.16067 1.46041 6.96749 2.01378 6.96749H13.358C13.7604 6.96749 14.104 6.82512 14.3893 6.53988C14.6745 6.25464 14.8169 5.903 14.8169 5.48344C14.8169 5.06388 14.674 4.73739 14.3893 4.45215C14.104 4.16741 13.7604 4.02454 13.358 4.02454H2.01378C1.46041 4.02454 0.986516 3.83187 0.592614 3.44602C0.198209 3.06067 0.00150914 2.58275 0.00150914 2.01227C0.00150914 1.44179 0.198209 0.98551 0.592614 0.591105C0.987019 0.1967 1.46041 0 2.01378 0H13.358C14.0955 0 14.7957 0.138344 15.4583 0.415031C16.1203 0.691718 16.7114 1.09015 17.2316 1.60982Z" fill="white"/>
<path d="M3.04356 8.4777H0.603681C0.270277 8.4777 0 8.74798 0 9.08138V15.9669C0 16.3003 0.270277 16.5706 0.603681 16.5706H3.04356C3.37696 16.5706 3.64724 16.3003 3.64724 15.9669V9.08138C3.64724 8.74798 3.37696 8.4777 3.04356 8.4777Z" fill="white"/>
<defs>
<linearGradient id="paint0_linear_3_2840" x1="14.8501" y1="8.97976" x2="33.69" y2="8.97976" gradientUnits="userSpaceOnUse">
<stop/>
<stop offset="1" stop-color="#29ABE2"/>
</linearGradient>
</defs>
</svg>
