<svg width="46" height="24" viewBox="0 0 46 24" fill="none" xmlns="http://www.w3.org/2000/svg">
<path d="M40.7281 9.66978C41.616 10.0322 42.4088 10.5541 43.1065 11.2347C43.8035 11.9161 44.3379 12.6903 44.709 13.5575C45.0802 14.4253 45.2657 15.353 45.2657 16.3414C45.2657 17.3298 45.0802 18.2253 44.709 19.0925C44.3379 19.9603 43.8035 20.7345 43.1065 21.4152C42.4095 22.0959 41.616 22.6177 40.7281 22.9801C39.8394 23.3426 38.8894 23.5238 37.8773 23.5238H24.045C23.3028 23.5238 22.6672 23.2661 22.1389 22.7495C21.6099 22.2336 21.3461 21.6129 21.3461 20.888C21.3461 20.1632 21.6099 19.5432 22.1389 19.0266C22.6679 18.51 23.3028 18.2523 24.045 18.2523H37.8773C38.4393 18.2523 38.9117 18.0659 39.2942 17.6922C39.6768 17.3186 39.8678 16.8686 39.8678 16.3414C39.8678 15.8143 39.6761 15.3313 39.2942 14.9577C38.9117 14.5847 38.4393 14.3976 37.8773 14.3976H27.3513C26.3614 14.3976 25.4222 14.2164 24.5342 13.854C23.6456 13.4916 22.8528 12.9704 22.1558 12.289C21.4581 11.6083 20.9244 10.8341 20.5532 9.9663C20.1821 9.09915 19.9966 8.18192 19.9966 7.21527C19.9966 6.24862 20.1821 5.30438 20.5532 4.44777C20.9244 3.59116 21.4581 2.81165 22.1558 2.10857C22.8528 1.4279 23.6456 0.906027 24.5342 0.543616C25.4222 0.181205 26.3614 0 27.3513 0H41.2173C41.9595 0 42.5944 0.2583 43.1234 0.774241C43.6517 1.29084 43.9162 1.91089 43.9162 2.63572C43.9162 3.36054 43.6517 4.00892 43.1234 4.51366C42.5944 5.01906 41.9595 5.27143 41.2173 5.27143H27.3513C26.8115 5.27143 26.35 5.46384 25.9681 5.84799C25.5855 6.23281 25.3945 6.68813 25.3945 7.21527C25.3945 7.74241 25.5855 8.19312 25.9681 8.56607C26.35 8.93969 26.8115 9.12616 27.3513 9.12616H37.8773C38.8894 9.12616 39.8394 9.30737 40.7281 9.66978Z" fill="url(#paint0_linear_564_4766)"/>
<path d="M23.1911 2.10857C23.8881 2.7899 24.4225 3.56415 24.7936 4.4313C25.1647 5.29911 25.3503 6.21633 25.3503 7.18232C25.3503 8.91794 24.799 10.444 23.6971 11.7619C24.2369 12.3991 24.6472 13.1074 24.9285 13.8869C25.2092 14.6671 25.3503 15.4743 25.3503 16.3085V16.3414C25.3503 17.3081 25.1647 18.2253 24.7936 19.0925C24.4225 19.9603 23.8881 20.7345 23.1911 21.4152C22.4941 22.0959 21.7006 22.6177 20.8126 22.9801C19.924 23.3426 18.9847 23.5238 17.9956 23.5238H2.7801C2.03788 23.5238 1.40227 23.2661 0.873949 22.7495C0.34495 22.2336 0.0811257 21.6129 0.0811257 20.888C0.0811257 20.1632 0.34495 19.5432 0.873949 19.0266C1.40295 18.51 2.03788 18.2523 2.7801 18.2523H17.9956C18.5354 18.2523 18.9962 18.0659 19.3788 17.6922C19.7614 17.3186 19.9523 16.8686 19.9523 16.3414V16.3085C19.9523 15.7813 19.7607 15.3313 19.3788 14.9577C18.9962 14.5847 18.5354 14.3976 17.9956 14.3976H2.7801C2.03788 14.3976 1.40227 14.14 0.873949 13.6234C0.34495 13.1074 0.0811257 12.4867 0.0811257 11.7619C0.0811257 11.0371 0.34495 10.3893 0.873949 9.88393C1.40227 9.37919 2.03788 9.12616 2.7801 9.12616H17.9956C18.5354 9.12616 18.9962 8.93969 19.3788 8.56607C19.7614 8.19246 19.9523 7.73187 19.9523 7.18232C19.9523 6.63278 19.7607 6.20513 19.3788 5.83152C18.9962 5.45857 18.5354 5.27143 17.9956 5.27143H2.7801C2.03788 5.27143 1.40227 5.01906 0.873949 4.51366C0.34495 4.00892 0.0811257 3.38294 0.0811257 2.63572C0.0811257 1.88849 0.34495 1.29084 0.873949 0.774241C1.40295 0.257641 2.03788 0 2.7801 0H17.9956C18.9847 0 19.924 0.181205 20.8126 0.543616C21.7006 0.906027 22.4934 1.4279 23.1911 2.10857Z" fill="white"/>
<path d="M4.1613 11.1043H0.888793C0.441613 11.1043 0.0791016 11.4583 0.0791016 11.895V20.9137C0.0791016 21.3504 0.441613 21.7045 0.888793 21.7045H4.1613C4.60848 21.7045 4.97099 21.3504 4.97099 20.9137V11.895C4.97099 11.4583 4.60848 11.1043 4.1613 11.1043Z" fill="white"/>
<defs>
<linearGradient id="paint0_linear_564_4766" x1="19.9966" y1="11.7619" x2="45.2657" y2="11.7619" gradientUnits="userSpaceOnUse">
<stop/>
<stop offset="1" stop-color="#29ABE2"/>
<stop offset="1" stop-color="#29ABE2"/>
</linearGradient>
</defs>
</svg>
