<svg viewBox="0 0 391 81" fill="none" xmlns="http://www.w3.org/2000/svg">
<path fill-rule="evenodd" clip-rule="evenodd" d="M288.241 15.7334C306.987 18.1207 321.571 22.2517 336.114 26.6811C383.806 41.2198 398.217 56.9837 362.742 66.8152C307.586 82.0452 184.119 82.0518 90.8012 64.9127C70.1334 61.1238 42.0585 56.6604 22.3242 47.4152C3.96626 38.818 5.84315 31.2998 15.666 25.2613C25.6745 19.0628 43.9485 14.3912 58.356 11.6916C121.341 -0.0721114 244.6 -3.23726 352.649 18.1591C354.872 18.5875 357.161 18.5477 357.879 18.0837C358.597 17.6196 357.553 16.9153 355.491 16.5053C244.269 -5.51757 117.106 -2.42774 52.2788 9.67808C34.3516 13.0486 10.6252 19.3818 2.90533 27.8532C-2.31658 33.6494 -0.175244 40.4272 15.7285 47.9241C36.6835 57.7646 66.497 62.6232 88.4359 66.65C184.774 84.347 312.469 84.4109 369.329 68.6692C407.517 58.1088 392.293 41.1812 341.004 25.5511C325.37 20.7617 309.358 16.3376 289.011 13.7468C286.768 13.4616 284.781 13.6758 284.701 14.2392C284.461 14.7843 286.159 15.4664 288.241 15.7334Z" fill="white" fill-opacity="0.65"/>
</svg>
