<svg width="1440" height="530" viewBox="0 0 1440 530" fill="none" xmlns="http://www.w3.org/2000/svg">
<path d="M143.681 379.956L180.88 231.709L214.048 206.971L244.1 210.819" stroke="#3989C5" stroke-opacity="0.2" stroke-linecap="round" stroke-linejoin="round"/>
<path d="M1176.83 507.129L1042.32 526.553L1034.81 529.302" stroke="#3989C5" stroke-opacity="0.2" stroke-linecap="round" stroke-linejoin="round"/>
<path d="M241.351 120.845L172.084 19.3267" stroke="#3989C5" stroke-opacity="0.2" stroke-linecap="round" stroke-linejoin="round"/>
<path d="M1304 416.422L1344.68 523.071" stroke="#3989C5" stroke-opacity="0.2" stroke-linecap="round" stroke-linejoin="round"/>
<path d="M-0.900391 500.899L39.2304 501.449L94.9372 474.145L191.142 475.611L287.896 477.26L385.75 478.726L484.153 480.192L583.656 481.658L683.892 483.307L785.044 483.49L886.929 472.129L989.914 458.935L1093.63 461.317L1198.27 442.443L1304 416.422" stroke="#3989C5" stroke-opacity="0.2" stroke-linecap="round" stroke-linejoin="round"/>
<path d="M1212.01 326.631L1244.08 362.731L1258 378.307L1270.46 392.417L1284.39 407.809L1351.46 408.726L1375.28 408.909" stroke="#3989C5" stroke-opacity="0.2" stroke-linecap="round" stroke-linejoin="round"/>
<path d="M1057.35 226.762V226.579L1057.53 226.212L1058.63 224.563L1058.81 223.28L1059.55 221.448L1061.75 216.866L1061.93 216.133L1067.98 202.39L1069.99 197.625L1071.64 194.144L1076.77 182.05L1085.2 162.992L1086.3 160.426L1092.53 146.133L1096.2 138.07L1097.66 134.588" stroke="#3989C5" stroke-opacity="0.2" stroke-linecap="round" stroke-linejoin="round"/>
<path d="M1388.29 183.882L1405.33 260.479L1409.91 280.27L1433.19 311.421L1441.43 314.17" stroke="#3989C5" stroke-opacity="0.2" stroke-linecap="round" stroke-linejoin="round"/>
<path d="M1441.43 524.721L1344.68 523.071" stroke="#3989C5" stroke-opacity="0.2" stroke-linecap="round" stroke-linejoin="round"/>
<path d="M966.275 412.207L876.851 435.297L788.16 438.045L700.201 436.946L612.792 435.663L599.232 457.103L506.509 455.82L484.153 480.192L458.316 508.412L439.258 529.302" stroke="#3989C5" stroke-opacity="0.2" stroke-linecap="round" stroke-linejoin="round"/>
<path d="M1084.1 282.835L1093.27 265.977L1117.27 221.814L1127.35 203.306" stroke="#3989C5" stroke-opacity="0.2" stroke-linecap="round" stroke-linejoin="round"/>
<path d="M1388.29 183.882L1391.04 187.547L1396.17 193.961L1402.4 201.84L1407.17 208.071L1412.66 215.034L1420.36 224.929L1423.29 228.411L1428.79 235.558L1430.07 237.39L1432.09 239.955L1435.02 243.437L1437.22 246.369L1438.68 248.201L1441.43 250.401V250.584" stroke="#3989C5" stroke-opacity="0.2" stroke-linecap="round" stroke-linejoin="round"/>
<path d="M1072.01 283.568L1116.72 219.065L1106.83 162.992L1097.66 134.589L1107.56 120.479L1109.02 118.463L1126.8 93.1752L1127.17 92.8088L1127.35 92.6253L1140.91 73.5679" stroke="#3989C5" stroke-opacity="0.2" stroke-linecap="round" stroke-linejoin="round"/>
<path d="M1258 378.306L1294.47 378.856L1321.41 392.966L1398.74 393.699" stroke="#3989C5" stroke-opacity="0.2" stroke-linecap="round" stroke-linejoin="round"/>
<path d="M-0.900391 173.62L33.1837 107.285L35.3821 106.919L74.0473 100.322L101.901 97.9393L143.864 94.4578L167.686 126.709L177.215 139.537L198.106 161.893L230.907 196.892L244.1 210.819L245.75 214.484L301.273 338.909L335.174 356.684L356.796 346.055L376.771 329.93L435.592 336.893L494.598 337.443L507.975 319.485L520.069 306.657L523.368 307.39L535.279 309.956L548.289 312.705L574.86 318.385L629.651 321.134L636.798 313.437L643.211 306.291L649.258 297.312L654.939 293.647L660.07 287.783L665.018 282.469L669.599 277.521L673.813 272.757L677.845 268.359L681.693 264.327L685.358 260.296L688.656 256.631L691.955 253.15L694.886 249.668L697.819 246.552L700.567 243.62L703.316 240.689L705.699 237.94L708.081 235.374L710.462 232.809L712.478 228.228L714.678 226.395L716.693 222.73L718.526 214.851L720.358 206.422L721.641 200.008L723.84 199.825L734.284 203.673L737.949 205.139L746.746 208.437L750.227 209.72L751.143 209.903L754.808 211.003L756.457 211.552L761.955 213.202L766.903 214.668L776.981 216.683L803.185 217.783L811.431 215.584L829.023 212.102H829.39L829.756 212.652L830.123 215.584L830.489 219.065L831.039 222.73L831.405 224.013L831.955 228.044L832.321 230.976L832.872 232.626L833.421 235.008L834.337 236.474L835.253 239.772L835.804 245.27L836.537 249.851L837.269 253.882L838.002 256.997L838.918 261.212L839.651 264.511L840.567 269.458L841.484 273.123L842.583 278.621L843.683 283.752L844.783 289.066L846.065 294.929L847.348 301.16L848.814 304.092L900.856 308.306L904.338 315.636L905.987 315.82H906.354L907.27 315.636L912.584 314.537L955.83 312.338L971.406 311.605L978.553 308.856L995.961 302.259L997.61 301.71L1012.09 296.212L1027.3 290.348L1030.59 289.066H1030.78L1040.67 285.584L1047.09 285.034L1070.73 283.752L1072.01 283.568L1084.1 282.835L1102.98 281.736L1104.44 283.018L1116.72 304.275L1132.11 307.024L1148.06 318.751L1181.59 343.307" stroke="#3989C5" stroke-opacity="0.2" stroke-linecap="round" stroke-linejoin="round"/>
<path d="M1019.42 392.05L948.134 403.961L869.154 403.045L790.542 402.129L712.662 401.212L635.149 400.296L558.185 399.38L542.975 415.872L525.934 434.564L506.51 455.82L414.519 454.537L323.446 450.872L287.897 477.26L246.849 504.93L210.933 529.302" stroke="#3989C5" stroke-opacity="0.2" stroke-linecap="round" stroke-linejoin="round"/>
<path d="M1170.96 377.574L1198.27 442.443L1230.15 495.218L1258.37 529.302" stroke="#3989C5" stroke-opacity="0.2" stroke-linecap="round" stroke-linejoin="round"/>
<path d="M1155.94 172.338L1151.54 142.835L1140.91 73.5679" stroke="#3989C5" stroke-opacity="0.2" stroke-linecap="round" stroke-linejoin="round"/>
<path d="M1212.01 326.631L1231.98 392.05" stroke="#3989C5" stroke-opacity="0.2" stroke-linecap="round" stroke-linejoin="round"/>
<path d="M1054.6 172.704L1061.56 153.646L1062.11 152.547L1068.34 135.505L1077.51 110.217" stroke="#3989C5" stroke-opacity="0.2" stroke-linecap="round" stroke-linejoin="round"/>
<path d="M1070.73 283.752L1062.48 220.165" stroke="#3989C5" stroke-opacity="0.2" stroke-linecap="round" stroke-linejoin="round"/>
<path d="M1237.85 171.605L1253.79 232.992L1284.02 272.39" stroke="#3989C5" stroke-opacity="0.2" stroke-linecap="round" stroke-linejoin="round"/>
<path d="M1017.22 208.437L1013.37 145.217L1009.7 139.72L1009.52 139.353" stroke="#3989C5" stroke-opacity="0.2" stroke-linecap="round" stroke-linejoin="round"/>
<path d="M1319.57 137.704L1326.54 151.081L1347.98 192.495" stroke="#3989C5" stroke-opacity="0.2" stroke-linecap="round" stroke-linejoin="round"/>
<path d="M1188.19 145.767L1202.3 204.039L1217.32 282.286L1233.63 305.558L1238.21 310.872" stroke="#3989C5" stroke-opacity="0.2" stroke-linecap="round" stroke-linejoin="round"/>
<path d="M1355.12 275.505L1337.9 194.694L1319.57 137.704" stroke="#3989C5" stroke-opacity="0.2" stroke-linecap="round" stroke-linejoin="round"/>
<path d="M259.859 198.542L318.132 318.569L376.771 329.93" stroke="#3989C5" stroke-opacity="0.2" stroke-linecap="round" stroke-linejoin="round"/>
<path d="M1133.4 369.694L1076.77 351.736L1005.12 375.741L933.841 375.009L862.924 374.275L792.557 373.542L722.557 372.809L652.923 372.076L583.84 371.344L515.122 370.61L446.771 369.878L378.786 369.144L355.88 382.155L330.226 396.631L301.64 412.94L269.572 431.082L232.922 451.972L143.132 442.81L94.9372 474.145L-0.351009 472.679L-0.900391 473.045" stroke="#3989C5" stroke-opacity="0.2" stroke-linecap="round" stroke-linejoin="round"/>
<path d="M1271.01 273.307L1253.79 232.992L1202.3 204.039" stroke="#3989C5" stroke-opacity="0.2" stroke-linecap="round" stroke-linejoin="round"/>
<path d="M1248.29 311.421L1270.28 366.029L1294.47 378.856L1367.95 379.589L1419.99 380.139" stroke="#3989C5" stroke-opacity="0.2" stroke-linecap="round" stroke-linejoin="round"/>
<path d="M1319.57 137.704L1302.9 148.332L1271.2 170.139" stroke="#3989C5" stroke-opacity="0.2" stroke-linecap="round" stroke-linejoin="round"/>
<path d="M225.593 160.976L223.577 155.662L217.529 139.17L172.084 19.3266L116.927 1.00195" stroke="#3989C5" stroke-opacity="0.2" stroke-linecap="round" stroke-linejoin="round"/>
<path d="M1146.04 362.73L1132.11 307.024" stroke="#3989C5" stroke-opacity="0.2" stroke-linecap="round" stroke-linejoin="round"/>
<path d="M172.084 19.3267L144.414 26.8399L87.058 32.5203L54.2571 55.0597L17.4243 96.4737" stroke="#3989C5" stroke-opacity="0.2" stroke-linecap="round" stroke-linejoin="round"/>
<path d="M144.414 26.8401L114.178 44.4315L54.2571 55.0599L18.1571 97.0232L-2 112.416V528.936" stroke="#3989C5" stroke-opacity="0.2" stroke-linecap="round" stroke-linejoin="round"/>
<path d="M101.901 97.9393L114.178 44.4314" stroke="#3989C5" stroke-opacity="0.2" stroke-linecap="round" stroke-linejoin="round"/>
<path d="M35.749 106.002L54.2571 55.0598" stroke="#3989C5" stroke-opacity="0.2" stroke-linecap="round" stroke-linejoin="round"/>
<path d="M1289.52 272.023L1284.02 272.39L1271.01 273.307L1217.32 282.285L1170.41 307.024" stroke="#3989C5" stroke-opacity="0.2" stroke-linecap="round" stroke-linejoin="round"/>
<path d="M900.856 308.306L952.898 308.673L978.553 308.856" stroke="#3989C5" stroke-opacity="0.2" stroke-linecap="round" stroke-linejoin="round"/>
<path d="M65.2519 296.762L18.7065 274.589" stroke="#3989C5" stroke-opacity="0.2" stroke-linecap="round" stroke-linejoin="round"/>
<path d="M1364.84 415.689L1351.46 408.726L1321.41 392.966L1270.46 392.417" stroke="#3989C5" stroke-opacity="0.2" stroke-linecap="round" stroke-linejoin="round"/>
<path d="M1345.6 266.526L1358.79 293.097L1367.95 311.605" stroke="#3989C5" stroke-opacity="0.2" stroke-linecap="round" stroke-linejoin="round"/>
<path d="M1271.38 94.4578L1286.22 142.285" stroke="#3989C5" stroke-opacity="0.2" stroke-linecap="round" stroke-linejoin="round"/>
<path d="M1419.08 345.872L1398.92 314.904L1396.9 311.788L1392.51 305.191" stroke="#3989C5" stroke-opacity="0.2" stroke-linecap="round" stroke-linejoin="round"/>
<path d="M426.981 230.06L411.588 253.516L394.912 285.584L376.771 329.93" stroke="#3989C5" stroke-opacity="0.2" stroke-linecap="round" stroke-linejoin="round"/>
<path d="M1392.51 305.191L1388.11 306.657L1367.95 311.605L1309.5 306.84L1264.42 322.05" stroke="#3989C5" stroke-opacity="0.2" stroke-linecap="round" stroke-linejoin="round"/>
<path d="M314.65 323.882L356.797 346.055L418.368 346.605L480.122 347.155L494.598 337.443L554.154 337.992L613.892 338.542L622.138 329.38L679.677 329.93L737.4 330.48L795.49 330.846L853.945 325.165L903.238 316.37" stroke="#3989C5" stroke-opacity="0.2" stroke-linecap="round" stroke-linejoin="round"/>
<path d="M318.315 318.385L338.655 276.788L357.713 223.83L375.121 165.191" stroke="#3989C5" stroke-opacity="0.2" stroke-linecap="round" stroke-linejoin="round"/>
<path d="M1104.81 282.469L1138.71 251.134L1160.7 204.406L1188.19 145.767" stroke="#3989C5" stroke-opacity="0.2" stroke-linecap="round" stroke-linejoin="round"/>
<path d="M1217.14 529.302L1176.82 507.129L1157.77 498.333L1144.02 491.919" stroke="#3989C5" stroke-opacity="0.2" stroke-linecap="round" stroke-linejoin="round"/>
<path d="M143.498 380.506L101.718 362.914" stroke="#3989C5" stroke-opacity="0.2" stroke-linecap="round" stroke-linejoin="round"/>
<path d="M1300.33 270.924L1287.87 201.474L1271.2 170.139L1236.56 166.84L1227.04 165.924" stroke="#3989C5" stroke-opacity="0.2" stroke-linecap="round" stroke-linejoin="round"/>
<path d="M1366.49 286.317L1409.92 280.269L1441.43 272.757" stroke="#3989C5" stroke-opacity="0.2" stroke-linecap="round" stroke-linejoin="round"/>
<path d="M990.097 261.945L978.736 256.998L959.495 248.751L919.547 265.61" stroke="#3989C5" stroke-opacity="0.2" stroke-linecap="round" stroke-linejoin="round"/>
<path d="M87.0581 32.5203L116.927 1.00195" stroke="#3989C5" stroke-opacity="0.2" stroke-linecap="round" stroke-linejoin="round"/>
<path d="M1060.65 176.186L1076.96 148.149L1082.45 138.803L1077.51 110.217" stroke="#3989C5" stroke-opacity="0.2" stroke-linecap="round" stroke-linejoin="round"/>
<path d="M1104.81 75.5833L1109.02 118.463" stroke="#3989C5" stroke-opacity="0.2" stroke-linecap="round" stroke-linejoin="round"/>
<path d="M926.328 270.008L968.84 274.772L986.616 263.961L987.165 263.594" stroke="#3989C5" stroke-opacity="0.2" stroke-linecap="round" stroke-linejoin="round"/>
<path d="M429.913 232.809L437.975 237.757L477.739 267.26L517.504 267.443L557.452 267.626L597.4 267.992L637.531 268.176L677.845 268.359L718.343 268.726L759.023 268.909H799.704L840.568 269.458L874.468 269.642L881.249 268.909L883.814 268.542L922.663 269.825" stroke="#3989C5" stroke-opacity="0.2" stroke-linecap="round" stroke-linejoin="round"/>
<path d="M626.719 116.264L629.285 123.594L640.279 147.599L645.044 157.861L646.876 161.893" stroke="#3989C5" stroke-opacity="0.2" stroke-linecap="round" stroke-linejoin="round"/>
<path d="M923.028 269.825L964.076 260.479L987.165 263.594L990.097 261.945L998.159 256.997L1011.72 248.751L1012.27 248.568L1028.58 242.704L1032.61 241.055L1035.18 240.139L1051.67 234.092" stroke="#3989C5" stroke-opacity="0.2" stroke-linecap="round" stroke-linejoin="round"/>
<path d="M1271.2 170.139L1255.8 131.107" stroke="#3989C5" stroke-opacity="0.2" stroke-linecap="round" stroke-linejoin="round"/>
<path d="M1284.39 335.243L1325.44 335.61" stroke="#3989C5" stroke-opacity="0.2" stroke-linecap="round" stroke-linejoin="round"/>
<path d="M975.437 184.981L990.647 194.144L991.013 194.327L1010.62 206.238L1015.2 207.704L1017.22 208.437L1021.62 209.72L1045.07 217.599L1045.99 217.966L1047.82 218.882L1052.58 221.448L1056.43 223.28L1058.27 224.379" stroke="#3989C5" stroke-opacity="0.2" stroke-linecap="round" stroke-linejoin="round"/>
<path d="M996.694 400.663L956.747 409.092L872.819 417.155L789.442 418.988L706.798 417.888L624.52 416.972L612.792 435.663L525.934 434.563L439.808 433.464L414.519 454.537L385.75 478.726L352.215 506.579L325.095 529.302" stroke="#3989C5" stroke-opacity="0.2" stroke-linecap="round" stroke-linejoin="round"/>
<path d="M1255.8 131.107L1249.57 142.652L1236.56 166.84" stroke="#3989C5" stroke-opacity="0.2" stroke-linecap="round" stroke-linejoin="round"/>
<path d="M1289.52 272.023L1309.5 306.84L1330.39 334.327" stroke="#3989C5" stroke-opacity="0.2" stroke-linecap="round" stroke-linejoin="round"/>
<path d="M1423.66 377.757L1424.76 380.139L1441.43 412.757" stroke="#3989C5" stroke-opacity="0.2" stroke-linecap="round" stroke-linejoin="round"/>
<path d="M1183.61 106.369L1213.66 84.5625L1214.94 83.6462" stroke="#3989C5" stroke-opacity="0.2" stroke-linecap="round" stroke-linejoin="round"/>
<path d="M1054.42 378.856L1015.75 380.872L940.62 388.569L865.856 387.836L791.641 386.92L717.792 386.186L644.494 385.27L571.745 384.537L499.363 383.804L427.346 382.888L405.724 397.548L381.535 413.857L354.415 432.364L323.446 450.872L232.923 451.972L191.142 475.611L142.581 503.281L96.7698 529.302" stroke="#3989C5" stroke-opacity="0.2" stroke-linecap="round" stroke-linejoin="round"/>
<path d="M1355.31 327.547L1381.33 355.768L1441.43 356.5" stroke="#3989C5" stroke-opacity="0.2" stroke-linecap="round" stroke-linejoin="round"/>
<path d="M580.908 99.9553L577.426 141.552L574.677 179.484" stroke="#3989C5" stroke-opacity="0.2" stroke-linecap="round" stroke-linejoin="round"/>
<path d="M1410.46 423.935L1441.43 444.825" stroke="#3989C5" stroke-opacity="0.2" stroke-linecap="round" stroke-linejoin="round"/>
<path d="M1010.62 206.238L1016.3 216.133L1017.77 217.05L1021.43 218.333L1022.35 218.516" stroke="#3989C5" stroke-opacity="0.2" stroke-linecap="round" stroke-linejoin="round"/>
<path d="M966.825 192.495L966.092 192.311L944.469 185.715L938.971 190.112L936.59 192.128L929.442 197.809L920.28 205.138L918.265 205.322H916.982L913.5 205.688L889.311 207.704L885.097 209.353L867.138 217.05L860.359 219.982L858.892 220.165L842.034 222.547L831.039 222.73L802.82 224.196H774.599L746.562 224.013L718.526 214.851L690.672 204.772L662.818 195.976L634.965 202.207L631.301 206.238L627.452 227.861L623.42 230.06L619.389 232.442L614.992 233.359L610.411 237.573L578.892 233.725L573.394 240.139L567.53 242.887L561.483 245.82L555.07 248.935L548.289 252.233L541.326 255.715L533.813 259.38L525.934 263.228L517.504 267.442L508.525 271.841L471.876 271.474" stroke="#3989C5" stroke-opacity="0.2" stroke-linecap="round" stroke-linejoin="round"/>
<path d="M1112.32 492.653L1093.63 461.317L1073.66 393.333L1056.43 378.124" stroke="#3989C5" stroke-opacity="0.2" stroke-linecap="round" stroke-linejoin="round"/>
<path d="M228.707 163.541L250.513 134.405L258.394 132.39L271.954 128.725L298.524 121.578L302.739 120.478L304.022 120.112L323.446 119.562L340.855 134.955L353.315 145.95L356.247 148.515L358.08 150.164L362.477 153.829L367.791 158.777L369.258 159.877L375.121 165.191L400.959 197.442L426.98 230.06L429.913 232.809L437.425 239.589L437.608 239.955L467.111 267.076L470.593 270.191L471.876 271.474L477.006 276.238L479.022 278.254L485.985 282.835L492.033 286.683L500.828 292.547L506.876 296.395L520.436 305.375L541.876 305.558L551.405 298.961L560.384 292.914L568.813 287.233L576.692 281.919L620.672 282.285L665.018 282.469L709.364 282.835L754.076 283.202L798.788 283.385L843.683 283.751L888.762 284.118L934.023 284.301L979.469 284.668L1025.1 285.034H1047.09" stroke="#3989C5" stroke-opacity="0.2" stroke-linecap="round" stroke-linejoin="round"/>
<path d="M907.27 315.636H904.338L850.28 311.055L796.588 314.17L743.081 313.804H689.756L636.798 313.437L584.022 312.888L548.289 312.705" stroke="#3989C5" stroke-opacity="0.2" stroke-linecap="round" stroke-linejoin="round"/>
<path d="M1068.34 135.505L1065.41 100.139L1061.38 84.7456" stroke="#3989C5" stroke-opacity="0.2" stroke-linecap="round" stroke-linejoin="round"/>
<path d="M531.064 161.709L529.232 168.306L525.75 180.767L520.436 215.4" stroke="#3989C5" stroke-opacity="0.2" stroke-linecap="round" stroke-linejoin="round"/>
<path d="M559.651 116.997L556.902 113.332" stroke="#3989C5" stroke-opacity="0.2" stroke-linecap="round" stroke-linejoin="round"/>
<path d="M480.305 190.296L479.389 191.212L476.274 194.144" stroke="#3989C5" stroke-opacity="0.2" stroke-linecap="round" stroke-linejoin="round"/>
<path d="M1401.67 136.971L1373.82 155.845L1365.39 167.207" stroke="#3989C5" stroke-opacity="0.2" stroke-linecap="round" stroke-linejoin="round"/>
<path d="M1326.54 151.081L1321.41 136.605L1315.36 119.38" stroke="#3989C5" stroke-opacity="0.2" stroke-linecap="round" stroke-linejoin="round"/>
<path d="M250.513 134.406L217.529 139.17" stroke="#3989C5" stroke-opacity="0.2" stroke-linecap="round" stroke-linejoin="round"/>
<path d="M1096.2 138.07L1090.52 129.641L1077.51 110.217" stroke="#3989C5" stroke-opacity="0.2" stroke-linecap="round" stroke-linejoin="round"/>
<path d="M174.466 120.112L190.958 149.065" stroke="#3989C5" stroke-opacity="0.2" stroke-linecap="round" stroke-linejoin="round"/>
<path d="M18.7065 274.589L-0.900391 301.343" stroke="#3989C5" stroke-opacity="0.2" stroke-linecap="round" stroke-linejoin="round"/>
<path d="M1364.1 189.013L1360.44 162.076L1359.34 158.044" stroke="#3989C5" stroke-opacity="0.2" stroke-linecap="round" stroke-linejoin="round"/>
<path d="M1182.32 307.574L1193.32 336.893" stroke="#3989C5" stroke-opacity="0.2" stroke-linecap="round" stroke-linejoin="round"/>
<path d="M1391.04 187.547L1390.31 183.332L1385.18 157.678" stroke="#3989C5" stroke-opacity="0.2" stroke-linecap="round" stroke-linejoin="round"/>
<path d="M491.117 150.348L489.284 152.913L480.122 167.024L474.808 175.453" stroke="#3989C5" stroke-opacity="0.2" stroke-linecap="round" stroke-linejoin="round"/>
<path d="M938.971 189.746L936.59 160.427L934.207 139.353" stroke="#3989C5" stroke-opacity="0.2" stroke-linecap="round" stroke-linejoin="round"/>
<path d="M983.5 129.458L960.412 126.709L948.683 132.207L934.207 139.353" stroke="#3989C5" stroke-opacity="0.2" stroke-linecap="round" stroke-linejoin="round"/>
<path d="M1241.33 140.269L1227.77 109.484L1214.94 83.6462" stroke="#3989C5" stroke-opacity="0.2" stroke-linecap="round" stroke-linejoin="round"/>
<path d="M518.97 152.18L516.771 153.097L508.342 156.578L497.347 161.159L496.98 161.893L483.97 186.631" stroke="#3989C5" stroke-opacity="0.2" stroke-linecap="round" stroke-linejoin="round"/>
<path d="M556.902 113.332L536.562 131.107L532.531 159.144" stroke="#3989C5" stroke-opacity="0.2" stroke-linecap="round" stroke-linejoin="round"/>
<path d="M1090.88 375.741L1076.77 351.736L1063.58 323.15L1051.48 307.024L1040.67 285.584" stroke="#3989C5" stroke-opacity="0.2" stroke-linecap="round" stroke-linejoin="round"/>
<path d="M634.782 155.479L621.222 131.107L617.19 128.358L614.808 127.625" stroke="#3989C5" stroke-opacity="0.2" stroke-linecap="round" stroke-linejoin="round"/>
<path d="M545.541 239.955L573.394 240.139H605.646L638.08 240.322L670.698 240.505L703.316 240.688L735.934 240.871L768.735 241.055L801.536 240.871L819.128 238.49L833.788 236.474" stroke="#3989C5" stroke-opacity="0.2" stroke-linecap="round" stroke-linejoin="round"/>
<path d="M1314.63 355.218L1339.91 366.762L1367.95 379.59L1398.92 393.7" stroke="#3989C5" stroke-opacity="0.2" stroke-linecap="round" stroke-linejoin="round"/>
<path d="M848.814 304.092L850.28 311.055L852.113 318.569L853.945 325.165L855.778 337.626L857.976 349.354L860.359 361.998L862.924 374.275L865.856 387.836L869.154 403.045L872.819 417.155L876.851 435.297L881.616 456.37L886.93 472.129L893.16 502.365L899.94 529.302" stroke="#3989C5" stroke-opacity="0.2" stroke-linecap="round" stroke-linejoin="round"/>
<path d="M912.584 314.537L917.165 338.359L922.112 347.888L949.599 349.72" stroke="#3989C5" stroke-opacity="0.2" stroke-linecap="round" stroke-linejoin="round"/>
<path d="M1090.52 129.641L1087.4 102.52L1083 68.9866" stroke="#3989C5" stroke-opacity="0.2" stroke-linecap="round" stroke-linejoin="round"/>
<path d="M855.045 231.16L832.688 231.893L802.269 230.976L772.4 230.793L742.348 229.144L712.478 228.228L682.793 230.427L680.044 232.809L676.929 235.191L673.813 237.757H642.112L638.08 240.322L633.866 243.254L629.468 246.186L595.384 246.003L561.483 245.82H534.546" stroke="#3989C5" stroke-opacity="0.2" stroke-linecap="round" stroke-linejoin="round"/>
<path d="M842.034 222.547L831.405 224.013L827.374 224.38L802.636 226.395L773.866 226.212L745.279 226.029L716.694 222.73L688.107 218.149L659.704 216.317L631.3 206.238L630.568 206.788L605.829 220.165L602.897 221.631L598.499 227.678L584.206 226.945H583.473L569.729 226.212L540.959 227.495L514.206 227.312" stroke="#3989C5" stroke-opacity="0.2" stroke-linecap="round" stroke-linejoin="round"/>
<path d="M1102.98 281.736L1104.44 283.018L1139.63 297.861L1148.06 301.71L1159.05 306.474" stroke="#3989C5" stroke-opacity="0.2" stroke-linecap="round" stroke-linejoin="round"/>
<path d="M1441.43 380.139L1428.24 374.825L1410.1 367.495L1339.91 366.762L1270.28 366.029L1244.08 362.73" stroke="#3989C5" stroke-opacity="0.2" stroke-linecap="round" stroke-linejoin="round"/>
<path d="M715.777 178.568L691.772 167.756" stroke="#3989C5" stroke-opacity="0.2" stroke-linecap="round" stroke-linejoin="round"/>
<path d="M1190.57 529.302L1176.83 507.129" stroke="#3989C5" stroke-opacity="0.2" stroke-linecap="round" stroke-linejoin="round"/>
<path d="M498.263 223.097H524.467L551.954 223.28L579.441 223.463L583.656 221.814L591.352 219.432L607.295 214.301L628.185 205.139L631.666 203.673L634.965 202.207L638.447 184.981" stroke="#3989C5" stroke-opacity="0.2" stroke-linecap="round" stroke-linejoin="round"/>
<path d="M380.985 121.578L406.823 119.196" stroke="#3989C5" stroke-opacity="0.2" stroke-linecap="round" stroke-linejoin="round"/>
<path d="M580.908 99.9553L572.478 106.552L560.75 116.081" stroke="#3989C5" stroke-opacity="0.2" stroke-linecap="round" stroke-linejoin="round"/>
<path d="M496.798 161.893L486.169 165.191L474.808 175.453L467.295 182.233" stroke="#3989C5" stroke-opacity="0.2" stroke-linecap="round" stroke-linejoin="round"/>
<path d="M995.961 302.259L947.767 301.893L897.374 301.526L847.348 301.16L797.505 300.427L747.845 300.244L698.551 300.06L649.258 297.312L600.332 299.327L551.405 298.961L526.3 298.778" stroke="#3989C5" stroke-opacity="0.2" stroke-linecap="round" stroke-linejoin="round"/>
<path d="M1027.3 290.348L985.332 290.165L938.239 289.799L891.511 289.432L844.783 289.065L798.421 288.882L752.06 288.516L706.065 288.149L660.07 287.783L614.441 287.599L568.813 287.233L523.551 286.867L498.63 286.683" stroke="#3989C5" stroke-opacity="0.2" stroke-linecap="round" stroke-linejoin="round"/>
<path d="M1085.2 162.992L1082.45 138.803" stroke="#3989C5" stroke-opacity="0.2" stroke-linecap="round" stroke-linejoin="round"/>
<path d="M574.677 89.1438L562.399 110.217" stroke="#3989C5" stroke-opacity="0.2" stroke-linecap="round" stroke-linejoin="round"/>
<path d="M803.736 210.087L827.74 208.071L827.924 207.338L837.453 206.238" stroke="#3989C5" stroke-opacity="0.2" stroke-linecap="round" stroke-linejoin="round"/>
<path d="M1008.97 139.17L986.799 129.824" stroke="#3989C5" stroke-opacity="0.2" stroke-linecap="round" stroke-linejoin="round"/>
<path d="M1199.73 151.631L1196.25 127.442L1184.16 106.919" stroke="#3989C5" stroke-opacity="0.2" stroke-linecap="round" stroke-linejoin="round"/>
<path d="M803.918 208.62L827.74 208.071L834.337 207.704" stroke="#3989C5" stroke-opacity="0.2" stroke-linecap="round" stroke-linejoin="round"/>
<path d="M1170.96 377.574L1147.14 376.657L1108.84 377.207" stroke="#3989C5" stroke-opacity="0.2" stroke-linecap="round" stroke-linejoin="round"/>
<path d="M984.599 344.223L978.736 321.134L971.406 311.605" stroke="#3989C5" stroke-opacity="0.2" stroke-linecap="round" stroke-linejoin="round"/>
<path d="M829.023 212.102L828.84 211.186L828.291 210.087L827.74 208.071L827.374 207.338L803.918 207.887L780.096 208.437" stroke="#3989C5" stroke-opacity="0.2" stroke-linecap="round" stroke-linejoin="round"/>
<path d="M1061.38 84.7455L1078.79 68.9866" stroke="#3989C5" stroke-opacity="0.2" stroke-linecap="round" stroke-linejoin="round"/>
<path d="M780.646 207.154L803.918 206.422L826.824 205.322L840.568 204.589" stroke="#3989C5" stroke-opacity="0.2" stroke-linecap="round" stroke-linejoin="round"/>
<path d="M1409.92 311.605L1433.19 311.421L1441.43 297.495" stroke="#3989C5" stroke-opacity="0.2" stroke-linecap="round" stroke-linejoin="round"/>
<path d="M1061.75 216.867L1044.34 211.919L1021.62 209.72" stroke="#3989C5" stroke-opacity="0.2" stroke-linecap="round" stroke-linejoin="round"/>
<path d="M1413.76 171.605L1401.67 136.971L1390.12 117.547" stroke="#3989C5" stroke-opacity="0.2" stroke-linecap="round" stroke-linejoin="round"/>
<path d="M1441.43 342.757L1419.08 345.872" stroke="#3989C5" stroke-opacity="0.2" stroke-linecap="round" stroke-linejoin="round"/>
<path d="M1441.43 391.134L1426.77 380.139L1423.66 377.757" stroke="#3989C5" stroke-opacity="0.2" stroke-linecap="round" stroke-linejoin="round"/>
<path d="M477.006 276.238L499.179 276.422L541.51 276.605L584.022 276.971L626.719 277.154L669.599 277.521L712.662 277.888L755.725 278.071L799.154 278.437L842.583 278.62H886.197L929.992 275.505" stroke="#3989C5" stroke-opacity="0.2" stroke-linecap="round" stroke-linejoin="round"/>
<path d="M531.064 161.709L527.216 165.191L515.672 175.452L514.572 176.369" stroke="#3989C5" stroke-opacity="0.2" stroke-linecap="round" stroke-linejoin="round"/>
<path d="M966.091 192.311L963.343 171.055L960.412 126.709L957.663 122.495" stroke="#3989C5" stroke-opacity="0.2" stroke-linecap="round" stroke-linejoin="round"/>
<path d="M410.305 133.49L418.184 142.468L420.017 144.667L443.106 171.238L448.603 177.469L457.949 193.594L464.546 205.139L487.269 245.27L492.033 247.469L498.263 250.401L514.755 258.097L525.934 263.228L564.599 263.595L603.447 263.778L642.479 263.961L647.242 260.113L685.358 260.296L723.473 260.479L761.772 260.846L800.253 261.029L838.919 261.212L877.584 261.396L916.432 255.348L955.28 238.673L994.312 237.207L1012.27 248.568" stroke="#3989C5" stroke-opacity="0.2" stroke-linecap="round" stroke-linejoin="round"/>
<path d="M493.865 217.233L514.939 217.416H540.777L566.797 217.599L571.378 215.767L590.619 214.301" stroke="#3989C5" stroke-opacity="0.2" stroke-linecap="round" stroke-linejoin="round"/>
<path d="M1147.14 376.658L1126.25 373.542" stroke="#3989C5" stroke-opacity="0.2" stroke-linecap="round" stroke-linejoin="round"/>
<path d="M1127.35 92.6253L1126.43 91.8925L1121.49 88.0441L1104.81 75.5833" stroke="#3989C5" stroke-opacity="0.2" stroke-linecap="round" stroke-linejoin="round"/>
<path d="M804.469 198.358H825.358" stroke="#3989C5" stroke-opacity="0.2" stroke-linecap="round" stroke-linejoin="round"/>
<path d="M1015.2 207.704L1008.61 202.39L990.28 187.914L979.652 181.133L971.956 176.369L963.343 171.055L936.59 160.427L909.835 169.222L904.521 172.887L883.081 188.463L870.07 196.16L856.327 204.039L850.464 206.055L829.573 212.285L829.023 212.102L816.746 213.385L803.552 214.118L778.814 212.468L758.29 211.552" stroke="#3989C5" stroke-opacity="0.2" stroke-linecap="round" stroke-linejoin="round"/>
<path d="M626.719 116.264L623.971 127.442L621.222 131.107L619.389 151.814" stroke="#3989C5" stroke-opacity="0.2" stroke-linecap="round" stroke-linejoin="round"/>
<path d="M246.116 214.118L259.859 198.542" stroke="#3989C5" stroke-opacity="0.2" stroke-linecap="round" stroke-linejoin="round"/>
<path d="M358.08 150.165L374.572 137.521L380.985 121.578" stroke="#3989C5" stroke-opacity="0.2" stroke-linecap="round" stroke-linejoin="round"/>
<path d="M998.16 256.997L994.312 237.207L989.364 229.51L984.416 205.688L979.835 195.427L975.437 184.981" stroke="#3989C5" stroke-opacity="0.2" stroke-linecap="round" stroke-linejoin="round"/>
<path d="M682.793 230.427L653.107 230.244L623.42 230.06H603.447" stroke="#3989C5" stroke-opacity="0.2" stroke-linecap="round" stroke-linejoin="round"/>
<path d="M764.887 195.06L784.677 195.61H804.652L824.809 195.243L844.416 194.693L851.929 193.594" stroke="#3989C5" stroke-opacity="0.2" stroke-linecap="round" stroke-linejoin="round"/>
<path d="M1052.77 171.421L1061.56 153.646" stroke="#3989C5" stroke-opacity="0.2" stroke-linecap="round" stroke-linejoin="round"/>
<path d="M785.228 193.777L804.834 194.144H824.442H844.232" stroke="#3989C5" stroke-opacity="0.2" stroke-linecap="round" stroke-linejoin="round"/>
<path d="M326.561 358.333L335.174 356.684L399.493 357.233L418.368 346.605L435.593 336.893L451.352 322.6L465.646 292.547L479.022 278.254" stroke="#3989C5" stroke-opacity="0.2" stroke-linecap="round" stroke-linejoin="round"/>
<path d="M667.217 529.302L673.813 510.977L683.892 483.307L692.505 458.385L700.201 436.945L706.798 417.888L712.662 401.212L717.792 386.186L722.557 372.809L726.772 360.532L730.62 349.537L734.285 339.642L737.4 330.479L740.332 321.683L743.081 313.804L745.646 306.474L747.846 300.244L750.044 294.196L752.06 288.516L754.076 283.202L755.725 278.071L757.374 273.306L759.023 268.908L760.489 264.693L761.772 260.846L763.055 256.997L764.338 253.516L765.62 250.217L766.72 246.919L767.636 243.987L768.735 241.055L769.652 238.306L770.568 235.741L771.484 233.175L772.4 230.793L773.133 228.228L773.866 226.212L774.599 224.196L775.333 221.631L776.065 219.615L776.615 217.416L777.348 215.95L777.898 214.667L778.447 213.201L778.997 211.552L779.547 210.086L780.096 208.437L780.647 207.154L781.012 205.688L781.563 204.406L782.112 202.939L782.479 201.84L782.845 200.557L783.395 199.458L783.761 198.358L784.128 197.259L784.495 196.159L784.861 195.06L785.228 193.777L785.594 192.861L785.96 191.762L786.144 190.662L786.51 189.929" stroke="#3989C5" stroke-opacity="0.2" stroke-linecap="round" stroke-linejoin="round"/>
<path d="M1067.98 202.39L1066.51 194.877L1061.56 176.735L1060.65 176.186L1054.6 172.704L1052.77 171.421L1048.19 168.673L1035.54 161.159L1027.85 154.746L1025.46 152.913L1020.52 148.699L1013.19 142.468L1009.7 139.72L1009.52 139.353L1008.97 139.17L991.38 132.39L986.799 129.824L983.5 129.458L964.993 124.51L960.228 123.227L957.663 122.495L934.207 139.353L907.819 158.044L899.757 163.908L898.657 164.824L884.73 174.903L881.616 177.102L880.882 177.652L874.286 183.149L868.421 187.914L866.222 189.746L864.756 190.846V191.029L857.427 196.16L855.227 197.992L854.678 197.626L853.762 197.992L852.662 198.542L850.646 199.641L848.814 200.924L847.715 201.291L845.516 202.023L844.05 203.123L842.95 204.589L839.285 206.605L834.521 208.254L831.589 209.17L828.291 210.087L825.175 210.27L803.736 211.003L779.914 209.17L756.824 207.521L737.949 205.139" stroke="#3989C5" stroke-opacity="0.2" stroke-linecap="round" stroke-linejoin="round"/>
<path d="M884.73 174.903L880.699 175.269L861.641 179.301" stroke="#3989C5" stroke-opacity="0.2" stroke-linecap="round" stroke-linejoin="round"/>
<path d="M514.755 258.097L533.813 259.38L571.562 259.746L577.975 255.898L584.022 252.416L619.939 252.6L655.855 252.966L691.955 253.149L728.054 253.332L764.338 253.516L800.804 253.699L837.269 253.882L873.919 248.385L897.557 243.254" stroke="#3989C5" stroke-opacity="0.2" stroke-linecap="round" stroke-linejoin="round"/>
<path d="M1116.72 219.065L1127.35 203.306" stroke="#3989C5" stroke-opacity="0.2" stroke-linecap="round" stroke-linejoin="round"/>
<path d="M935.673 192.311L911.851 197.442L884.547 203.306L857.243 209.903L830.123 215.584L815.463 217.966L803.002 219.798L776.065 219.615L751.143 213.018L749.128 212.468L739.965 208.437L733.918 205.505L722.191 200.191L720.358 199.825L705.515 196.526L693.054 188.28L688.107 188.097H684.625L672.897 187.914H671.981H665.75L657.688 186.997L638.447 184.981L634.049 186.997L613.525 196.343L611.327 197.442L607.295 214.301L602.897 221.631L590.07 223.463L574.677 225.479L546.457 225.296L518.42 225.113H499.729" stroke="#3989C5" stroke-opacity="0.2" stroke-linecap="round" stroke-linejoin="round"/>
<path d="M786.51 189.93H805.018L823.709 188.646L842.4 184.432L859.259 180.034" stroke="#3989C5" stroke-opacity="0.2" stroke-linecap="round" stroke-linejoin="round"/>
<path d="M1387.74 306.291L1366.49 286.317L1355.12 275.505L1345.6 266.526L1300.33 270.924L1289.52 272.023L1285.49 274.406L1274.31 281.186L1233.63 305.557L1215.67 309.589" stroke="#3989C5" stroke-opacity="0.2" stroke-linecap="round" stroke-linejoin="round"/>
<path d="M498.996 248.751L504.677 231.526" stroke="#3989C5" stroke-opacity="0.2" stroke-linecap="round" stroke-linejoin="round"/>
<path d="M1441.43 223.097L1430.07 237.39" stroke="#3989C5" stroke-opacity="0.2" stroke-linecap="round" stroke-linejoin="round"/>
<path d="M1352.19 146.5L1356.96 152.913L1358.97 155.662L1362.82 160.977" stroke="#3989C5" stroke-opacity="0.2" stroke-linecap="round" stroke-linejoin="round"/>
<path d="M747.112 195.976L763.971 196.526L783.945 197.809L804.469 198.908L825.542 199.092L846.065 197.992L854.494 197.442" stroke="#3989C5" stroke-opacity="0.2" stroke-linecap="round" stroke-linejoin="round"/>
<path d="M781.929 529.302L783.028 512.443L785.044 483.49L786.693 459.302L788.16 438.045L789.442 418.987L790.542 402.128L791.641 386.919L792.558 373.542L793.474 361.081L794.207 350.27L794.939 340.191L795.49 330.846L796.039 322.05L796.588 314.17L797.139 307.024L797.505 300.427L798.055 294.563L798.421 288.882L798.788 283.385L799.155 278.437L799.337 273.673L799.704 268.908L800.071 264.693L800.253 261.029L800.437 257.181L800.804 253.699L800.987 250.401L801.17 247.102L801.353 243.987L801.536 240.871L801.72 238.49L801.903 235.741L802.086 233.359L802.269 230.976L802.453 228.594L802.636 226.395L802.82 224.196L803.002 221.997V219.798L803.185 217.783L803.369 216.133V214.85L803.552 213.384V211.735L803.736 210.086L803.918 208.62V207.154L804.102 205.688V204.406L804.285 203.123V201.84L804.469 200.741V199.458V198.358L804.652 197.259V196.159L804.835 195.06V194.144V192.861L805.018 192.128V191.028V189.929" stroke="#3989C5" stroke-opacity="0.2" stroke-linecap="round" stroke-linejoin="round"/>
<path d="M907.636 240.689L905.437 224.013L903.055 217.233" stroke="#3989C5" stroke-opacity="0.2" stroke-linecap="round" stroke-linejoin="round"/>
<path d="M731.17 188.83L747.846 188.463L766.536 190.296L785.594 192.861L805.018 192.495L824.075 192.128L843.5 191.395L863.107 188.28L868.421 187.914" stroke="#3989C5" stroke-opacity="0.2" stroke-linecap="round" stroke-linejoin="round"/>
<path d="M1061.56 176.735L1076.77 182.05" stroke="#3989C5" stroke-opacity="0.2" stroke-linecap="round" stroke-linejoin="round"/>
<path d="M601.065 120.112L597.766 155.479L596.667 171.421" stroke="#3989C5" stroke-opacity="0.2" stroke-linecap="round" stroke-linejoin="round"/>
<path d="M466.928 181.866L458.682 171.055L443.106 171.238" stroke="#3989C5" stroke-opacity="0.2" stroke-linecap="round" stroke-linejoin="round"/>
<path d="M1021.43 134.588L1024.91 145.583L1047.27 156.761L1062.11 152.547" stroke="#3989C5" stroke-opacity="0.2" stroke-linecap="round" stroke-linejoin="round"/>
<path d="M572.845 104.353L574.677 89.1438" stroke="#3989C5" stroke-opacity="0.2" stroke-linecap="round" stroke-linejoin="round"/>
<path d="M500.829 171.055L514.572 176.369L525.75 180.767L550.855 202.39L575.776 214.118H590.803" stroke="#3989C5" stroke-opacity="0.2" stroke-linecap="round" stroke-linejoin="round"/>
<path d="M1426.77 318.019L1437.59 319.851H1441.43" stroke="#3989C5" stroke-opacity="0.2" stroke-linecap="round" stroke-linejoin="round"/>
<path d="M555.437 171.055L562.216 181.133L573.211 198.176L579.991 208.62L594.651 211.003" stroke="#3989C5" stroke-opacity="0.2" stroke-linecap="round" stroke-linejoin="round"/>
<path d="M1441.43 380.322L1426.77 380.139" stroke="#3989C5" stroke-opacity="0.2" stroke-linecap="round" stroke-linejoin="round"/>
<path d="M520.253 239.039L534.546 238.49L539.127 239.039L545.541 239.955L567.53 242.887L600.698 243.071L633.866 243.254L667.217 243.437L700.567 243.62L734.102 243.804L767.636 243.987H801.353L827.924 240.689L835.254 239.772L847.898 235.558L861.092 231.16L862.375 230.427L867.689 228.778L869.154 228.411" stroke="#3989C5" stroke-opacity="0.2" stroke-linecap="round" stroke-linejoin="round"/>
<path d="M406.823 119.196L400.959 124.693L398.21 138.62" stroke="#3989C5" stroke-opacity="0.2" stroke-linecap="round" stroke-linejoin="round"/>
<path d="M516.955 166.107L518.97 152.18" stroke="#3989C5" stroke-opacity="0.2" stroke-linecap="round" stroke-linejoin="round"/>
<path d="M495.148 219.065L509.075 219.249H535.645L562.033 219.432L566.797 217.599H586.588" stroke="#3989C5" stroke-opacity="0.2" stroke-linecap="round" stroke-linejoin="round"/>
<path d="M453.368 166.84L446.038 155.113L427.164 146.683" stroke="#3989C5" stroke-opacity="0.2" stroke-linecap="round" stroke-linejoin="round"/>
<path d="M638.63 156.395L635.698 173.254L634.049 186.997" stroke="#3989C5" stroke-opacity="0.2" stroke-linecap="round" stroke-linejoin="round"/>
<path d="M839.835 235.191L833.421 235.008L801.903 235.741H770.568L739.232 235.558L708.081 235.374L676.929 235.191L645.96 235.008L642.112 237.757L610.41 237.574L605.646 240.139L600.698 243.071L595.384 246.003L589.887 249.118L555.07 248.935H541.326" stroke="#3989C5" stroke-opacity="0.2" stroke-linecap="round" stroke-linejoin="round"/>
<path d="M890.778 221.264L889.311 207.704" stroke="#3989C5" stroke-opacity="0.2" stroke-linecap="round" stroke-linejoin="round"/>
<path d="M691.772 167.756L689.756 174.72L688.107 188.097" stroke="#3989C5" stroke-opacity="0.2" stroke-linecap="round" stroke-linejoin="round"/>
<path d="M995.411 342.39L1005.12 375.741L1015.75 380.872L1026.2 389.485" stroke="#3989C5" stroke-opacity="0.2" stroke-linecap="round" stroke-linejoin="round"/>
<path d="M765.254 213.202L778.264 213.934L803.369 215.4L811.432 215.584L829.573 212.285L838.919 207.154" stroke="#3989C5" stroke-opacity="0.2" stroke-linecap="round" stroke-linejoin="round"/>
<path d="M948.683 132.207L957.663 122.495" stroke="#3989C5" stroke-opacity="0.2" stroke-linecap="round" stroke-linejoin="round"/>
<path d="M356.247 148.515L361.195 136.421" stroke="#3989C5" stroke-opacity="0.2" stroke-linecap="round" stroke-linejoin="round"/>
<path d="M750.777 197.076L763.238 197.626L783.578 198.908L804.468 200.191H825.725L846.615 199.092L852.662 198.542" stroke="#3989C5" stroke-opacity="0.2" stroke-linecap="round" stroke-linejoin="round"/>
<path d="M410.121 133.489L400.959 124.693L398.577 124.327L380.985 121.578L361.195 136.421L340.854 134.955" stroke="#3989C5" stroke-opacity="0.2" stroke-linecap="round" stroke-linejoin="round"/>
<path d="M1021.43 134.588L1017.22 136.421L1009.7 139.719" stroke="#3989C5" stroke-opacity="0.2" stroke-linecap="round" stroke-linejoin="round"/>
<path d="M582.007 221.448L557.086 221.264L551.954 223.28L546.457 225.296L540.959 227.495L535.096 229.694H522.452" stroke="#3989C5" stroke-opacity="0.2" stroke-linecap="round" stroke-linejoin="round"/>
<path d="M1092.53 146.133L1082.45 138.803" stroke="#3989C5" stroke-opacity="0.2" stroke-linecap="round" stroke-linejoin="round"/>
<path d="M858.892 230.793L855.045 231.16L832.688 231.893L802.086 233.359L771.484 233.175L740.882 232.992L739.233 235.558L737.584 238.123L705.699 237.94L673.813 237.756L670.699 240.505L667.217 243.437L663.552 246.369L629.468 246.186L624.887 249.301L589.887 249.118L584.022 252.416L548.289 252.233H535.829" stroke="#3989C5" stroke-opacity="0.2" stroke-linecap="round" stroke-linejoin="round"/>
<path d="M353.315 145.95L361.195 136.421" stroke="#3989C5" stroke-opacity="0.2" stroke-linecap="round" stroke-linejoin="round"/>
<path d="M619.573 126.16L626.719 116.264" stroke="#3989C5" stroke-opacity="0.2" stroke-linecap="round" stroke-linejoin="round"/>
<path d="M1421.46 204.406L1413.76 171.605L1385.18 157.678L1373.82 155.845L1362.82 160.976" stroke="#3989C5" stroke-opacity="0.2" stroke-linecap="round" stroke-linejoin="round"/>
<path d="M665.75 187.914L662.818 195.976L659.704 216.317L656.405 228.044" stroke="#3989C5" stroke-opacity="0.2" stroke-linecap="round" stroke-linejoin="round"/>
<path d="M1107.56 120.479L1087.4 102.52L1065.41 100.138L1043.42 128.725L1047.27 156.761L1048.19 168.672" stroke="#3989C5" stroke-opacity="0.2" stroke-linecap="round" stroke-linejoin="round"/>
<path d="M372.923 149.432L374.572 137.521" stroke="#3989C5" stroke-opacity="0.2" stroke-linecap="round" stroke-linejoin="round"/>
<path d="M1441.43 328.097L1429.34 319.851L1426.77 318.018L1414.86 316.736" stroke="#3989C5" stroke-opacity="0.2" stroke-linecap="round" stroke-linejoin="round"/>
<path d="M451.352 165.191L446.038 155.112L429.729 148.515" stroke="#3989C5" stroke-opacity="0.2" stroke-linecap="round" stroke-linejoin="round"/>
<path d="M1139.63 297.861L1150.99 296.579L1202.3 204.039" stroke="#3989C5" stroke-opacity="0.2" stroke-linecap="round" stroke-linejoin="round"/>
<path d="M785.96 191.762L766.536 190.296H746.929L735.751 191.762" stroke="#3989C5" stroke-opacity="0.2" stroke-linecap="round" stroke-linejoin="round"/>
<path d="M516.221 141.369L510.724 150.531L510.541 150.898" stroke="#3989C5" stroke-opacity="0.2" stroke-linecap="round" stroke-linejoin="round"/>
<path d="M382.451 145.4L374.572 137.521" stroke="#3989C5" stroke-opacity="0.2" stroke-linecap="round" stroke-linejoin="round"/>
<path d="M827.007 205.872H837.819" stroke="#3989C5" stroke-opacity="0.2" stroke-linecap="round" stroke-linejoin="round"/>
<path d="M520.62 154.746L530.698 159.144" stroke="#3989C5" stroke-opacity="0.2" stroke-linecap="round" stroke-linejoin="round"/>
<path d="M913.5 237.94L916.432 255.348L919.547 265.61" stroke="#3989C5" stroke-opacity="0.2" stroke-linecap="round" stroke-linejoin="round"/>
<path d="M582.557 181.866L591.902 176.552" stroke="#3989C5" stroke-opacity="0.2" stroke-linecap="round" stroke-linejoin="round"/>
<path d="M919.363 215.95L918.265 205.322" stroke="#3989C5" stroke-opacity="0.2" stroke-linecap="round" stroke-linejoin="round"/>
<path d="M553.054 158.594L549.389 168.673" stroke="#3989C5" stroke-opacity="0.2" stroke-linecap="round" stroke-linejoin="round"/>
<path d="M556.902 113.332L560.2 116.631L577.426 141.552L597.766 155.479L607.662 159.327" stroke="#3989C5" stroke-opacity="0.2" stroke-linecap="round" stroke-linejoin="round"/>
<path d="M410.305 133.49H410.121L398.21 138.62L382.451 145.401L372.923 149.432L372.007 149.798L369.258 159.877" stroke="#3989C5" stroke-opacity="0.2" stroke-linecap="round" stroke-linejoin="round"/>
<path d="M1352.93 529.302L1344.68 523.071L1230.15 495.218L1159.97 498.15L1144.02 491.919L1112.32 492.653L1085.2 493.202L1004.57 476.16L893.16 502.365L783.028 512.443L673.813 510.977L565.515 510.244L553.421 529.302" stroke="#3989C5" stroke-opacity="0.2" stroke-linecap="round" stroke-linejoin="round"/>
<path d="M1126.8 93.175L1126.43 91.8924L1121.49 88.044L1120.93 87.8606L1104.81 75.5832L1083 68.9866H1078.79L1075.86 74.3005L1061.38 84.7455L1039.76 120.479L1018.13 134.588L1008.97 139.17" stroke="#3989C5" stroke-opacity="0.2" stroke-linecap="round" stroke-linejoin="round"/>
<path d="M269.572 127.808L274.153 118.83" stroke="#3989C5" stroke-opacity="0.2" stroke-linecap="round" stroke-linejoin="round"/>
<path d="M1432.09 239.955L1441.43 243.254" stroke="#3989C5" stroke-opacity="0.2" stroke-linecap="round" stroke-linejoin="round"/>
<path d="M367.791 158.777L372.006 149.798" stroke="#3989C5" stroke-opacity="0.2" stroke-linecap="round" stroke-linejoin="round"/>
<path d="M398.577 124.327L406.823 119.196" stroke="#3989C5" stroke-opacity="0.2" stroke-linecap="round" stroke-linejoin="round"/>
<path d="M746.746 208.437L755.908 209.17L779.363 210.819L803.552 212.468L818.029 211.736L828.84 211.186L834.521 208.254L837.453 206.238L837.819 205.872L840.202 205.322L842.95 204.589L846.248 203.306L848.264 202.207L853.212 199.641L855.227 197.992L857.427 196.16L864.756 191.029" stroke="#3989C5" stroke-opacity="0.2" stroke-linecap="round" stroke-linejoin="round"/>
<path d="M1416.88 209.903L1409.55 204.222" stroke="#3989C5" stroke-opacity="0.2" stroke-linecap="round" stroke-linejoin="round"/>
<path d="M715.777 178.568L714.128 183.149L712.478 186.814L711.562 195.793" stroke="#3989C5" stroke-opacity="0.2" stroke-linecap="round" stroke-linejoin="round"/>
<path d="M242.818 123.044L248.315 115.897" stroke="#3989C5" stroke-opacity="0.2" stroke-linecap="round" stroke-linejoin="round"/>
<path d="M705.515 196.526L711.013 200.191L720.359 206.422L725.122 208.437L747.846 217.966L775.333 221.631L803.002 221.998L822.06 219.982L830.489 219.066L858.159 216.317L867.138 217.05" stroke="#3989C5" stroke-opacity="0.2" stroke-linecap="round" stroke-linejoin="round"/>
<path d="M1043.42 128.725L1039.76 120.479" stroke="#3989C5" stroke-opacity="0.2" stroke-linecap="round" stroke-linejoin="round"/>
<path d="M1423.29 228.411L1414.31 212.835L1413.95 212.652L1407.17 208.071" stroke="#3989C5" stroke-opacity="0.2" stroke-linecap="round" stroke-linejoin="round"/>
<path d="M740.882 232.992L710.462 232.809H680.044L649.625 232.625L619.389 232.442H610.593" stroke="#3989C5" stroke-opacity="0.2" stroke-linecap="round" stroke-linejoin="round"/>
<path d="M592.819 111.866L593.735 103.437" stroke="#3989C5" stroke-opacity="0.2" stroke-linecap="round" stroke-linejoin="round"/>
<path d="M754.442 198.176L762.505 198.725L783.395 199.458" stroke="#3989C5" stroke-opacity="0.2" stroke-linecap="round" stroke-linejoin="round"/>
<path d="M302.739 120.479L299.99 118.646L274.153 118.83L248.315 115.897L241.351 120.845" stroke="#3989C5" stroke-opacity="0.2" stroke-linecap="round" stroke-linejoin="round"/>
<path d="M258.394 132.39L260.226 124.144" stroke="#3989C5" stroke-opacity="0.2" stroke-linecap="round" stroke-linejoin="round"/>
<path d="M943.919 213.385L947.401 217.966L951.249 229.51L955.28 238.673L959.495 248.751L964.077 260.479L968.84 274.772L973.972 279.537L979.469 284.668L985.332 290.165L991.564 296.029L997.61 301.71" stroke="#3989C5" stroke-opacity="0.2" stroke-linecap="round" stroke-linejoin="round"/>
<path d="M907.819 158.044L909.835 169.222L911.851 197.442L913.5 205.688" stroke="#3989C5" stroke-opacity="0.2" stroke-linecap="round" stroke-linejoin="round"/>
<path d="M318.132 318.568L310.436 317.102" stroke="#3989C5" stroke-opacity="0.2" stroke-linecap="round" stroke-linejoin="round"/>
<path d="M770.018 214.301L777.531 215.4L803.369 216.133" stroke="#3989C5" stroke-opacity="0.2" stroke-linecap="round" stroke-linejoin="round"/>
<path d="M530.881 232.076L538.761 231.893L553.237 229.694" stroke="#3989C5" stroke-opacity="0.2" stroke-linecap="round" stroke-linejoin="round"/>
<path d="M470.593 270.191L477.739 267.259L487.268 245.27" stroke="#3989C5" stroke-opacity="0.2" stroke-linecap="round" stroke-linejoin="round"/>
<path d="M1413.95 212.468L1409.55 204.222L1402.4 201.84" stroke="#3989C5" stroke-opacity="0.2" stroke-linecap="round" stroke-linejoin="round"/>
<path d="M883.814 268.542L886.197 278.621L888.762 284.118L891.511 289.432L894.259 295.296L897.374 301.526L900.856 308.306" stroke="#3989C5" stroke-opacity="0.2" stroke-linecap="round" stroke-linejoin="round"/>
<path d="M1025.46 152.913L1024.91 145.583" stroke="#3989C5" stroke-opacity="0.2" stroke-linecap="round" stroke-linejoin="round"/>
<path d="M663.735 173.07L669.415 168.673L691.772 167.756L706.248 177.652L715.777 178.568L723.84 183.882L728.238 186.814L728.421 186.997L729.337 187.547L731.17 188.83L735.751 191.762L737.217 193.777L743.447 196.892L744.363 196.343L746.196 195.976L749.495 197.076L752.793 198.176L756.092 199.275L757.924 200.008L759.939 200.557L760.673 200.191H761.589L762.138 199.458L762.871 198.176L763.604 197.076L764.338 195.976L764.887 195.06L765.62 193.045L766.17 190.846L766.903 189.563L767.452 187.364L768.003 186.814L786.327 190.296L805.018 191.029L821.144 190.112L823.893 189.929L842.767 186.081L859.259 180.034L861.641 179.301L879.6 169.039L898.29 163.175L899.757 163.908" stroke="#3989C5" stroke-opacity="0.2" stroke-linecap="round" stroke-linejoin="round"/>
<path d="M723.84 183.882L730.987 183.699L745.097 182.6L749.128 182.966L767.452 187.364L785.961 191.212L805.018 192.495L824.259 193.228L843.5 191.395L862.375 183.882L874.286 183.149" stroke="#3989C5" stroke-opacity="0.2" stroke-linecap="round" stroke-linejoin="round"/>
<path d="M502.478 228.594L505.41 227.311L508.891 225.845L512.374 227.311L517.688 229.694L525.934 233.175L534.18 236.84L547.373 236.657L553.237 229.694L560.2 228.961L564.965 228.594L584.206 226.945L595.384 229.327L598.682 230.06L610.593 232.442L614.992 233.359L645.96 235.008L649.625 232.625L653.107 230.244L656.405 228.044L685.542 225.479L714.678 226.395L743.814 226.579L773.133 228.228L802.453 228.594L831.955 228.044L861.458 223.097L887.113 222.547" stroke="#3989C5" stroke-opacity="0.2" stroke-linecap="round" stroke-linejoin="round"/>
<path d="M923.029 201.657L918.265 204.589L916.982 205.322" stroke="#3989C5" stroke-opacity="0.2" stroke-linecap="round" stroke-linejoin="round"/>
<path d="M1045.99 217.966L1048.92 224.379" stroke="#3989C5" stroke-opacity="0.2" stroke-linecap="round" stroke-linejoin="round"/>
<path d="M505.593 232.076L508.891 225.845" stroke="#3989C5" stroke-opacity="0.2" stroke-linecap="round" stroke-linejoin="round"/>
<path d="M1011.72 248.751L1018.13 277.705L1025.1 285.034L1030.59 289.066" stroke="#3989C5" stroke-opacity="0.2" stroke-linecap="round" stroke-linejoin="round"/>
<path d="M864.757 190.845L856.511 196.159L854.495 197.442L855.411 198.542L856.327 204.039L857.243 209.903L858.16 216.317L859.626 220.165L861.459 223.097L862.375 230.06" stroke="#3989C5" stroke-opacity="0.2" stroke-linecap="round" stroke-linejoin="round"/>
<path d="M664.834 173.804L669.415 168.673" stroke="#3989C5" stroke-opacity="0.2" stroke-linecap="round" stroke-linejoin="round"/>
<path d="M1052.95 221.448H1059.55" stroke="#3989C5" stroke-opacity="0.2" stroke-linecap="round" stroke-linejoin="round"/>
<path d="M508.342 156.578L511.64 150.898L516.221 141.369" stroke="#3989C5" stroke-opacity="0.2" stroke-linecap="round" stroke-linejoin="round"/>
<path d="M986.799 129.824L990.28 187.914L991.013 194.327" stroke="#3989C5" stroke-opacity="0.2" stroke-linecap="round" stroke-linejoin="round"/>
<path d="M1441.43 244.17L1435.02 243.437" stroke="#3989C5" stroke-opacity="0.2" stroke-linecap="round" stroke-linejoin="round"/>
<path d="M496.614 221.081H503.211H530.148L557.086 221.264L562.033 219.432H584.389" stroke="#3989C5" stroke-opacity="0.2" stroke-linecap="round" stroke-linejoin="round"/>
<path d="M169.885 124.51L174.466 120.112" stroke="#3989C5" stroke-opacity="0.2" stroke-linecap="round" stroke-linejoin="round"/>
<path d="M885.097 209.353L884.547 203.306L883.081 188.463L881.615 177.102" stroke="#3989C5" stroke-opacity="0.2" stroke-linecap="round" stroke-linejoin="round"/>
<path d="M1162.17 86.0281L1164.18 91.5255" stroke="#3989C5" stroke-opacity="0.2" stroke-linecap="round" stroke-linejoin="round"/>
<path d="M948.317 208.987L947.401 203.306L944.469 185.715" stroke="#3989C5" stroke-opacity="0.2" stroke-linecap="round" stroke-linejoin="round"/>
<path d="M536.562 131.107L530.881 133.856L529.599 134.588L529.232 134.772L527.95 135.322L516.221 141.369L491.117 150.348L486.169 165.191L481.038 184.798L476.274 188.28" stroke="#3989C5" stroke-opacity="0.2" stroke-linecap="round" stroke-linejoin="round"/>
<path d="M560.2 228.96L556.353 229.144H553.604L535.096 229.694L529.782 231.709" stroke="#3989C5" stroke-opacity="0.2" stroke-linecap="round" stroke-linejoin="round"/>
<path d="M740.332 193.961L745.646 194.511L764.703 195.61L784.311 196.71L804.652 197.259L824.991 196.71L844.966 195.793L851.929 193.594L863.657 190.662L864.756 190.479L866.222 189.746" stroke="#3989C5" stroke-opacity="0.2" stroke-linecap="round" stroke-linejoin="round"/>
<path d="M513.106 226.945L518.42 225.113L524.467 223.097L530.148 221.081L535.645 219.249L540.777 217.416L545.907 215.767L550.855 202.39L555.437 171.055" stroke="#3989C5" stroke-opacity="0.2" stroke-linecap="round" stroke-linejoin="round"/>
<path d="M682.793 230.427L685.542 225.479L688.107 218.149L690.672 204.772L693.054 188.28" stroke="#3989C5" stroke-opacity="0.2" stroke-linecap="round" stroke-linejoin="round"/>
<path d="M667.399 173.804L669.415 168.673" stroke="#3989C5" stroke-opacity="0.2" stroke-linecap="round" stroke-linejoin="round"/>
<path d="M497.896 222.73L503.211 221.081L509.075 219.249L514.939 217.416L520.436 215.4" stroke="#3989C5" stroke-opacity="0.2" stroke-linecap="round" stroke-linejoin="round"/>
<path d="M737.767 193.044L736.667 194.327L735.384 198.358L734.285 203.673" stroke="#3989C5" stroke-opacity="0.2" stroke-linecap="round" stroke-linejoin="round"/>
<path d="M1020.52 148.699L1024.91 145.583" stroke="#3989C5" stroke-opacity="0.2" stroke-linecap="round" stroke-linejoin="round"/>
<path d="M564.965 228.594L569.729 226.212L574.677 225.479L579.441 223.463L583.656 221.814L586.222 219.432L588.421 217.599L592.268 214.118H592.452L595.751 211.186L607.295 201.107L611.327 197.442" stroke="#3989C5" stroke-opacity="0.2" stroke-linecap="round" stroke-linejoin="round"/>
<path d="M613.525 196.343L608.395 195.793" stroke="#3989C5" stroke-opacity="0.2" stroke-linecap="round" stroke-linejoin="round"/>
<path d="M1035.54 161.159L1039.94 174.72L1054.97 186.081L1066.51 194.877L1071.64 194.144" stroke="#3989C5" stroke-opacity="0.2" stroke-linecap="round" stroke-linejoin="round"/>
<path d="M630.75 128.358L629.284 123.594" stroke="#3989C5" stroke-opacity="0.2" stroke-linecap="round" stroke-linejoin="round"/>
<path d="M848.814 304.092L797.138 307.024L745.646 306.474L694.337 305.375L643.211 306.291L592.452 305.924L541.875 305.558L537.661 308.307" stroke="#3989C5" stroke-opacity="0.2" stroke-linecap="round" stroke-linejoin="round"/>
<path d="M607.295 200.741L608.395 195.793" stroke="#3989C5" stroke-opacity="0.2" stroke-linecap="round" stroke-linejoin="round"/>
<path d="M443.656 159.327L446.038 155.113" stroke="#3989C5" stroke-opacity="0.2" stroke-linecap="round" stroke-linejoin="round"/>
<path d="M929.992 275.505L934.023 284.301L938.239 289.799L942.82 295.662L947.767 301.893L952.898 308.673L955.83 312.338" stroke="#3989C5" stroke-opacity="0.2" stroke-linecap="round" stroke-linejoin="round"/>
<path d="M523.368 159.144H527.949L532.347 159.877L547.556 158.96L553.054 158.594" stroke="#3989C5" stroke-opacity="0.2" stroke-linecap="round" stroke-linejoin="round"/>
<path d="M543.159 238.856L547.373 236.657L578.892 233.725L584.206 226.945" stroke="#3989C5" stroke-opacity="0.2" stroke-linecap="round" stroke-linejoin="round"/>
<path d="M1028.58 242.704L1027.48 238.306" stroke="#3989C5" stroke-opacity="0.2" stroke-linecap="round" stroke-linejoin="round"/>
<path d="M1437.22 246.369L1441.43 246.552" stroke="#3989C5" stroke-opacity="0.2" stroke-linecap="round" stroke-linejoin="round"/>
<path d="M937.139 214.484L941.17 215.217" stroke="#3989C5" stroke-opacity="0.2" stroke-linecap="round" stroke-linejoin="round"/>
<path d="M740.882 232.992L742.348 229.144L743.814 226.579L745.279 226.029L746.562 224.013L747.845 217.966L749.128 212.468L750.227 209.72" stroke="#3989C5" stroke-opacity="0.2" stroke-linecap="round" stroke-linejoin="round"/>
<path d="M1369.78 149.615L1352.19 146.5L1348.89 149.065" stroke="#3989C5" stroke-opacity="0.2" stroke-linecap="round" stroke-linejoin="round"/>
<path d="M758.107 199.275L762.138 199.458" stroke="#3989C5" stroke-opacity="0.2" stroke-linecap="round" stroke-linejoin="round"/>
<path d="M843.316 203.123L826.641 203.673L804.101 205.138L780.83 206.422L757.374 206.788L755.908 209.17L751.51 209.903" stroke="#3989C5" stroke-opacity="0.2" stroke-linecap="round" stroke-linejoin="round"/>
<path d="M501.379 227.312H505.41" stroke="#3989C5" stroke-opacity="0.2" stroke-linecap="round" stroke-linejoin="round"/>
<path d="M869.154 228.411L870.621 233.725L872.27 242.887L873.919 248.385L875.751 255.898L877.584 261.396L879.6 265.427L881.249 268.908" stroke="#3989C5" stroke-opacity="0.2" stroke-linecap="round" stroke-linejoin="round"/>
<path d="M527.583 162.809L527.95 159.144" stroke="#3989C5" stroke-opacity="0.2" stroke-linecap="round" stroke-linejoin="round"/>
<path d="M749.494 182.416L748.578 183.516L747.845 188.463L746.929 190.296L746.013 193.961" stroke="#3989C5" stroke-opacity="0.2" stroke-linecap="round" stroke-linejoin="round"/>
<path d="M845.516 202.023L826.275 202.39L804.102 203.856L781.379 205.138L758.29 204.955L738.683 199.275L735.384 198.358L726.405 193.777L712.479 186.814L693.238 176.552L689.756 174.72L667.034 174.903L664.834 173.804L661.72 174.903L659.52 172.337H658.055L647.793 163.908L647.243 163.359L643.578 160.426L638.63 156.395L634.782 155.479L619.39 151.814L614.808 151.448L607.662 159.327L606.012 160.976L596.667 171.421L596.3 171.788L591.903 176.552L588.054 183.516L584.206 207.338L579.992 208.62L575.776 214.118L571.379 215.767H545.908L520.436 215.4L495.148 214.118L491.483 214.301" stroke="#3989C5" stroke-opacity="0.2" stroke-linecap="round" stroke-linejoin="round"/>
<path d="M664.834 173.804L664.651 173.62L661.169 174.17" stroke="#3989C5" stroke-opacity="0.2" stroke-linecap="round" stroke-linejoin="round"/>
<path d="M482.32 184.432L481.038 184.799L479.938 188.28" stroke="#3989C5" stroke-opacity="0.2" stroke-linecap="round" stroke-linejoin="round"/>
<path d="M706.248 177.651L714.127 183.149L716.876 184.615L723.29 187.73L725.672 188.83L732.452 192.311L737.217 193.777L740.149 193.961L743.081 194.877L744.363 196.343L747.112 198.175L750.227 199.275V199.458L759.023 202.573L781.746 203.673L804.285 202.573L826.091 201.29L847.165 200.191L850.28 199.641" stroke="#3989C5" stroke-opacity="0.2" stroke-linecap="round" stroke-linejoin="round"/>
<path d="M427.164 146.683L424.598 144.484" stroke="#3989C5" stroke-opacity="0.2" stroke-linecap="round" stroke-linejoin="round"/>
<path d="M1161.25 89.1436L1162.17 86.0281" stroke="#3989C5" stroke-opacity="0.2" stroke-linecap="round" stroke-linejoin="round"/>
<path d="M1018.13 134.589H1021.43L1043.42 128.725" stroke="#3989C5" stroke-opacity="0.2" stroke-linecap="round" stroke-linejoin="round"/>
<path d="M298.524 121.578L299.99 118.646" stroke="#3989C5" stroke-opacity="0.2" stroke-linecap="round" stroke-linejoin="round"/>
<path d="M1242.79 104.353L1214.94 83.6462L1203.03 84.9289L1162.17 86.0281L1160.52 88.7768" stroke="#3989C5" stroke-opacity="0.2" stroke-linecap="round" stroke-linejoin="round"/>
<path d="M492.399 215.401L495.148 214.118L500.828 171.055" stroke="#3989C5" stroke-opacity="0.2" stroke-linecap="round" stroke-linejoin="round"/>
<path d="M757.924 200.008L760.306 200.374L782.296 202.39L804.285 201.84" stroke="#3989C5" stroke-opacity="0.2" stroke-linecap="round" stroke-linejoin="round"/>
<path d="M486.169 281.369H489.101L532.713 281.553L576.692 281.919L584.022 276.971L590.986 272.207L597.4 267.992L603.447 263.777L609.311 259.929L614.808 256.264L619.939 252.6L624.887 249.301L659.887 249.484L663.552 246.369L697.819 246.552L732.269 246.736L766.719 246.919L801.169 247.102L835.804 245.27L863.473 236.107L870.621 233.725L905.437 224.013L919.914 220.714L940.437 215.95L941.537 215.217L943.919 213.385" stroke="#3989C5" stroke-opacity="0.2" stroke-linecap="round" stroke-linejoin="round"/>
<path d="M966.275 412.207L977.27 438.045L989.914 458.935L1004.57 476.161L1021.8 494.668L1042.32 526.553L1043.24 529.302" stroke="#3989C5" stroke-opacity="0.2" stroke-linecap="round" stroke-linejoin="round"/>
<path d="M656.405 228.044L627.452 227.861L598.499 227.678L596.117 228.96" stroke="#3989C5" stroke-opacity="0.2" stroke-linecap="round" stroke-linejoin="round"/>
<path d="M880.882 177.652L880.699 175.27L879.6 169.039" stroke="#3989C5" stroke-opacity="0.2" stroke-linecap="round" stroke-linejoin="round"/>
<path d="M757.374 206.788L758.29 204.956L759.023 202.573L759.939 200.557" stroke="#3989C5" stroke-opacity="0.2" stroke-linecap="round" stroke-linejoin="round"/>
<path d="M645.227 160.793L643.944 159.144L639.547 152.181L638.08 149.798L636.798 147.966L623.971 127.442L618.473 127.626L617.19 128.359L614.808 127.626L609.677 124.877L601.065 120.112L592.819 111.866L580.908 99.9553" stroke="#3989C5" stroke-opacity="0.2" stroke-linecap="round" stroke-linejoin="round"/>
<path d="M530.881 133.856L529.599 134.222L527.949 135.322" stroke="#3989C5" stroke-opacity="0.2" stroke-linecap="round" stroke-linejoin="round"/>
<path d="M1017.22 136.421L1018.13 134.588" stroke="#3989C5" stroke-opacity="0.2" stroke-linecap="round" stroke-linejoin="round"/>
<path d="M458.682 171.055L448.603 177.469L437.975 237.757L437.425 239.589" stroke="#3989C5" stroke-opacity="0.2" stroke-linecap="round" stroke-linejoin="round"/>
<path d="M1056.8 223.28H1058.81" stroke="#3989C5" stroke-opacity="0.2" stroke-linecap="round" stroke-linejoin="round"/>
<path d="M610.227 123.044L612.06 123.777L626.719 116.264" stroke="#3989C5" stroke-opacity="0.2" stroke-linecap="round" stroke-linejoin="round"/>
<path d="M723.84 199.824L722.191 200.191" stroke="#3989C5" stroke-opacity="0.2" stroke-linecap="round" stroke-linejoin="round"/>
<path d="M898.657 164.824L898.29 163.175" stroke="#3989C5" stroke-opacity="0.2" stroke-linecap="round" stroke-linejoin="round"/>
<path d="M768.003 186.814L749.128 182.966L729.887 186.631L728.421 186.997" stroke="#3989C5" stroke-opacity="0.2" stroke-linecap="round" stroke-linejoin="round"/>
<path d="M1012.09 296.213L991.564 296.029L942.82 295.663L894.259 295.296L846.065 294.929L798.055 294.563L750.044 294.197L702.4 294.013L654.939 293.647L607.662 293.28L560.384 292.914L513.472 292.548H512.007" stroke="#3989C5" stroke-opacity="0.2" stroke-linecap="round" stroke-linejoin="round"/>
<path d="M823.709 188.646L823.893 189.929L824.075 192.128L824.259 193.227L824.442 194.144L824.809 195.243L824.992 196.16L825.175 197.259L825.359 198.358L825.725 199.641L825.908 200.741L826.091 202.023L826.458 202.757L826.642 204.589L827.008 205.872L827.558 207.338L827.924 208.803" stroke="#3989C5" stroke-opacity="0.2" stroke-linecap="round" stroke-linejoin="round"/>
<path d="M906.17 241.421L899.024 244.72L875.751 255.898L838.002 256.997L800.437 257.181L763.055 256.997L725.856 256.814L688.656 256.631L651.641 256.448L647.242 260.112L609.311 259.929L571.562 259.746L564.599 263.594L557.452 267.626L549.756 272.023L508.525 271.841L499.18 276.422L489.101 281.369L487.818 281.919" stroke="#3989C5" stroke-opacity="0.2" stroke-linecap="round" stroke-linejoin="round"/>
<path d="M856.51 196.16L845.516 196.892L824.992 196.709L804.652 195.61L785.044 194.51L765.62 193.044L746.013 193.961L745.097 194.877H743.814" stroke="#3989C5" stroke-opacity="0.2" stroke-linecap="round" stroke-linejoin="round"/>
<path d="M729.337 187.547L729.887 186.631L730.986 183.699" stroke="#3989C5" stroke-opacity="0.2" stroke-linecap="round" stroke-linejoin="round"/>
<path d="M754.992 210.819L755.541 209.903L756.458 208.437" stroke="#3989C5" stroke-opacity="0.2" stroke-linecap="round" stroke-linejoin="round"/>
<path d="M874.468 269.642L841.484 273.123L799.337 273.673L757.374 273.307L715.594 273.123L673.813 272.757L632.4 272.573L590.986 272.207L549.756 272.023L541.509 276.605L532.713 281.553L523.551 286.867L513.472 292.547L512.923 292.914" stroke="#3989C5" stroke-opacity="0.2" stroke-linecap="round" stroke-linejoin="round"/>
<path d="M-0.900391 472.679H-0.351009L54.0736 442.077L101.718 362.914" stroke="#3989C5" stroke-opacity="0.2" stroke-linecap="round" stroke-linejoin="round"/>
<path d="M861.641 179.301L862.375 183.882L863.107 188.28L864.207 190.662L864.756 190.845" stroke="#3989C5" stroke-opacity="0.2" stroke-linecap="round" stroke-linejoin="round"/>
<path d="M842.4 184.432L842.767 186.081L843.316 190.479L843.683 192.128L844.232 194.144L844.783 195.244L845.149 196.343L845.699 197.442L846.248 198.542L846.981 199.641L847.531 200.741V201.107" stroke="#3989C5" stroke-opacity="0.2" stroke-linecap="round" stroke-linejoin="round"/>
<path d="M1085.2 493.202L1021.8 494.668L908.369 529.302" stroke="#3989C5" stroke-opacity="0.2" stroke-linecap="round" stroke-linejoin="round"/>
<path d="M114.178 44.4314L153.393 93.725L174.466 120.112L201.953 140.086L225.409 163.542L227.608 165.741L259.859 198.542L282.949 211.369L338.655 276.788L394.912 285.584L451.352 322.6L507.975 319.485L564.965 320.035L622.138 329.38L629.651 321.134L684.991 321.5L740.332 321.684L796.039 322.05L852.113 318.568L903.238 316.37L905.987 315.82" stroke="#3989C5" stroke-opacity="0.2" stroke-linecap="round" stroke-linejoin="round"/>
<path d="M1372.9 187.181L1368.14 177.285L1364.29 168.673L1361.17 162.076H1360.44L1359.34 158.044L1348.89 149.065L1329.29 131.657L1315.36 119.38L1271.38 94.4578L1242.79 104.353L1227.77 109.484L1184.15 106.919L1183.61 106.369L1164.18 91.5257L1161.25 89.1438L1160.52 88.777L1140.91 73.5679" stroke="#3989C5" stroke-opacity="0.2" stroke-linecap="round" stroke-linejoin="round"/>
<path d="M1361.72 161.709L1362.82 160.976L1369.78 149.615L1390.12 117.547" stroke="#3989C5" stroke-opacity="0.2" stroke-linecap="round" stroke-linejoin="round"/>
<path d="M1414.31 212.835L1416.88 209.903L1421.46 204.406L1441.43 180.4" stroke="#3989C5" stroke-opacity="0.2" stroke-linecap="round" stroke-linejoin="round"/>
<path d="M1032.61 241.055L1027.48 238.306L1021.43 218.149L1016.3 216.133L984.416 205.688L949.599 217.233L947.401 217.966L917.349 236.291" stroke="#3989C5" stroke-opacity="0.2" stroke-linecap="round" stroke-linejoin="round"/>
<path d="M831.589 209.17L830.856 209.537L828.656 210.636" stroke="#3989C5" stroke-opacity="0.2" stroke-linecap="round" stroke-linejoin="round"/>
<path d="M584.206 208.254L587.505 206.422L608.394 195.793L611.876 169.406L615.357 150.898" stroke="#3989C5" stroke-opacity="0.2" stroke-linecap="round" stroke-linejoin="round"/>
<path d="M1370.33 174.903L1376.2 168.123L1385.18 157.678" stroke="#3989C5" stroke-opacity="0.2" stroke-linecap="round" stroke-linejoin="round"/>
<path d="M538.761 231.893L533.447 232.809" stroke="#3989C5" stroke-opacity="0.2" stroke-linecap="round" stroke-linejoin="round"/>
<path d="M1239.13 529.302L1181.04 506.396L1159.97 498.15" stroke="#3989C5" stroke-opacity="0.2" stroke-linecap="round" stroke-linejoin="round"/>
<path d="M65.2518 296.762L33.0002 254.982L-0.900391 211.003" stroke="#3989C5" stroke-opacity="0.2" stroke-linecap="round" stroke-linejoin="round"/>
<path d="M143.865 94.4578L106.848 148.516L65.252 296.762L111.613 346.238L143.132 379.956L222.294 411.841L301.64 412.94L381.535 413.857L461.981 414.956L542.975 415.872L624.52 416.972L635.149 400.296L644.494 385.27L652.923 372.076L660.62 359.982L667.583 348.987L730.62 349.537L794.207 350.27L857.976 349.354L922.112 347.888L927.793 353.202L933.841 375.009L940.62 388.569L948.134 403.961L956.747 409.092L966.275 412.207L996.694 400.663L1019.42 392.05L1026.2 389.485L1054.42 378.856L1056.43 378.124L1108.84 377.207L1126.25 373.542L1133.4 369.694L1146.04 362.731L1181.59 343.307L1193.32 336.893L1212.01 326.631" stroke="#3989C5" stroke-opacity="0.2" stroke-linecap="round" stroke-linejoin="round"/>
<path d="M304.022 120.112L303.838 121.029L282.948 211.369" stroke="#3989C5" stroke-opacity="0.2" stroke-linecap="round" stroke-linejoin="round"/>
<path d="M1423.66 377.757L1419.99 380.139L1398.92 393.699H1398.74L1375.28 408.909L1364.84 415.689L1357.69 420.27" stroke="#3989C5" stroke-opacity="0.2" stroke-linecap="round" stroke-linejoin="round"/>
<path d="M1132.11 307.024L1063.58 323.149L1004.02 340.008" stroke="#3989C5" stroke-opacity="0.2" stroke-linecap="round" stroke-linejoin="round"/>
<path d="M424.598 144.484L411.404 125.793L406.823 119.196" stroke="#3989C5" stroke-opacity="0.2" stroke-linecap="round" stroke-linejoin="round"/>
<path d="M410.305 133.49V133.672L400.959 197.442" stroke="#3989C5" stroke-opacity="0.2" stroke-linecap="round" stroke-linejoin="round"/>
<path d="M1441.43 353.935L1419.08 345.872L1355.31 327.547L1338.45 332.129" stroke="#3989C5" stroke-opacity="0.2" stroke-linecap="round" stroke-linejoin="round"/>
<path d="M-0.900391 243.62L18.7065 274.589L101.718 362.914L103.734 364.563L185.278 429.982L269.572 431.081L354.415 432.364L439.808 433.464L461.981 414.956L481.771 398.463L499.363 383.804L515.122 370.61L529.415 358.699L594.834 359.249L604.73 348.437L667.583 348.987L673.813 339.092L679.677 329.929L684.991 321.5L689.756 313.804L694.337 305.375L698.551 300.06L702.4 294.013L706.065 288.149L709.364 282.835L712.662 277.888L715.594 273.123L718.343 268.725L721.091 264.51L760.489 264.693H800.071L839.651 264.51L879.6 265.427L919.547 265.61L922.662 269.824H923.028L926.327 270.008L929.992 275.505L973.972 279.537L1018.13 277.704L1028.03 264.877L1042.32 246.369L1051.67 234.091L1057.35 226.761L1057.53 226.212L1058.63 224.563L1059.91 223.28L1061.38 221.447L1062.48 220.165L1069.63 210.819L1076.22 202.39L1087.95 187.363L1106.83 162.992L1151.54 142.834L1196.25 127.442L1241.33 140.269L1255.8 131.107L1286.22 142.285L1302.9 148.332L1319.57 137.704" stroke="#3989C5" stroke-opacity="0.2" stroke-linecap="round" stroke-linejoin="round"/>
<path d="M-0.900391 112.05L4.41358 111.316L33.1837 107.285L106.848 148.515L180.88 231.709L255.278 355.95L277.084 367.861L330.226 396.631L405.724 397.547L481.771 398.464L558.185 399.38L571.745 384.537L583.84 371.343L594.835 359.249L660.62 359.982L726.772 360.532L793.474 361.081L860.359 361.998L927.793 353.202L949.599 349.72L984.6 344.223L995.411 342.39L1004.02 340.008L1031.14 321.134L1051.48 307.024L1116.72 304.275L1138.89 305.375L1159.05 306.474H1160.33L1170.41 307.024L1182.32 307.574L1215.67 309.589L1238.21 310.872L1248.29 311.421L1264.42 322.05L1284.39 335.244L1296.67 343.307L1325.44 335.61L1330.39 334.327L1338.45 332.128L1350.36 326.265L1378.03 312.338L1388.11 306.657L1392.51 305.191L1405.33 311.788L1414.86 316.736L1426.59 322.6L1441.43 330.296" stroke="#3989C5" stroke-opacity="0.2" stroke-linecap="round" stroke-linejoin="round"/>
<path d="M143.865 94.4578L165.304 128.908L214.048 206.971L227.791 234.458L284.781 349.72L310.435 361.265L378.786 369.144L399.494 357.233L464.179 357.966L480.122 347.155L542.242 347.888L604.73 348.438L613.892 338.542L673.813 339.092L734.285 339.642L794.939 340.192L855.778 337.626L917.165 338.359L978.736 321.134L1003.29 307.024L1021.98 296.212L1032.06 290.532L1040.67 285.584" stroke="#3989C5" stroke-opacity="0.2" stroke-linecap="round" stroke-linejoin="round"/>
<path d="M583.289 207.154L573.578 193.777L564.599 181.5" stroke="#3989C5" stroke-opacity="0.2" stroke-linecap="round" stroke-linejoin="round"/>
<path d="M308.236 354.484L301.273 338.908" stroke="#3989C5" stroke-opacity="0.2" stroke-linecap="round" stroke-linejoin="round"/>
<path d="M610.227 123.044L601.614 112.966L593.735 103.437L574.677 89.1438" stroke="#3989C5" stroke-opacity="0.2" stroke-linecap="round" stroke-linejoin="round"/>
<path d="M469.127 184.798L476.274 188.28L479.939 190.112L483.42 187.364L488.552 182.6L494.965 176.552L500.829 171.055" stroke="#3989C5" stroke-opacity="0.2" stroke-linecap="round" stroke-linejoin="round"/>
<path d="M562.399 110.217L556.902 113.332L553.054 158.594L556.535 164.091L564.415 176.369" stroke="#3989C5" stroke-opacity="0.2" stroke-linecap="round" stroke-linejoin="round"/>
<path d="M920.28 205.138L947.401 203.306L956.38 201.84" stroke="#3989C5" stroke-opacity="0.2" stroke-linecap="round" stroke-linejoin="round"/>
<path d="M626.719 116.264L628.735 122.311L630.75 128.358L633.316 136.055L638.08 149.798" stroke="#3989C5" stroke-opacity="0.2" stroke-linecap="round" stroke-linejoin="round"/>
<path d="M633.316 136.055L639.913 149.065L644.311 157.678L646.144 161.343" stroke="#3989C5" stroke-opacity="0.2" stroke-linecap="round" stroke-linejoin="round"/>
<path d="M1127.17 92.8086L1126.43 92.0754L1120.93 87.8606" stroke="#3989C5" stroke-opacity="0.2" stroke-linecap="round" stroke-linejoin="round"/>
<path d="M1075.86 74.3005L1083 68.9866" stroke="#3989C5" stroke-opacity="0.2" stroke-linecap="round" stroke-linejoin="round"/>
<path d="M614.258 152.181L615.358 150.898" stroke="#3989C5" stroke-opacity="0.2" stroke-linecap="round" stroke-linejoin="round"/>
<path d="M684.625 188.097L666.301 174.903L664.834 173.804L664.285 173.437L662.269 172.154L646.876 161.893" stroke="#3989C5" stroke-opacity="0.2" stroke-linecap="round" stroke-linejoin="round"/>
<path d="M491.666 246.552L489.101 240.689L470.96 199.092L465.646 186.814L465.095 184.432L458.682 171.055" stroke="#3989C5" stroke-opacity="0.2" stroke-linecap="round" stroke-linejoin="round"/>
<path d="M453.368 166.84L458.682 171.055L465.096 184.432L468.211 189.746L473.892 196.343L489.65 214.301L492.217 217.233L493.866 219.066L495.515 221.082L497.164 223.097L498.996 225.113L501.012 227.312L502.112 228.778L504.677 231.526L505.593 232.259L510.174 235.191L516.221 239.223L525.934 245.636L530.881 248.935L535.829 252.233L541.326 255.715L577.976 255.898L614.808 256.265L651.641 256.448L655.855 252.966L659.887 249.485L694.887 249.668L730.254 249.851L732.27 246.736L734.102 243.804L735.935 240.872L737.584 238.123L769.652 238.307L801.72 238.49L833.788 236.474H833.971H834.521L839.835 235.191L857.794 231.16L858.892 230.793L862.375 230.427L868.421 228.594L869.154 228.411L887.113 222.547L890.778 221.264L903.055 217.233L919.364 215.951L937.139 214.484L940.437 215.951L941.353 215.217L943.736 213.202L948.317 208.987L956.38 201.841L966.825 192.495L975.437 184.982" stroke="#3989C5" stroke-opacity="0.2" stroke-linecap="round" stroke-linejoin="round"/>
<path d="M761.589 200.191L765.803 200.557H782.845L804.468 200.741" stroke="#3989C5" stroke-opacity="0.2" stroke-linecap="round" stroke-linejoin="round"/>
<path d="M304.022 120.112L310.436 132.573L339.755 189.38L357.713 223.83L411.588 253.516L465.646 292.548L498.63 300.977L515.122 305.375L520.253 305.924L522.818 306.84" stroke="#3989C5" stroke-opacity="0.2" stroke-linecap="round" stroke-linejoin="round"/>
<path d="M144.414 26.8401L201.953 140.086L227.242 165.191L254.912 188.097L263.158 195.06L282.948 211.369" stroke="#3989C5" stroke-opacity="0.2" stroke-linecap="round" stroke-linejoin="round"/>
<path d="M527.949 159.144L531.248 160.793L540.043 165.191" stroke="#3989C5" stroke-opacity="0.2" stroke-linecap="round" stroke-linejoin="round"/>
<path d="M765.803 200.557L782.479 201.84" stroke="#3989C5" stroke-opacity="0.2" stroke-linecap="round" stroke-linejoin="round"/>
<path d="M494.965 176.552L497.164 161.709L497.347 161.159" stroke="#3989C5" stroke-opacity="0.2" stroke-linecap="round" stroke-linejoin="round"/>
<path d="M1437.59 319.851L1441.43 320.584" stroke="#3989C5" stroke-opacity="0.2" stroke-linecap="round" stroke-linejoin="round"/>
<path d="M672.897 187.913L667.766 182.05L663.185 176.735L662.269 175.636L661.72 174.903L660.253 173.803L658.787 172.337L635.698 173.254L611.876 169.405L596.117 178.751L588.054 183.516L580.724 182.966L564.599 181.5L560.018 175.086L555.437 171.055L549.389 168.672L540.043 165.191L531.064 161.709" stroke="#3989C5" stroke-opacity="0.2" stroke-linecap="round" stroke-linejoin="round"/>
<path d="M657.688 186.997L659.337 173.437" stroke="#3989C5" stroke-opacity="0.2" stroke-linecap="round" stroke-linejoin="round"/>
<path d="M538.028 238.673L537.478 238.306L534.363 237.573L529.782 243.437" stroke="#3989C5" stroke-opacity="0.2" stroke-linecap="round" stroke-linejoin="round"/>
<path d="M840.568 204.589L844.05 203.123L846.615 202.023L847.715 201.291L848.081 200.924L850.646 199.641L852.113 198.908L852.846 198.542L854.678 197.626" stroke="#3989C5" stroke-opacity="0.2" stroke-linecap="round" stroke-linejoin="round"/>
<path d="M525.934 163.359L523.368 159.144L520.62 154.746L518.97 152.18" stroke="#3989C5" stroke-opacity="0.2" stroke-linecap="round" stroke-linejoin="round"/>
<path d="M271.954 128.725L269.572 127.808L260.226 124.144L247.399 129.641" stroke="#3989C5" stroke-opacity="0.2" stroke-linecap="round" stroke-linejoin="round"/>
<path d="M516.771 153.097L511.64 150.898H510.541L491.117 150.348L489.284 152.913L477.557 167.94L466.928 181.866" stroke="#3989C5" stroke-opacity="0.2" stroke-linecap="round" stroke-linejoin="round"/>
<path d="M766.903 214.667L776.615 217.416" stroke="#3989C5" stroke-opacity="0.2" stroke-linecap="round" stroke-linejoin="round"/>
<path d="M671.981 187.913L667.583 182.416L663.185 176.735" stroke="#3989C5" stroke-opacity="0.2" stroke-linecap="round" stroke-linejoin="round"/>
<path d="M1047.82 218.882L1047.64 218.516L1044.34 211.919L1039.94 174.72L1026.01 159.327L1018.13 150.531L1013.37 145.217L1006.41 141.186L991.38 132.39" stroke="#3989C5" stroke-opacity="0.2" stroke-linecap="round" stroke-linejoin="round"/>
<path d="M-0.900391 382.888L54.0736 442.076L143.132 442.81L185.278 429.982L222.294 411.841L255.278 355.951L284.781 349.72L310.435 361.265L355.88 382.155L427.346 382.888L446.771 369.877L464.179 357.966L529.415 358.699L542.242 347.888L554.153 337.992L564.965 320.034L574.86 318.385L584.022 312.888L592.452 305.924L600.332 299.327L607.662 293.28L614.441 287.599L620.672 282.285L626.719 277.154L632.4 272.573L637.531 268.176L642.479 263.961L681.693 264.327L721.091 264.511L723.473 260.479L725.856 256.814L728.054 253.332L730.253 249.851L765.62 250.217L800.987 250.401L836.537 249.851L872.27 242.887L897.557 243.254L906.17 241.421L907.636 240.689L913.5 237.94L914.966 237.756L915.333 237.573L917.348 236.107L932.191 223.28L940.804 216.133L941.536 215.217L942.453 214.118L943.736 213.202L948.683 211.003L971.589 199.458L979.835 195.427L993.029 202.757L1015.93 215.584L1021.43 218.149L1022.35 218.516L1048.92 224.379L1050.75 224.746L1057.53 226.212" stroke="#3989C5" stroke-opacity="0.2" stroke-linecap="round" stroke-linejoin="round"/>
<path d="M1296.67 343.307L1314.63 355.218L1381.33 355.767L1410.1 367.495L1441.43 367.862" stroke="#3989C5" stroke-opacity="0.2" stroke-linecap="round" stroke-linejoin="round"/>
<path d="M1027.48 238.306L1018.13 236.29L989.364 229.51H951.249L915.333 237.573" stroke="#3989C5" stroke-opacity="0.2" stroke-linecap="round" stroke-linejoin="round"/>
<path d="M1388.29 183.882L1372.9 187.181L1364.1 189.013L1347.98 192.495L1337.9 194.694L1287.87 201.474L1237.85 171.605L1234.91 169.955L1227.04 165.924L1199.73 151.631L1188.19 145.767L1175.18 151.264L1155.94 172.338L1127.35 203.306L1138.71 251.134L1150.99 296.579L1160.33 306.474" stroke="#3989C5" stroke-opacity="0.2" stroke-linecap="round" stroke-linejoin="round"/>
<path d="M1440.88 528.936H-0.534424" stroke="#3989C5" stroke-opacity="0.2" stroke-linecap="round" stroke-linejoin="round"/>
</svg>
